<?xml version="1.0" encoding="utf-8"?>
<!-- Generator: Adobe Illustrator 22.1.0, SVG Export Plug-In . SVG Version: 6.00 Build 0)  -->
<svg version="1.1" id="Livello_2_1_" xmlns="http://www.w3.org/2000/svg" xmlns:xlink="http://www.w3.org/1999/xlink" x="0px"
	 y="0px" viewBox="0 0 2133.8 2358.8" style="enable-background:new 0 0 2133.8 2358.8;" xml:space="preserve">
<g>
	<path style="fill:#D7D7DC;" d="M367.1,2263.4v-6c0-19.8,0-55.7-0.1-96.9c0-52.1-0.1-112.6-0.1-160.2c0-23.8,0-44.4,0-59
		c0-7.3,0-13.1,0.1-17.1c0-2,0-3.6,0-4.6c0-0.5,0-1,0.1-1.5h0v-455.3H95.3V108.4l1288.5-1.5c129.1-0.2,259.8-0.3,386.3-0.4l4.9,0
		l1,4.8c9.2,43.7,18.3,87.4,27.5,131.2c9,43.1,18.1,86.3,27.1,129.4c0.4,1.9,0.8,3.7,1.2,5.5c3.3,15.7,6.6,31.3,9.9,47
		c3.3,15.6,6.5,31.2,9.8,46.9c11.7,55.7,23.4,111.3,35,166.9l0.6,2.9c2,9.6,4,19.3,6.1,29c7.6,36.5,15.3,73,23,109.5
		c7.7,36.6,15.4,73.3,23,109.9c2.5,11.6,4.9,23.3,7.3,34.9c2.4,11.6,4.8,23.2,7.3,34.8l0,0.3c0,0.2,0.1,0.3,0.1,0.5
		c0.1,0.4,0.2,0.9,0.3,1.3c0.1,0.4,0.2,0.8,0.2,1.1c0.1,0.3,0.1,0.6,0.2,0.9l0,0.1l0.3,1.6l7.4,35.1c13.6,65,27.7,132.2,41.6,198.3
		l21.3,101.7c10.9,48.1,17.4,121.9-13.4,200.1c-12.1,30.7-32.4,82.1-86.5,120.8c-57.4,41-118.3,41.9-151,42.4l-0.5,0
		c-2.1,0-4.5,0-7,0c-61.8,0-114-15.1-159.5-46.1c-31.5-21.6-60.1-52.2-80.5-86.3c-12.8-21.3-22.6-44.2-29.4-68.4h-157.1v-136.3h-106
		v141.9H754.1v795H367.1z"/>
	<path style="fill:#9E9D9C;" d="M1770.1,112.5c18.2,86.9,36.4,173.7,54.6,260.6c0.4,1.9,0.8,3.8,1.2,5.6
		c6.6,31.3,13.1,62.5,19.7,93.8c11.8,56.3,23.6,112.5,35.4,168.7c2.1,10,4.2,20,6.3,30.1c15.3,73.1,30.7,146.3,46,219.4
		c4.9,23.2,9.7,46.5,14.6,69.7c0.1,0.6,0.3,1.3,0.4,2c0.2,0.8,0.3,1.5,0.5,2.3c0.1,0.5,0.2,1,0.3,1.5c16.3,77.8,32.6,155.7,49,233.5
		c7.1,33.9,14.2,67.8,21.3,101.7c8.2,36.3,19.8,113-13.1,196.7c-11.6,29.4-31.7,80.4-84.4,118.1c-56.1,40.1-115.1,40.8-148.1,41.3
		c-2.1,0-4.4,0-6.9,0c-31.1,0-94.6-3.1-156.2-45c-11.4-7.8-49-34.7-78.7-84.4c-16.5-27.5-25.2-53.1-30-71.3h-155.7v-136.3h-118
		v141.9H748.1v795h-375c0-69.9-0.4-339.2,0-339.4c0,0,0-307.5,0-461.3H101.3V114.4c427.5-0.5,855-1,1282.5-1.5
		C1512.6,112.7,1641.4,112.6,1770.1,112.5 M1779.8,100.5l-9.8,0l-0.3,0c-126.5,0.1-257.3,0.2-386,0.4l-1282.5,1.5l-12,0v12v1342.3
		v12h12h259.8v448.9c0,0.1,0,0.3,0,0.5c0,0.3,0,0.8,0,1.4c0,1.1,0,2.6,0,4.7c0,3.9,0,9.7-0.1,17.2c0,13.7,0,33,0,59
		c0,47.6,0.1,107.4,0.1,160.2c0,41.4,0.1,77.1,0.1,96.9v12h12h375h12v-12v-783h468.2h12v-12v-129.9h94v124.3v12h12h146.6
		c6.9,23.1,16.5,45,28.8,65.5c20.8,34.8,50,66.1,82.2,88.1c28.1,19.1,59.6,32.6,93.7,40c29,6.4,53.4,7.1,69.2,7.1c2.6,0,5.1,0,7.1,0
		l0,0l0,0l0.5,0c33.4-0.5,95.5-1.4,154.4-43.5c24.1-17.3,44.6-39.3,60.8-65.6c13.6-22,21.8-42.7,27.7-57.8l0-0.1
		c31.3-79.6,24.7-154.7,13.7-203.6l-21.3-101.6c-14-66.3-28.1-133.8-41.8-199l-7.2-34.4l-0.3-1.5l-0.1-0.3l-0.1-0.3
		c-0.1-0.2-0.1-0.4-0.1-0.6c-0.1-0.3-0.1-0.7-0.2-1.2c-0.1-0.6-0.2-1.1-0.3-1.4c0-0.1,0-0.2-0.1-0.3l0-0.2l-0.1-0.3
		c-2.4-11.6-4.9-23.4-7.3-34.8c-2.4-11.4-4.9-23.3-7.3-34.9c-7.6-36.5-15.3-73.1-23-109.7c-7.7-36.6-15.3-73.1-23-109.7
		c-2.1-10.1-4.2-20.1-6.3-30.1c-11.8-56.2-23.6-112.4-35.4-168.7c-3.3-15.7-6.6-31.3-9.8-46.9c-3.3-15.6-6.6-31.3-9.9-46.9l0-0.1
		l0-0.1c-0.4-1.8-0.8-3.6-1.2-5.5c-9.1-43.4-18.2-86.9-27.3-130.3c-9.1-43.4-18.2-86.8-27.3-130.3L1779.8,100.5L1779.8,100.5z"/>
</g>
<rect id="_x30_18aula1coperativi" x="99.4" y="112.5" style="fill:#C7C7C9;" width="283.1" height="406.9"/>
<rect id="_x30_20bagno" x="99.4" y="525" style="fill:#C7C7C9;" width="148.1" height="129.4"/>
<rect id="_x30_25bagno" x="99.4" y="660" style="fill:#C7C7C9;" width="148.1" height="129.4"/>
<rect id="_x30_19loctec" x="253.1" y="525" style="fill:#C7C7C9;" width="131.3" height="93.8"/>
<rect id="_x30_30serv" x="253.1" y="695.6" style="fill:#C7C7C9;" width="69.4" height="93.8"/>
<rect id="_x30_31serv" x="328.1" y="695.6" style="fill:#C7C7C9;" width="56.3" height="93.8"/>
<rect id="_x30_32verscala" x="189.4" y="795" style="fill:#C7C7C9;" width="142.5" height="82.5"/>
<rect id="_x30_34bagno_1_" x="99.4" y="883.1" style="fill:#C7C7C9;" width="136.9" height="103.1"/>
<rect id="_x30_37bagno_1_" x="99.4" y="991.9" style="fill:#C7C7C9;" width="180" height="48.8"/>
<rect id="_x30_33loctec" x="285" y="973.1" style="fill:#C7C7C9;" width="99.4" height="67.5"/>
<rect id="_x30_39asula1boperativi" x="99.4" y="1046.3" style="fill:#C7C7C9;" width="285" height="412.5"/>
<polygon id="_x30_08operativiaula" style="fill:#C7C7C9;" points="750,2103.8 750,2259.4 371.3,2259.4 371.3,1464.4 491.3,1464.4 
	491.3,2103.8 "/>
<rect id="_x30_42aula1aoperativi" x="751.9" y="1098.8" style="fill:#C7C7C9;" width="240" height="365.6"/>
<rect id="_x30_43aula1loperativi" x="997.5" y="1098.8" style="fill:#C7C7C9;" width="232.5" height="365.6"/>
<polygon id="_x30_06aula1i" style="fill:#C7C7C9;" points="1703,1251.6 1466.3,1290.1 1424.7,1079.5 1568.8,1047.9 1661.4,1027.6 
	1700.9,1240.6 1701.2,1241.9 1702.8,1250.8 1702.9,1250.8 "/>
<path id="_x30_09aula1h" style="fill:#C7C7C9;" d="M1998.1,1199.7l-153.4,27.5l-41.2-229.6l145.6-31.5
	C1965.4,1044,1981.8,1121.9,1998.1,1199.7z"/>
<path id="_x30_07aula1g" style="fill:#C7C7C9;" d="M2006.3,1498.1c-11.6,29.4-31.7,80.4-84.4,118.1
	c-56.1,40.1-115.1,40.8-148.1,41.3c-27.7,0.3-96.5,0.3-163.1-45c-11.4-7.8-49-34.7-78.7-84.4c-16.5-27.5-25.2-53.1-30-71.3h-2.8
	l-31.8-160.8l532.6-86.7c6.4,30.6,12.9,61.3,19.3,91.9C2027.6,1337.7,2039.2,1414.4,2006.3,1498.1z"/>
<path id="_x30_10servripostiglio_1_" style="fill:#C7C7C9;" d="M1948.3,958.6l-189.5,40.6V886.9h174.5
	C1938.3,910.8,1943.3,934.7,1948.3,958.6z"/>
<path id="_x30_11servterrazzo" style="fill:#C7C7C9;" d="M1932.3,881.3h-121V682.5h79.3C1904.5,748.8,1918.4,815,1932.3,881.3z"/>
<path id="_x30_14aula1e" style="fill:#C7C7C9;" d="M1824.8,373.1h-441V112.9c128.8-0.2,257.6-0.3,386.3-0.4
	C1788.3,199.4,1806.5,286.2,1824.8,373.1z"/>
<path id="_x30_13aula1f" style="fill:#C7C7C9;" d="M1881,641.2h-497.2V378.7H1826c6.6,31.3,13.1,62.5,19.7,93.8
	C1857.4,528.8,1869.2,585,1881,641.2z"/>
<rect id="_x30_16aula1doperativi" x="517.5" y="112.5" style="fill:#C7C7C9;" width="703.2" height="361.9"/>
<rect id="_x30_03ascensore" x="540" y="716.3" style="fill:#C7C7C9;" width="67.5" height="67.5"/>
<rect id="_x30_04ascensore" x="540" y="789.4" style="fill:#C7C7C9;" width="67.5" height="67.5"/>
<rect id="_x30_02vertscala" x="500.6" y="915" style="fill:#C7C7C9;" width="765" height="67.5"/>
<rect id="_x30_01vertscala" x="500.6" y="590.6" style="fill:#C7C7C9;" width="765" height="67.5"/>
<rect x="1546.9" y="1276.9" transform="matrix(0.9862 -0.1657 0.1657 0.9862 -190.6243 274.4752)" style="fill:#C7C7C9;" width="5.6" height="5.6"/>
<rect x="1987.2" y="1205.2" transform="matrix(0.9862 -0.1657 0.1657 0.9862 -172.6543 346.4413)" style="fill:#C7C7C9;" width="5.6" height="5.6"/>
<rect id="_x30_41vertscala" x="485.2" y="1267.4" style="fill:#C7C7C9;" width="63.6" height="89.1"/>
</svg>
