<?xml version="1.0" encoding="utf-8"?>
<!-- Generator: Adobe Illustrator 22.1.0, SVG Export Plug-In . SVG Version: 6.00 Build 0)  -->
<svg version="1.1" id="Livello_1" xmlns="http://www.w3.org/2000/svg" xmlns:xlink="http://www.w3.org/1999/xlink" x="0px" y="0px"
	 viewBox="0 0 2133.8 2358.8" style="enable-background:new 0 0 2133.8 2358.8;" xml:space="preserve">
<g>
	<path style="fill:#D7D7DC;" d="M367.1,2263.4v-6c0-19.8,0-55.7-0.1-96.9c0-52.1-0.1-112.6-0.1-160.2c0-23.8,0-44.4,0-59
		c0-7.3,0-13.1,0.1-17.1c0-2,0-3.6,0-4.6c0-0.5,0-1,0.1-1.5h0v-455.3H95.3V108.4l6,0c277.8-0.3,555.5-0.6,833.2-0.9
		c278.5-0.3,557-0.7,835.6-1l4.9,0l1,4.8c12.6,60.2,25.2,120.3,37.9,180.5c12.5,59.8,25.1,119.7,37.6,179.5
		c6.8,32.5,13.6,65,20.4,97.5c7.1,33.8,14.2,67.5,21.3,101.3c7.6,36.5,15.3,73,23,109.5c7.7,36.6,15.4,73.3,23,109.9l15,71.6
		c0.1,0.5,0.2,0.9,0.3,1.3c0.1,0.3,0.1,0.6,0.2,0.9l0.1,0.2c11.8,56.1,23.5,112.3,35.3,168.5c11.8,56.1,23.5,112.2,35.3,168.2
		c10.9,48.1,17.4,121.9-13.4,200.1c-12.1,30.7-32.4,82.1-86.5,120.8c-57.4,41-118.3,41.9-151,42.4l-0.5,0c-2.1,0-4.5,0-7,0
		c-61.8,0-114-15.1-159.5-46.1c-31.5-21.6-60.1-52.2-80.5-86.3c-12.8-21.3-22.6-44.2-29.4-68.4h-157.1v-136.3h-106v141.9H754.1v795
		H367.1z"/>
	<path style="fill:#9E9D9C;" d="M1770.1,112.5c25.2,120,50.3,240,75.5,360c13.9,66.3,27.8,132.5,41.7,198.8
		c15.3,73.1,30.7,146.3,46,219.4c5,23.9,10,47.8,15,71.7c0.2,0.8,0.3,1.5,0.5,2.3c23.5,112.2,47.1,224.5,70.6,336.7
		c8.2,36.3,19.8,113-13.1,196.7c-11.6,29.4-31.7,80.4-84.4,118.1c-56.1,40.1-115.1,40.8-148.1,41.3c-2.1,0-4.4,0-6.9,0
		c-31.1,0-94.6-3.1-156.2-45c-11.4-7.8-49-34.7-78.7-84.4c-16.5-27.5-25.2-53.1-30-71.3h-155.7v-136.3h-118v141.9H748.1v795h-375
		c0-69.9-0.4-339.2,0-339.4c0,0,0-307.5,0-461.3H101.3V114.4C657.6,113.8,1213.8,113.1,1770.1,112.5 M1779.8,100.5l-9.8,0
		c-278.2,0.3-560.9,0.6-834.4,0.9c-273.5,0.3-556.2,0.6-834.4,0.9l-12,0v12v1342.3v12h12h259.8v448.9c0,0.1,0,0.3,0,0.5
		c0,0.3,0,0.8,0,1.4c0,1.1,0,2.6,0,4.7c0,3.9,0,9.7-0.1,17.2c0,13.7,0,33,0,59c0,47.6,0.1,107.4,0.1,160.2c0,41.4,0.1,77.1,0.1,96.9
		v12h12h375h12v-12v-783h468.2h12v-12v-129.9h94v124.3v12h12h146.6c6.9,23.1,16.5,45,28.8,65.5c20.8,34.8,50,66.1,82.2,88.1
		c28.1,19.1,59.6,32.6,93.7,40c29,6.4,53.4,7.1,69.2,7.1c2.6,0,5.1,0,7.1,0l0,0l0,0l0.5,0c33.4-0.5,95.5-1.4,154.4-43.5
		c24.1-17.3,44.6-39.3,60.8-65.6c13.6-22,21.8-42.7,27.7-57.8l0-0.1c31.3-79.6,24.7-154.7,13.7-203.7
		c-11.7-56.1-23.5-112.2-35.3-168.3c-11.8-56.1-23.5-112.2-35.3-168.3l0-0.2l-0.1-0.2c-0.1-0.2-0.1-0.4-0.1-0.6
		c-0.1-0.4-0.2-0.9-0.3-1.5l-15-71.5c-7.7-36.6-15.3-73.1-23-109.7c-7.7-36.6-15.3-73.1-23-109.7c-7-33.2-13.9-66.3-20.9-99.4
		c-7-33.1-13.9-66.2-20.8-99.4c-12.6-60-25.4-121-37.8-180c-12.4-59-25.2-120-37.8-180L1779.8,100.5L1779.8,100.5z"/>
</g>
<rect id="_x30_119aulafoperativi" x="99.4" y="112.5" style="fill:#C7C7C9;" width="283.1" height="406.9"/>
<rect id="_x30_21bagno" x="99.4" y="525" style="fill:#C7C7C9;" width="148.1" height="129.4"/>
<rect id="_x30_26bagno" x="99.4" y="660" style="fill:#C7C7C9;" width="148.1" height="129.4"/>
<rect id="_x30_20loctec" x="253.1" y="525" style="fill:#C7C7C9;" width="131.3" height="93.8"/>
<rect id="_x30_31servwch" x="253.1" y="695.6" style="fill:#C7C7C9;" width="69.4" height="93.8"/>
<rect id="_x30_32servdisimpegnno" x="328.1" y="695.6" style="fill:#C7C7C9;" width="56.3" height="93.8"/>
<rect id="_x30_33vertscala" x="189.4" y="830.6" style="fill:#C7C7C9;" width="142.5" height="46.9"/>
<rect id="_x30_34bagno" x="99.4" y="883.1" style="fill:#C7C7C9;" width="136.9" height="103.1"/>
<rect id="_x30_37bagno" x="99.4" y="991.9" style="fill:#C7C7C9;" width="180" height="48.8"/>
<rect id="_x30_39loctec" x="285" y="973.1" style="fill:#C7C7C9;" width="99.4" height="67.5"/>
<rect id="_x30_40aulaeoperativi" x="99.4" y="1046.3" style="fill:#C7C7C9;" width="285" height="412.5"/>
<rect id="_x30_53esternicortile" x="371.3" y="1464.4" style="fill:#C7C7C9;" width="120" height="412.5"/>
<rect id="_x30_43bagno" x="371.3" y="2030.6" style="fill:#C7C7C9;" width="120" height="228.8"/>
<rect id="_x30_44supportoportineria" x="496.9" y="2103.8" style="fill:#C7C7C9;" width="144.4" height="155.6"/>
<rect id="_x30_47supportocopie" x="646.9" y="2103.8" style="fill:#C7C7C9;" width="103.1" height="155.6"/>
<rect id="_x30_07aulaaoperativi" x="751.9" y="1098.8" style="fill:#C7C7C9;" width="478.1" height="365.6"/>
<rect id="_x30_06supportogenerico" x="1235.6" y="1171.9" style="fill:#C7C7C9;" width="103.1" height="150"/>
<path id="_x30_05aulamagna" style="fill:#C7C7C9;" d="M2006.3,1498.1c-11.6,29.4-31.7,80.4-84.4,118.1
	c-56.1,40.1-115.1,40.8-148.1,41.3c-27.7,0.3-96.5,0.3-163.1-45c-11.4-7.8-49-34.7-78.7-84.4c-16.5-27.5-25.2-53.1-30-71.3h-2.8
	l-74.5-377.3l144.1-31.6l192.1-42.2l5.5-1.2l182.3-40c23.5,112.2,47.1,224.5,70.6,336.7C2027.6,1337.7,2039.2,1414.4,2006.3,1498.1z
	"/>
<path id="_x30_04supportogenerico" style="fill:#C7C7C9;" d="M1948.3,958.6l-189.5,40.6V886.9h174.5
	C1938.3,910.8,1943.3,934.7,1948.3,958.6z"/>
<polygon id="_x30_03servdisimpegno" style="fill:#C7C7C9;" points="1753.1,887 1753.1,1000.5 1558.1,1042.3 1558.1,887 "/>
<path id="_x30_09operativideposito" style="fill:#C7C7C9;" d="M1887.2,671.3h-121V472.5h79.3C1859.4,538.8,1873.3,605,1887.2,671.3z
	"/>
<rect id="_x30_10servripostiglio" x="1631.3" y="575.6" style="fill:#C7C7C9;" width="129.4" height="95.6"/>
<rect id="_x30_12servripostiglio" x="1316.3" y="575.6" style="fill:#C7C7C9;" width="129.4" height="95.6"/>
<rect id="_x30_11auladoperativi" x="1316.3" y="110.6" style="fill:#C7C7C9;" width="444.4" height="459.4"/>
<rect id="_x30_15aulaboperativi" x="491.3" y="112.5" style="fill:#C7C7C9;" width="459.4" height="361.9"/>
<rect id="_x30_14aulacoperativi" x="956.3" y="112.5" style="fill:#C7C7C9;" width="264.4" height="361.9"/>
<rect id="_x30_17vertascensore" x="540" y="716.3" style="fill:#C7C7C9;" width="67.5" height="67.5"/>
<rect id="_x30_18vertascensore" x="540" y="789.4" style="fill:#C7C7C9;" width="67.5" height="67.5"/>
<rect id="_x30_41vertscala" x="485.2" y="1267.4" style="fill:#C7C7C9;" width="63.6" height="89.1"/>
<path style="fill:#C7C7C9;" d="M1018.1,1798.2h234.4v-39.4h483.7"/>
<polyline id="Laboratori_Ue5_0_Lab18" style="fill:#C7C7C9;" points="1024.7,1803.3 1258.9,1803.3 1258.9,1764.9 1463,1764.9 "/>
</svg>
