<?xml version="1.0" encoding="utf-8"?>
<!-- Generator: Adobe Illustrator 22.1.0, SVG Export Plug-In . SVG Version: 6.00 Build 0)  -->
<svg version="1.1" id="Livello_2_1_" xmlns="http://www.w3.org/2000/svg" xmlns:xlink="http://www.w3.org/1999/xlink" x="0px"
	 y="0px" viewBox="0 0 2133.8 2358.8" style="enable-background:new 0 0 2133.8 2358.8;" xml:space="preserve">
<g>
	<path style="fill:#D7D7DC;" d="M368.9,2263.4v-6c0-19.8,0-55.7-0.1-96.9c0-52.1-0.1-112.6-0.1-160.2c0-23.8,0-44.4,0-59
		c0-7.3,0-13.1,0.1-17.1c0-2,0-3.6,0-4.6c0-0.5,0-1,0.1-1.5h0v-455.3H97.1V108.4l1288.5-1.5c128.3-0.2,258.8-0.3,384.9-0.4l6.2,0
		l1,4.8c7.8,36.8,15.6,74.2,23.1,110.4l5.5,26.3h-1.8c4.6,21.9,9.2,43.9,13.8,65.8c4.1,19.4,8.1,38.8,12.2,58.2
		c0.4,1.9,0.8,3.8,1.2,5.5c3.3,15.9,6.6,31.6,10,47.4c3.2,15.5,6.5,31,9.8,46.5c11.8,56.3,23.6,112.5,35.4,168.7l0.3,1.5
		c2,9.5,4,19,6,28.7c7.6,36.5,15.3,73.1,23,109.7c7.7,36.6,15.4,73.2,23,109.7l6.3,30c1.4,6.7,2.8,13.3,4.2,19.9
		c1.4,6.6,2.7,13.2,4.1,19.9l0,0.2l0,0.2c0,0.2,0.1,0.3,0.1,0.5c0.1,0.4,0.2,0.8,0.2,1.2c0.1,0.4,0.2,0.8,0.2,1.2
		c0.1,0.3,0.1,0.6,0.2,0.9l0,0.1l0.3,1.7l2.7,12.5c7.7,36.6,15.4,73.3,23,109.9c7.8,37,15.5,74,23.3,111l21.3,101.7
		c10.9,48,17.4,121.7-13.4,200c-12.1,30.7-32.4,82.1-86.5,120.8c-57.4,41-118.3,41.9-151,42.4l-0.5,0c-2,0-4.2,0-6.6,0
		c-15.3,0-60.1,0-109.5-19.5v28h350.6v182.7H755.9v408.6H368.9z"/>
	<path style="fill:#9E9D9C;" d="M1771.9,112.5c9.1,43.1,18.1,86.3,27.1,129.4h-1.8c9.2,43.7,18.3,87.4,27.5,131.2
		c0.4,1.9,0.8,3.8,1.2,5.6c6.6,31.3,13.1,62.5,19.7,93.8c11.8,56.3,23.6,112.5,35.4,168.7c2.1,10,4.2,20,6.3,30.1
		c15.3,73.1,30.7,146.3,46,219.4c2.1,10,4.2,20,6.3,30c2.8,13.3,5.5,26.5,8.3,39.8c0.1,0.7,0.3,1.3,0.4,2c0.2,0.8,0.3,1.5,0.5,2.3
		c0.1,0.5,0.2,1,0.3,1.5c0.9,4.2,1.8,8.4,2.7,12.6c15.4,73.6,30.9,147.3,46.3,220.9c7.1,33.9,14.2,67.8,21.3,101.7
		c8.2,36.2,19.8,112.9-13.1,196.6c-11.6,29.4-31.7,80.4-84.4,118.1c-56.1,40.1-115.1,40.8-148.1,41.3c-2,0-4.1,0-6.5,0
		c-24.1,0-68-1.8-115.5-22.4v-0.8c-13-5.7-26.2-12.9-39.3-21.8c-11.4-7.8-49-34.7-78.7-84.4c-16.5-27.5-25.2-53.1-30-71.3h-1.8
		c4.8,18.2,13.5,43.8,30,71.3c29.7,49.7,67.3,76.6,78.7,84.4c13.1,8.9,26.3,16,39.3,21.8c0.6,0.3,1.2,0.5,1.8,0.8v43h350.6v170.7
		H749.9v408.6h-375c0-69.9-0.4-339.2,0-339.4c0,0,0-307.5,0-461.3H103.1V114.4l1282.5-1.5C1514.4,112.7,1643.2,112.6,1771.9,112.5
		 M1723.1,920.7h1.8V241.9h-1.8V920.7 M1500,1456.8h1.8V920.7h-1.8V1456.8 M1781.6,100.5l-9.7,0l-0.3,0
		c-126.5,0.1-257.3,0.2-386,0.4l-1282.5,1.5l-12,0v12v1342.3v12h12h259.8v448.9c0,0.1,0,0.3,0,0.5c0,0.3,0,0.8,0,1.4
		c0,1.1,0,2.6,0,4.7c0,3.9,0,9.7-0.1,17.2c0,13.7,0,33,0,59c0,47.6,0.1,107.4,0.1,160.2c0,41.4,0.1,77.1,0.1,96.9v12h12h375h12v-12
		v-396.6h1240.5h12v-12v-170.7v-12h-12h-176.3c30.8-4.4,67.4-14.8,102.8-40.1c24.1-17.3,44.6-39.3,60.8-65.6
		c13.6-22,21.8-42.7,27.7-57.8l0-0.1c31.3-79.7,24.7-154.7,13.7-203.6l-7.1-33.8l-14.2-67.8c-7.7-36.8-15.4-73.6-23.2-110.5
		c-7.7-36.8-15.4-73.6-23.1-110.4l0,0l0,0l-2.7-12.5l-0.3-1.4l-0.1-0.3l-0.1-0.3c-0.1-0.2-0.1-0.4-0.1-0.6c-0.1-0.3-0.1-0.7-0.2-1.2
		c-0.1-0.5-0.2-1-0.3-1.3l0-0.2l0-0.2l-0.1-0.4c-1.4-6.6-2.8-13.3-4.1-19.9c-1.4-6.6-2.8-13.3-4.2-19.9l-6.3-30
		c-7.6-36.5-15.3-73.1-23-109.7c-7.7-36.6-15.3-73.1-23-109.7c-2.1-10.1-4.2-20.1-6.3-30.1c-11.8-56.2-23.6-112.4-35.4-168.7
		c-3.3-15.6-6.6-31.2-9.8-46.8c-3.3-15.7-6.6-31.3-9.9-47l0-0.1l0-0.1c-0.4-1.8-0.8-3.6-1.2-5.5c-4.1-19.3-8.1-38.7-12.1-58
		c-4-19.3-8.2-39.1-12.3-58.8h1.8l-3-14.5l-4-19c-7.6-36.2-15.4-73.6-23.1-110.4L1781.6,100.5L1781.6,100.5z M1663.8,1666.1v-13.4
		c19.4,6.9,37.8,11,53.8,13.4H1663.8L1663.8,1666.1z"/>
</g>
<rect x="1500" y="920.7" style="fill:#C7C7C9;" width="1.8" height="536.1"/>
<path style="fill:#C7C7C9;" d="M1612.5,1612.5c13.1,8.9,26.3,16.1,39.3,21.8v0.8c-0.6-0.3-1.2-0.5-1.8-0.8
	c-13-5.8-26.2-12.9-39.3-21.8c-11.4-7.8-49-34.7-78.7-84.4c-16.5-27.5-25.2-53.1-30-71.3h1.8c4.8,18.2,13.5,43.8,30,71.3
	C1563.5,1577.8,1601.1,1604.7,1612.5,1612.5z"/>
<rect x="1723.1" y="241.9" style="fill:#C7C7C9;" width="1.8" height="678.8"/>
<rect x="1500" y="920.7" style="fill:#C7C7C9;" width="1.8" height="536.1"/>
<path style="fill:#C7C7C9;" d="M1612.5,1612.5c13.1,8.9,26.3,16.1,39.3,21.8v0.8c-0.6-0.3-1.2-0.5-1.8-0.8
	c-13-5.8-26.2-12.9-39.3-21.8c-11.4-7.8-49-34.7-78.7-84.4c-16.5-27.5-25.2-53.1-30-71.3h1.8c4.8,18.2,13.5,43.8,30,71.3
	C1563.5,1577.8,1601.1,1604.7,1612.5,1612.5z"/>
<rect x="1723.1" y="241.9" style="fill:#C7C7C9;" width="1.8" height="678.8"/>
<rect id="_x30_67operativi" x="101.3" y="112.6" style="fill:#C7C7C9;" width="403.1" height="373.2"/>
<rect id="_x30_65operativi" x="101.3" y="615.1" style="fill:#C7C7C9;" width="139.9" height="118.1"/>
<rect id="_x30_64operativi" x="101.3" y="491.3" style="fill:#C7C7C9;" width="139.9" height="118.1"/>
<rect id="_x30_66servdisimpegno" x="245.6" y="660.1" style="fill:#C7C7C9;" width="60" height="73.1"/>
<rect id="_x30_60operativi" x="311.3" y="660.1" style="fill:#C7C7C9;" width="58.1" height="73.1"/>
<rect id="_x30_61serv" x="245.6" y="573.8" style="fill:#C7C7C9;" width="174.4" height="80.7"/>
<rect id="_x30_62servdisimpegno" x="425.6" y="491.3" style="fill:#C7C7C9;" width="78.8" height="163.1"/>
<rect id="_x30_63loctec" x="245.6" y="491.3" style="fill:#C7C7C9;" width="174.4" height="76.9"/>
<rect id="_x30_59vertscale" x="215.6" y="738.7" style="fill:#C7C7C9;" width="135" height="93.8"/>
<rect id="_x30_56servdisimpegnoi" x="241.9" y="838.2" style="fill:#C7C7C9;" width="127.5" height="71.3"/>
<rect id="_x30_58operativideposito" x="101.3" y="883.1" style="fill:#C7C7C9;" width="135" height="103.1"/>
<rect id="_x30_57operativideposito" x="241.9" y="915.1" style="fill:#C7C7C9;" width="127.5" height="71.1"/>
<rect id="_x30_52operativideposito" x="101.3" y="991.9" style="fill:#C7C7C9;" width="268.1" height="466.9"/>
<rect id="_x30_03ascensore" x="547.5" y="665.7" style="fill:#C7C7C9;" width="67.5" height="67.5"/>
<rect id="_x30_04ascensore" x="547.5" y="738.8" style="fill:#C7C7C9;" width="67.5" height="67.5"/>
<rect id="_x30_46operativi" x="373.1" y="1944.4" style="fill:#C7C7C9;" width="136.9" height="193.1"/>
<polygon id="_x30_40bagno" style="fill:#C7C7C9;" points="750,1833.8 750,2137.5 515.6,2137.5 515.6,1970.7 586.9,1970.7 
	586.9,2041.9 678.8,2041.9 678.8,1833.8 "/>
<rect id="_x30_28servripostiglio" x="755.6" y="1783.2" style="fill:#C7C7C9;" width="135" height="67.5"/>
<rect id="_x30_26esternicortile" x="755.6" y="1428.8" style="fill:#C7C7C9;" width="211.9" height="249.4"/>
<rect id="_x30_10bagno" x="973.1" y="1428.8" style="fill:#C7C7C9;" width="247.5" height="360"/>
<polygon id="_x30_30bagno" style="fill:#C7C7C9;" points="750,1428.8 750,1779.4 510,1779.4 510,1528.2 585,1528.2 585,1428.8 "/>
<rect id="_x30_50bagno" x="510" y="1428.8" style="fill:#C7C7C9;" width="69.4" height="93.8"/>
<rect id="_x30_51serv" x="510" y="1286.3" style="fill:#C7C7C9;" width="69.4" height="93.8"/>
<rect id="_x30_07loctec" x="1226.3" y="1025.7" style="fill:#C7C7C9;" width="421.9" height="825"/>
<path id="_x30_05operativi" style="fill:#C7C7C9;" d="M1939.6,920.7h-216.5V241.9h74.1c9.2,43.7,18.3,87.4,27.5,131.2
	c0.4,1.9,0.8,3.8,1.2,5.6c6.6,31.3,13.1,62.5,19.7,93.8c11.8,56.3,23.6,112.5,35.4,168.7c2.1,10,4.2,20,6.3,30.1
	c15.3,73.1,30.7,146.3,46,219.4C1935.4,900.7,1937.5,910.7,1939.6,920.7z"/>
<path id="_x30_06loctec" style="fill:#C7C7C9;" d="M2006.3,1498.1c-11.6,29.4-31.7,80.4-84.4,118.1
	c-56.1,40.1-115.1,40.8-148.1,41.3c-27.7,0.3-96.5,0.3-163.1-45c-11.4-7.8-49-34.7-78.7-84.4c-16.5-27.5-25.2-53.1-30-71.3h-2V920.7
	h439.6c2.8,13.3,5.5,26.5,8.3,39.8c0.1,0.7,0.3,1.3,0.4,2c0.2,0.8,0.3,1.5,0.5,2.3c0.1,0.5,0.2,1,0.3,1.5c0.9,4.2,1.8,8.4,2.7,12.6
	c15.4,73.6,30.9,147.3,46.3,220.9c7.1,33.9,14.2,67.8,21.3,101.7C2027.6,1337.7,2039.2,1414.4,2006.3,1498.1z"/>
<rect id="_x30_04servdisimpegno" x="1500" y="825.1" style="fill:#C7C7C9;" width="217.5" height="90"/>
<rect id="_x30_09vertscala" x="1828.1" y="1676.3" style="fill:#C7C7C9;" width="116.3" height="60"/>
<rect id="_x30_08servterrazzo" x="1653.8" y="1676.3" style="fill:#C7C7C9;" width="168.8" height="174.4"/>
</svg>
