<?xml version="1.0" encoding="utf-8"?>
<!-- Generator: Adobe Illustrator 22.1.0, SVG Export Plug-In . SVG Version: 6.00 Build 0)  -->
<svg version="1.1" id="Livello_2_1_" xmlns="http://www.w3.org/2000/svg" xmlns:xlink="http://www.w3.org/1999/xlink" x="0px"
	 y="0px" viewBox="0 0 2133.8 2358.8" style="enable-background:new 0 0 2133.8 2358.8;" xml:space="preserve">
<g>
	<path style="fill:#D7D7DC;" d="M368.9,2263.4v-6c0-19.8,0-55.7-0.1-96.9c0-52.1-0.1-112.6-0.1-160.2c0-23.8,0-44.4,0-59
		c0-7.3,0-13.1,0.1-17.1c0-2,0-3.6,0-4.6c0-0.5,0-1,0.1-1.5h0v-445.8H97.1V108.4l6,0c190.9-0.2,381.8-0.4,572.7-0.7
		c190.4-0.2,380.7-0.4,571.1-0.6c23.1,0,46.2-0.1,69.3-0.1c23.2,0,46.3-0.1,69.4-0.1c129.1-0.2,259.8-0.3,386.3-0.4l4.9,0l1,4.8
		c4.6,21.6,9.1,43.2,13.6,64.8c4.5,21.5,9,43.1,13.6,64.6l1.5,7.2h-1.8c4.1,19.4,8.2,38.9,12.2,58.3c4.6,21.8,9.1,43.7,13.7,65.5
		l0,0.2c0.4,1.8,0.8,3.6,1.1,5.3c5.5,26.4,11,52.7,16.5,78.9c0.4,1.9,0.8,3.8,1.2,5.5c0.4,1.6,0.7,3.2,1,4.7c0.3,1.5,0.6,3,1,4.5
		c11.8,56.4,23.6,112.6,35.4,168.8c0.7,3.5,1.4,6.9,2.1,10.3c0.7,3.5,1.5,6.9,2.2,10.4c0.4,1.6,0.7,3.2,1,4.8c0.3,1.5,0.6,3.1,1,4.6
		c7.6,36.4,15.2,72.7,22.9,109c7.7,36.8,15.5,73.7,23.2,110.5l6.3,30c1.4,6.7,2.8,13.3,4.2,19.9c1.4,6.6,2.7,13.2,4.1,19.9l0,0.2
		l0,0.2c0,0.2,0.1,0.3,0.1,0.5c0.1,0.4,0.2,0.8,0.2,1.2c0.1,0.4,0.2,0.8,0.2,1.1c0.1,0.3,0.1,0.6,0.2,0.9l0,0.1l0.3,1.6l2.7,12.5
		c7.8,37,15.5,74.1,23.3,111.1c7.7,36.6,15.4,73.2,23,109.8l21.3,101.7c10.7,48.3,17.1,122.3-13.5,200.2
		c-12.1,30.7-32.4,82.1-86.5,120.8c-57.4,41-118.3,41.9-151,42.4l-0.5,0c-2,0-4.2,0-6.6,0c-16.1,0-65.2,0-117.9-22.9l-3.6-1.6v-0.9
		c-13.1-6.1-25.1-12.8-36.7-20.7c-31.6-21.6-60.1-52.2-80.5-86.3c-5.1-8.5-9.7-17.1-13.5-25.4c-5.2-11.3-9.6-22.5-13.1-33.5h-748
		v383.6h1.8v407.5H368.9z"/>
	<path style="fill:#9E9D9C;" d="M1771.9,112.5c9.1,43.1,18.1,86.3,27.2,129.4h-1.8c9.2,43.7,18.3,87.4,27.5,131.1
		c0.4,1.9,0.8,3.8,1.2,5.6c5.5,26.3,11,52.6,16.5,78.8c0.4,1.9,0.8,3.8,1.2,5.6c0.7,3.1,1.3,6.2,2,9.3
		c11.8,56.3,23.6,112.5,35.4,168.7c1.4,6.9,2.9,13.8,4.3,20.7c0.7,3.1,1.3,6.3,2,9.4c15.3,73.1,30.7,146.3,46,219.4
		c2.1,10,4.2,20,6.3,30c2.8,13.3,5.5,26.5,8.3,39.8c0.1,0.7,0.3,1.3,0.4,2c0.2,0.8,0.3,1.5,0.5,2.3c0.1,0.5,0.2,1,0.3,1.5
		c0.9,4.2,1.8,8.4,2.7,12.6c15.4,73.6,30.9,147.3,46.3,220.9c7.1,33.9,14.2,67.8,21.3,101.7c8.1,36.4,19.7,113.1-13.2,196.8
		c-11.6,29.4-31.7,80.4-84.4,118.1c-56.1,40.1-115.1,40.8-148.1,41.3c-2,0-4.1,0-6.5,0c-24.1,0-68-1.8-115.5-22.4v-0.8
		c-13-5.8-26.2-12.9-39.3-21.8c-11.4-7.8-49-34.7-78.7-84.4c-5.1-8.5-9.5-16.8-13.2-24.8c-6.3-13.6-10.9-26.2-14.1-37
		c-1-3.3-1.9-6.5-2.7-9.4h-1.8c0,0,0,0,0-0.1h-0.2v0.1h0.2c0.8,3,1.7,6.1,2.7,9.4H748.1v395.6h1.8v395.5h-375
		c0-69.9-0.4-339.2,0-339.4c0,0,0-295.1,0-451.8H103.1v-58.1V114.4c381.3-0.4,762.5-0.9,1143.8-1.3c46.2-0.1,92.5-0.1,138.7-0.2
		C1514.4,112.7,1643.2,112.6,1771.9,112.5 M1781.6,100.5l-9.7,0l-0.3,0c-126.5,0.1-257.3,0.2-386,0.4c-23.1,0.1-46.6,0.1-69.3,0.1
		c-22.7,0-46.3,0.1-69.4,0.1c-190.6,0.2-384.5,0.4-571.9,0.7c-187.4,0.2-381.2,0.4-571.9,0.6l-12,0v12v1293.7v58.1v12h12h259.8
		v439.4c0,0.1,0,0.3,0,0.5c0,0.3,0,0.8,0,1.4c0,1.1,0,2.6,0,4.7c0,3.9,0,9.7-0.1,17.2c0,13.7,0,33,0,59c0,47.6,0.1,107.4,0.1,160.2
		c0,41.4,0.1,77.1,0.1,96.9v12h12h375h12v-12v-395.5v-12h-1.8v-371.6h737.6c3.3,9.9,7.3,20,12,30c3.9,8.5,8.6,17.2,13.8,25.9
		c20.8,34.8,50,66.1,82.2,88.1c10.8,7.4,22,13.8,34.1,19.6v1l7.2,3.1c53.8,23.4,103.8,23.4,120.3,23.4c2.4,0,4.6,0,6.6,0l0,0l0,0
		l0.5,0c33.4-0.5,95.5-1.4,154.4-43.5c24.1-17.3,44.6-39.3,60.8-65.6c13.6-22,21.8-42.7,27.7-57.8l0-0.1
		c31.2-79.3,24.7-154.5,13.8-203.7l-21.3-101.6c-7.7-36.8-15.4-73.6-23.2-110.5c-7.7-36.8-15.4-73.6-23.1-110.4l0,0l0,0l-2.7-12.5
		l-0.2-0.9l-0.1-0.5l-0.1-0.3l-0.1-0.3c-0.1-0.2-0.1-0.4-0.1-0.6c-0.1-0.3-0.1-0.7-0.2-1.2c-0.1-0.5-0.2-1-0.3-1.3l0-0.2l0-0.2
		l-0.1-0.4c-1.4-6.6-2.8-13.3-4.1-19.9c-1.4-6.6-2.8-13.3-4.2-19.9l-6.3-30c-7.6-36.5-15.3-73.1-23-109.7
		c-7.7-36.6-15.3-73.1-23-109.7l0-0.1l0-0.1c-0.3-1.4-0.6-2.9-1-4.5c-0.3-1.6-0.7-3.2-1-4.8c-0.7-3.4-1.4-6.9-2.1-10.3
		c-0.7-3.4-1.4-6.9-2.1-10.3l0,0l0,0c-11.8-56.2-23.6-112.4-35.4-168.7l0-0.1l0-0.1c-0.3-1.5-0.6-2.9-1-4.5c-0.3-1.6-0.7-3.2-1-4.8
		c-0.4-1.7-0.8-3.6-1.2-5.4c-5.5-26.2-11-52.5-16.5-78.8l0-0.1l0-0.1c-0.4-1.8-0.8-3.6-1.2-5.5c-4.6-21.8-9.2-44.1-13.7-65.5
		c-3.5-16.8-7.1-34-10.7-51.1h1.8l-3.1-14.5c-4.5-21.5-9.1-43.4-13.6-64.6c-4.5-21.2-9.1-43.2-13.6-64.8L1781.6,100.5L1781.6,100.5z
		"/>
</g>
<polygon id="_x30_03loctec" style="fill:#C7C7C9;" points="1235.6,1113.8 1235.6,1468.2 101.3,1468.2 101.3,1025.7 375,1025.7 
	375,1113.8 "/>
<polygon id="_x30_04loctec" style="fill:#C7C7C9;" points="1235.6,466.9 1235.6,112.6 101.3,112.6 101.3,555 375,555 375,466.9 "/>
<rect id="_x30_01vertscala" x="211.9" y="748.2" style="fill:#C7C7C9;" width="120" height="93.8"/>
</svg>
