<?xml version="1.0" encoding="utf-8"?>
<!-- Generator: Adobe Illustrator 22.1.0, SVG Export Plug-In . SVG Version: 6.00 Build 0)  -->
<svg version="1.1" id="Ue4p3" xmlns="http://www.w3.org/2000/svg" xmlns:xlink="http://www.w3.org/1999/xlink" x="0px" y="0px"
	 viewBox="0 0 1657 910.2" style="enable-background:new 0 0 1657 910.2;" xml:space="preserve">
<g>
	<path style="fill:#D7D7DC;" d="M734.7,872.7l-34.6-91.2H585.6l22.9,91.2H237.7v-39.8l-0.1-40.8L48.8,603.2
		c-6.3-6.2-12.6-12.6-18.8-18.7c-3.1-3.1-6.2-6.2-9.3-9.4l-3.4-3.4l2.6-4.1c3.9-6.1,8.1-12.4,12.5-18.9c4.2-6.2,8.2-11.8,11.8-17
		c0.7-1,1.3-1.9,1.9-2.6c3.5-4.9,6.7-9.3,9.4-12.9l0.6-0.8c0.2-0.3,0.6-0.8,1.2-1.6c2.4-3.2,7.4-9.8,13.8-18
		c0.5-0.7,1.1-1.5,1.7-2.3c3.1-4.1,6.6-8.5,10.4-13.1c1.2-1.5,2.4-2.9,3.5-4.3c3.4-4.1,4.5-5.5,5.1-6.1c4-4.7,7.3-8.6,10.2-11.9
		l1.9-2.2l0.2-0.2l0,0c0.2-0.2,0.4-0.5,0.6-0.7c5.4-6.1,10.1-11.4,14.5-16.2c4.5-4.8,9.7-10.3,15.6-16.5l0.2-0.2l0.2-0.2
		c0.2-0.2,0.5-0.5,0.9-0.9c0.3-0.3,0.5-0.5,0.8-0.8l2.1-2.1c0.1-0.1,16.2-16.7,34.6-33.8c0.6-0.6,1.4-1.4,2.2-2.1
		c1.5-1.4,3-2.8,4.6-4.2c1.6-1.4,3.1-2.9,4.7-4.3c5.8-5.2,12.3-10.8,12.4-10.9c2.9-2.6,5.1-4.4,7.8-6.7c1.8-1.5,3.1-2.6,4.4-3.6
		c0.6-0.5,1.2-1,1.8-1.4l0.2-0.1l0.2-0.1c0.7-0.5,1.3-1,1.8-1.4l0.1-0.1l0.2-0.1c1.4-1.1,3-2.4,5.4-4.3c4.8-3.9,6.2-5.1,10.3-8.6
		c0.1-0.1,2.8-2.4,6.7-5.6c1.1-0.9,3.6-3,12.4-9.9c8.7-6.8,15.4-11.9,18.6-14.3c0.1-0.1,3.3-2.6,6.4-4.9l8.3-6.1l0.2-0.1
		c0.3-0.2,0.5-0.4,0.8-0.5c0.4-0.3,0.8-0.6,1.3-0.9c37.1-27,75.9-50.5,95.8-62.1c0.6-0.4,1.2-0.7,1.7-1c0.3-0.2,0.5-0.3,0.8-0.5
		l0.1-0.1c5.7-3.4,9.1-5.2,9.2-5.3c8.7-4.8,16.3-8.9,20.8-11.3c12.2-6.4,24.6-12.6,38-18.9c7.1-3.4,14.5-6.8,22.3-10.3l-27.2-69.2
		l-0.1-0.2l-32.2-81.8h1136.2v614.9h56.4l7.2,82.7l0.5,5.7l0.9,10.9l2.5,28.4v0.2l0.6,6.3l7.9,90.2H734.7z M684.3,739.3L664.5,687
		l-14.8-38.9h768.8V345.9c-34.4,0.1-69.2,0.1-103,0.1h-6v-95.7H609.1v97.5l-3.8,1.5c-0.6,0.2-1.2,0.5-1.9,0.7
		c-0.4,0.1-0.8,0.3-1.2,0.4l-0.2,0.1l-1.1,0.4c-11.2,3.9-21.5,7.7-31.4,11.7c-8.8,3.5-15.9,6.5-22.3,9.3l-5.7,2.5l-2.3-5.8
		c-5.7-14.3-11.4-28.8-16.8-43c-0.2-0.3-0.3-0.6-0.4-0.9l0-0.1l-0.1-0.1l-0.1-0.2c-1.4-3.4-2.7-6.7-4.1-10
		c-2.3-5.6-4.6-11.2-6.9-16.7c-0.7-1.6-1.3-3.2-2-4.9c-6.9,7-13.8,14-20.7,21c-7.8,7.9-15.6,15.8-23.4,23.8l-0.1,0.1l-0.1,0.1
		c-0.6,0.5-1.2,1.2-1.8,1.8c-0.4,0.4-0.7,0.7-1.1,1.1L415,387.9c-1.1,1.2-2.1,2.2-3.1,3.2L368,435.6l-3.1,3.1
		c-8,8.2-16.1,16.3-24.2,24.5c-8,8.1-16.1,16.3-24.1,24.5c-1.1,1.2-2.1,2.2-3.1,3.2c-10.8,10.9-21.7,22-32.3,32.7
		c-5.3,5.4-10.7,10.8-16,16.3c-1.1,1.2-2.1,2.2-3.1,3.2c-10.6,10.7-21.2,21.5-31.9,32.3c-9.2,9.4-18.5,18.7-27.7,28.1l39.1,39.1
		l5.6,5.5h305.2l20,79.9l2,8.2l0.8,3H684.3z"/>
	<path style="fill:#9E9D9C;" d="M1543.6,39.3v614.9h56.9l6.7,77.2l0.5,5.7l0.9,10.9l2.5,28.2v0.2l0.6,6.6l7.3,83.7H738.8l-31.6-83.4
		l-2.5-6.6l-0.2-0.5l-0.3-0.7H577.9l0.2,0.9l0.1,0.3l1.7,6.6l20.9,83.4H243.7v-33.8l-0.1-43.3L53,599c-9.4-9.3-18.7-18.7-28.1-28.1
		c3.2-5,7.4-11.4,12.4-18.7c4.2-6.2,8.2-11.9,11.8-17c0.6-0.9,1.2-1.7,1.8-2.5c3.7-5.2,7.1-9.8,9.9-13.6c1-1.3,7-9.3,15.1-19.7
		c0.5-0.7,1-1.4,1.6-2.1c3.2-4.2,6.7-8.6,10.4-13.1c4.1-5,7.9-9.7,8.4-10.2c3.8-4.5,7.2-8.5,10.2-11.9c0.6-0.7,1.2-1.4,1.8-2.1
		c0.3-0.3,0.5-0.6,0.8-0.9c5.6-6.4,10.5-11.8,14.5-16.2c4.5-4.8,9.7-10.3,15.5-16.4c0.7-0.6,1.3-1.3,2-2c0.7-0.7,1.4-1.4,2.1-2.1
		c0,0,16-16.5,34.5-33.7c0.6-0.6,1.3-1.3,2-1.9c3.1-2.8,6.2-5.7,9.3-8.5c5.8-5.2,12.3-10.8,12.3-10.8c3.1-2.7,5.2-4.5,7.8-6.7
		c2.6-2.2,4.4-3.6,6.1-5c0.7-0.5,1.5-1.1,2.2-1.7c1.6-1.2,3.3-2.6,5.6-4.5c4.8-3.9,6.2-5.1,10.4-8.7c0,0,2.7-2.3,6.6-5.5
		c1.3-1.1,3.8-3.2,12.3-9.8c8.7-6.8,15.3-11.8,18.6-14.3c0,0,3.3-2.6,6.3-4.8c2.7-2,5.4-4,8.1-6c0.8-0.5,1.5-1.1,2.3-1.6
		c37.8-27.5,76.8-51,95.6-62c0.9-0.6,1.7-1,2.5-1.5c5.7-3.4,9-5.2,9-5.2c8.9-4.9,16.3-8.9,20.7-11.2c13.4-7,26-13.2,37.8-18.8
		c9.8-4.7,18.9-8.8,27.4-12.5l-29.4-74.8l-0.1-0.2l-1.1-2.8l-27.8-70.6H1543.6 M544.9,366.3c-5.7-14.3-11.3-28.7-16.9-43.1
		c-0.2-0.4-0.3-0.8-0.5-1.2c-3.7-9-7.3-17.9-11-26.8c-1.8-4.4-3.6-8.9-5.4-13.3c-1.2,1.3-2.4,2.5-3.6,3.7
		c-15.6,15.9-31.3,31.7-46.9,47.6c-1.1,1-2.1,2.1-3.1,3.1c-15.6,15.8-31.3,31.7-46.9,47.5c-1,1.1-2,2.1-3,3.1
		c-14.6,14.8-29.3,29.7-43.9,44.5c-1,1-2.1,2.1-3.1,3.1c-16.1,16.4-32.3,32.7-48.4,49.1c-1,1.1-2,2.1-3,3.1
		c-16.2,16.3-32.3,32.7-48.5,49.1c-1,1.1-2,2.1-3,3.1c-21.3,21.5-42.5,43.1-63.8,64.6l43.3,43.3l7.4,7.3h303l17.8,71l1.1,4.4l2,8.2
		l1.9,7.6H693l-0.2-0.5l-0.4-1l-22.3-58.9l-11.7-30.8h766.1V339.9c-36.3,0.1-72.7,0.1-109,0.1v-95.7H603.1v99.4
		c-1,0.4-2.1,0.7-3.1,1.1c-0.3,0.1-0.6,0.2-0.9,0.3c-10.3,3.6-20.9,7.5-31.7,11.8C559.7,360,552.2,363.1,544.9,366.3 M1555.6,27.3
		h-12H422.2h-17.6l6.5,16.4l27.8,70.6l1.1,2.8l0.2,0.5l0.1,0.2l25,63.6c-5.9,2.7-11.6,5.3-17.2,8c-13.4,6.4-25.9,12.6-38.2,19
		c-4.6,2.4-12.2,6.5-20.9,11.3c-0.1,0.1-3.5,1.9-9.4,5.4l-0.1,0.1l-0.1,0.1c-0.2,0.1-0.4,0.2-0.6,0.4c-0.5,0.3-1.1,0.6-1.9,1.1
		c-20,11.7-58.8,35.2-96.1,62.3c-0.6,0.4-1.1,0.7-1.5,1c-0.1,0.1-0.3,0.2-0.4,0.3l-0.4,0.3l-0.4,0.3l-8.1,6c-2.9,2.1-5.9,4.5-6.5,5
		c-3.3,2.5-10,7.5-18.7,14.3c-8.7,6.8-11.3,9-12.6,10c-3.9,3.2-6.6,5.5-6.7,5.6c-4.2,3.6-5.5,4.7-10.2,8.5l0,0l0,0
		c-2.3,1.9-3.8,3.1-5.2,4.2l-0.3,0.2l-0.3,0.3c-0.2,0.2-0.6,0.5-1.4,1l-0.3,0.2l-0.3,0.3c-0.6,0.5-1.1,0.9-1.7,1.4
		c-1.3,1-2.7,2.2-4.5,3.7c-2.8,2.4-4.9,4.2-7.9,6.8c-0.6,0.5-6.8,5.8-12.4,10.9c-1.6,1.5-3.2,2.9-4.8,4.4c-1.5,1.4-3,2.7-4.5,4.1
		c-0.9,0.8-1.7,1.6-2.4,2.3c-18.1,16.8-33.5,32.6-34.7,33.9l-2,2c-0.3,0.3-0.6,0.6-0.9,0.9c-0.2,0.2-0.4,0.4-0.5,0.5l-0.4,0.4
		l-0.4,0.4c-5.9,6.2-11.2,11.8-15.6,16.5l-0.1,0.1l-0.1,0.1c-3.4,3.8-8.6,9.5-14.5,16.2c-0.3,0.3-0.5,0.6-0.7,0.8l-0.1,0.1l-0.3,0.3
		l-1.7,2c-2.9,3.3-6.2,7.1-10.1,11.8c-0.6,0.7-1.7,2-5.2,6.3c-1.1,1.3-2.3,2.8-3.5,4.3c-3.8,4.6-7.3,9.1-10.5,13.2
		c-0.8,0.9-1.4,1.7-1.9,2.4c-6.4,8.2-11.4,14.8-13.8,18c-0.6,0.8-1,1.3-1.2,1.6l-0.1,0.1l-0.1,0.1l-0.6,0.8c-2.6,3.6-5.9,8-9.4,12.9
		c-0.6,0.8-1.3,1.7-2,2.8c-3.7,5.2-7.6,10.8-11.8,17c-4.4,6.5-8.7,12.9-12.6,19l-5.2,8.1l6.8,6.8c3.1,3.1,6.3,6.3,9.4,9.4
		c6.1,6.2,12.5,12.5,18.8,18.7l187.1,187.1l0.1,38.3v33.8v12h12h357.1h15.4l-3.7-14.9l-19.1-76.3H696l0,0.1l31.6,83.4l2.9,7.7h8.3
		H1619h13.1l-1.1-13l-7.3-83.7l-0.6-6.1v-0.2l0-0.5l-2.5-28.2l-0.9-10.9l0,0l0,0l-0.5-5.7l-6.7-77.2l-1-11h-11h-44.9V39.3V27.3
		L1555.6,27.3z M615.1,256.3h688.4V340v12h12c31.8,0,64.6,0,97-0.1v290.2H658.4H641l6.2,16.3l11.7,30.8l16.7,44.1h-95.8l-1.6-6.6
		l0,0l0,0l-1.1-4.4l-17.8-71l-2.3-9.1h-9.4H249.5l-3.9-3.8l-34.8-34.8c7.9-8,15.8-16,23.5-23.8c10.4-10.6,21.2-21.5,31.9-32.3
		c1-1,2.1-2.1,3.2-3.3c5.4-5.4,10.7-10.9,16.1-16.3C296,517,307,506,317.7,495.2c1-1,2.1-2.1,3.2-3.3c8-8.1,16.1-16.4,24-24.4
		c7.9-8,16.1-16.3,24.2-24.5l3.1-3.1l0,0l0,0l21.9-22.2l21.9-22.2c1-1,2.1-2.1,3.2-3.3l23.3-23.6l23.4-23.7c0.4-0.4,0.7-0.7,1.1-1.1
		c0.6-0.6,1.1-1.1,1.6-1.6l0.3-0.2l0.2-0.2c7.8-7.9,15.7-16,23.4-23.8c4.7-4.8,9.5-9.6,14.3-14.5c1.8,4.4,3.6,8.9,5.4,13.2
		c1.4,3.3,2.7,6.7,4.1,10l0.2,0.4l0,0c0.1,0.2,0.2,0.5,0.4,0.9c5.5,14.1,11.1,28.6,16.8,42.9l4.6,11.5l11.4-5
		c6.4-2.8,13.4-5.7,22.2-9.3c9.7-3.9,19.9-7.7,31.1-11.6l0.8-0.3l0.3-0.1l0.3-0.1c0.2-0.1,0.6-0.2,0.9-0.3c0.6-0.2,1.4-0.5,2.2-0.8
		l7.5-3v-8.1V256.3L615.1,256.3z"/>
</g>
<path style="fill:#C7C7C9;" d="M243.6,770.7v61.9h40.5v-61.9H243.6z"/>
<polygon id="_x33_l04001" style="fill:#C7C7C9;" points="597.2,39.3 597.2,112.7 451.1,112.7 450,109.9 422.2,39.3 "/>
<rect id="_x33_l04002_1_" x="601" y="39.3" style="fill:#C7C7C9;" width="95.6" height="73.4"/>
<rect id="_x33_l04003" x="700.4" y="39.3" style="fill:#C7C7C9;" width="91.9" height="73.3"/>
<rect id="_x33_l04004" x="796.2" y="39.3" style="fill:#C7C7C9;" width="89.7" height="73.3"/>
<rect id="_x33_l04005" x="889.7" y="39.3" style="fill:#C7C7C9;" width="90" height="73.3"/>
<rect id="_x33_l04006" x="983.4" y="39.3" style="fill:#C7C7C9;" width="146.3" height="73.3"/>
<rect id="_x33_l04007" x="1133.4" y="39.3" style="fill:#C7C7C9;" width="43.1" height="73.3"/>
<rect id="_x33_l04008" x="1180.3" y="39.3" style="fill:#C7C7C9;" width="43.1" height="73.3"/>
<rect id="_x33_l04009" x="1227.2" y="39.3" style="fill:#C7C7C9;" width="93.8" height="73.3"/>
<rect id="_x33_u04016" x="1324.7" y="39.3" style="fill:#C7C7C9;" width="45" height="73.3"/>
<rect id="_x33_u04017" x="1373.4" y="39.3" style="fill:#C7C7C9;" width="45" height="73.3"/>
<rect id="_x33_u04018" x="1422.2" y="39.3" style="fill:#C7C7C9;" width="45" height="73.3"/>
<rect id="_x33_u04019" x="1470.9" y="39.3" style="fill:#C7C7C9;" width="45" height="73.3"/>
<rect id="p3ch04lab16a" x="603.1" y="194" style="fill:#C7C7C9;" width="42.9" height="50.3"/>
<rect id="_x33_l04016b_1_" x="603.1" y="157.7" style="fill:#C7C7C9;" width="42.9" height="31"/>
<rect id="_x33_l04015" x="649.8" y="157.7" style="fill:#C7C7C9;" width="125.6" height="86.6"/>
<rect id="_x33_l04014" x="779" y="157.7" style="fill:#C7C7C9;" width="61.9" height="86.6"/>
<rect id="_x33_l04013" x="844.7" y="157.7" style="fill:#C7C7C9;" width="61.9" height="86.6"/>
<rect id="_x33_l04012" x="910.3" y="157.7" style="fill:#C7C7C9;" width="138.8" height="86.6"/>
<rect id="_x33_l04011" x="1052.8" y="157.7" style="fill:#C7C7C9;" width="172.5" height="86.6"/>
<rect id="_x33_l04010" x="1229" y="157.7" style="fill:#C7C7C9;" width="86.5" height="86.3"/>
<rect id="_x33_u06001" x="1455.9" y="215.8" style="fill:#C7C7C9;" width="87.7" height="39.4"/>
<rect id="_x33_u06002" x="1455.9" y="259" style="fill:#C7C7C9;" width="87.7" height="39.4"/>
<rect id="_x33_u06003" x="1455.9" y="302.1" style="fill:#C7C7C9;" width="87.7" height="39.4"/>
<rect id="_x33_u06004" x="1455.9" y="345.2" style="fill:#C7C7C9;" width="87.7" height="39.4"/>
<rect id="_x33_u06005" x="1455.9" y="388.3" style="fill:#C7C7C9;" width="87.7" height="39.4"/>
<rect id="_x33_u06006" x="1455.9" y="431.4" style="fill:#C7C7C9;" width="87.7" height="39.4"/>
<rect id="_x33_u06007" x="1455.9" y="474.5" style="fill:#C7C7C9;" width="87.7" height="39.4"/>
<rect id="_x33_u06008" x="1456" y="517.6" style="fill:#C7C7C9;" width="87.6" height="39.4"/>
<rect id="_x33_u06009" x="1455.9" y="560.7" style="fill:#C7C7C9;" width="87.7" height="39.4"/>
<rect id="_x33_u06010" x="1455.9" y="603.9" style="fill:#C7C7C9;" width="87.7" height="39.4"/>
<polygon id="_x33_r03001" style="fill:#C7C7C9;" points="1607.2,731.4 1455.8,731.4 1455.8,654.2 1600.5,654.2 "/>
<polygon id="_x33_l03008" style="fill:#C7C7C9;" points="878.5,776.2 878.5,866.7 738.8,866.7 707.2,783.3 704.7,776.7 704.5,776.2 
	"/>
<rect id="_x33_l03007" x="882.2" y="776.2" style="fill:#C7C7C9;" width="148.1" height="90.5"/>
<rect id="_x33_l03006" x="1034" y="776.2" style="fill:#C7C7C9;" width="91.9" height="90.5"/>
<rect id="_x33_l03005" x="1129.7" y="776.2" style="fill:#C7C7C9;" width="91.9" height="90.5"/>
<rect id="_x33_l03004" x="1225.3" y="776.2" style="fill:#C7C7C9;" width="99.4" height="90.5"/>
<rect id="_x33_u03001" x="1328.4" y="776.2" style="fill:#C7C7C9;" width="45" height="90.5"/>
<rect id="_x33_u03002" x="1377.2" y="776.2" style="fill:#C7C7C9;" width="39.4" height="90.5"/>
<rect id="_x33_u03003" x="1420.3" y="776.2" style="fill:#C7C7C9;" width="43.1" height="90.5"/>
<rect id="_x33_u03004" x="1467.2" y="776.2" style="fill:#C7C7C9;" width="46.9" height="90.5"/>
<rect id="_x33_u03005" x="1517.8" y="776.2" style="fill:#C7C7C9;" width="43.1" height="90.5"/>
<polygon id="_x33_u03006" style="fill:#C7C7C9;" points="1619,866.7 1564.6,866.7 1564.6,776.2 1611.1,776.2 1611.1,776.4 
	1611.7,783 "/>
<rect id="_x33_l03003" x="1178.4" y="654.1" style="fill:#C7C7C9;" width="125.3" height="77.3"/>
<rect id="_x33_l03002" x="989" y="654.1" style="fill:#C7C7C9;" width="185.6" height="77.3"/>
<rect id="_x33_l03001" x="882" y="654.1" style="fill:#C7C7C9;" width="103.3" height="77.1"/>
<polygon id="labing" style="fill:#C7C7C9;" points="600.8,866.7 496,866.7 496,776.4 578.1,776.4 578.2,776.7 579.9,783.3 "/>
<rect id="_x33_uf006" x="456.6" y="776.2" style="fill:#C7C7C9;" width="35.6" height="90.5"/>
<rect id="_x33_uf007" x="377.9" y="776.4" style="fill:#C7C7C9;" width="75" height="90.3"/>
<rect id="_x33_uf005" x="451" y="654.1" style="fill:#C7C7C9;" width="60" height="77.3"/>
<rect id="_x33_uf004" x="402.3" y="654.1" style="fill:#C7C7C9;" width="45" height="77.3"/>
<rect id="_x33_uf003" x="353.5" y="654.1" style="fill:#C7C7C9;" width="45" height="77.3"/>
<rect id="_x33_uf002" x="295.4" y="654.1" style="fill:#C7C7C9;" width="53.4" height="77.3"/>
<rect id="_x33_uf001" x="244.8" y="654.1" style="fill:#C7C7C9;" width="46.9" height="77.3"/>
<rect id="bagno01b_1_" x="1455.9" y="157.7" style="fill:#C7C7C9;" width="52.5" height="54.4"/>
<rect id="bagno01c_1_" x="1512.2" y="170.8" style="fill:#C7C7C9;" width="24.4" height="41.3"/>
<rect id="vanoscala2_1_" x="1322.8" y="238.3" style="fill:#C7C7C9;" width="39.4" height="65.6"/>
<rect id="bagno01" x="1322.8" y="157.7" style="fill:#C7C7C9;" width="39.4" height="65.6"/>
<rect id="_x33_lt001" x="1390.3" y="227.1" style="fill:#C7C7C9;" width="28.1" height="48.8"/>
<rect id="ascensore8_3_" x="1390.3" y="279.6" style="fill:#C7C7C9;" width="28.1" height="26.3"/>
<rect id="ascensore7_3_" x="1390.3" y="309.6" style="fill:#C7C7C9;" width="28.1" height="26.3"/>
<rect id="ascensore6_3_" x="1307.8" y="658.2" style="fill:#C7C7C9;" width="28.1" height="26.3"/>
<rect id="ascensore5_3_" x="1307.8" y="688.2" style="fill:#C7C7C9;" width="28.1" height="26.3"/>
<rect id="ascensore4_3_" x="743.4" y="656.4" style="fill:#C7C7C9;" width="28.1" height="26.3"/>
<rect id="ascensore3_3_" x="346" y="827" style="fill:#C7C7C9;" width="28.1" height="26.3"/>
<rect id="ascensore2_3_" x="314.1" y="783.9" style="fill:#C7C7C9;" width="31.9" height="39.4"/>
<rect id="_x33_lt004" x="348.8" y="776.4" style="fill:#C7C7C9;" width="25.3" height="46.9"/>
<rect id="vanoscala5_3_" x="243.6" y="770.7" style="fill:#C7C7C9;" width="40.5" height="61.9"/>
<rect id="_x33_lt005" x="743.4" y="686.4" style="fill:#C7C7C9;" width="28.1" height="56.3"/>
<rect id="vanoscala3_1_" x="1369.7" y="680.7" style="fill:#C7C7C9;" width="50.6" height="60"/>
<rect id="_x33_lt007" x="1307.8" y="718.2" style="fill:#C7C7C9;" width="30" height="22.5"/>
<rect id="p3lt06" x="840.9" y="707" style="fill:#C7C7C9;" width="37.5" height="24.4"/>
<polygon id="bagno05_1_" style="fill:#C7C7C9;" points="878.4,654.1 878.4,703.2 837.2,703.2 837.2,731.4 775.3,731.4 775.3,654.1 
	"/>
<polygon id="bagno04" style="fill:#C7C7C9;" points="566.4,731.4 515.3,731.4 515.3,654.1 547.6,654.1 565.4,725.1 "/>
<polygon id="bagno02" style="fill:#C7C7C9;" points="599.1,150.2 599.1,227.1 552.3,227.1 552.3,174.6 524.1,174.6 524.1,150.2 "/>
<rect id="p3lt02" x="539.1" y="230.8" style="fill:#C7C7C9;" width="60" height="28.1"/>
<rect id="ascensore1_3_" x="554.1" y="262.7" style="fill:#C7C7C9;" width="45" height="28.1"/>
<path id="_x33_u04001" style="fill:#C7C7C9;" d="M99.5,582l-31.9,31.4c-4.8-4.8-9.7-9.7-14.5-14.5c-9.4-9.3-18.7-18.7-28.1-28.1
	c3.2-5,7.4-11.4,12.4-18.7c4.2-6.2,8.1-11.9,11.8-17L99.5,582z"/>
<path id="_x33_u04002" style="fill:#C7C7C9;" d="M131.2,551l-29.5,29.1L51,532.8c3.7-5.2,7.1-9.8,9.9-13.6c1-1.3,7-9.4,15.1-19.7
	L131.2,551z"/>
<path id="_x33_u04003" style="fill:#C7C7C9;" d="M165.7,517.1l-32.5,32l-55.6-51.8c3.3-4.1,6.8-8.6,10.4-13.1
	c4.1-5,7.9-9.7,8.4-10.2c3.7-4.5,7.2-8.5,10.2-11.9L165.7,517.1z"/>
<path id="_x33_u04004" style="fill:#C7C7C9;" d="M200,483.2l-32.5,32L108.3,460c0.3-0.3,0.5-0.6,0.8-0.9
	c5.6-6.4,10.5-11.8,14.5-16.2c4.5-4.8,9.6-10.4,15.5-16.4L200,483.2z"/>
<path id="_x33_u04005" style="fill:#C7C7C9;" d="M238.5,445.3L202,481.2l-60.9-56.8c0.7-0.7,1.4-1.4,2.1-2.1c0,0,16-16.5,34.5-33.7
	L238.5,445.3z"/>
<path id="_x33_u04006" style="fill:#C7C7C9;" d="M274,410.6l-33.5,33l-60.9-56.7c3.1-2.9,6.2-5.7,9.3-8.5
	c5.8-5.2,12.3-10.8,12.3-10.8c3.1-2.7,5.2-4.5,7.8-6.7s4.4-3.7,6.1-5L274,410.6z"/>
<path id="_x33_u04006a" style="fill:#C7C7C9;" d="M337,348.7l-61.1,60l-58.5-54.6c1.6-1.2,3.3-2.6,5.6-4.5c4.8-3.9,6.2-5.1,10.4-8.7
	c0,0,2.7-2.3,6.6-5.5c1.3-1.1,3.8-3.2,12.3-9.8c8.7-6.8,15.3-11.8,18.6-14.3c0,0,3.3-2.6,6.3-4.8c2.7-2,5.4-4,8.1-6L337,348.7z"/>
<path id="_x33_u04007" style="fill:#C7C7C9;" d="M417.8,269.2L339,346.7l-51.4-47.8c37.7-27.5,76.7-51,95.6-62L417.8,269.2z"/>
<path id="_x33_u04008" style="fill:#C7C7C9;" d="M471.1,216.9l-51.3,50.4l-34.1-31.9c5.8-3.3,9-5.2,9-5.2
	c8.9-4.9,16.3-8.9,20.7-11.2c13.4-7,26-13.3,37.8-18.8L471.1,216.9z"/>
<path id="bagno03" style="fill:#C7C7C9;" d="M193.9,603.5l0.9,0.9l-3.4,3.4l-32.9-29.7l68.9-66.9l30.3,27.7
	C236.4,560.4,215.2,582,193.9,603.5z"/>
<path id="_x33_u04014" style="fill:#C7C7C9;" d="M309.2,486.7c-16.2,16.4-32.3,32.8-48.5,49.1l-30.2-27.6l49.6-48.1L309.2,486.7z"/>
<path id="_x33_u04013" style="fill:#C7C7C9;" d="M360.7,434.5c-16.1,16.4-32.3,32.7-48.4,49.1l-29-26.5l49.6-48L360.7,434.5z"/>
<path id="_x33_u04012" style="fill:#C7C7C9;" d="M407.7,387c-14.6,14.8-29.3,29.7-43.9,44.5l-27.9-25.4l45-43.5L407.7,387z"/>
<path id="_x33_u04011" style="fill:#C7C7C9;" d="M457.6,336.4c-15.6,15.8-31.3,31.7-46.9,47.5L384,359.5l48.1-46.5L457.6,336.4z"/>
<path id="_x33_u04009-10" style="fill:#C7C7C9;" d="M507.6,285.7c-15.6,15.9-31.3,31.7-46.9,47.6L435.1,310l48.1-46.6L507.6,285.7z"
	/>
<path id="_x33_r04001" style="fill:#C7C7C9;" d="M189,662.7l-36.3,35.8c-23.6-23.6-47.2-47.2-70.7-70.7L94.9,615l22.8,21.3
	l20.9-20.5L189,662.7z"/>
<path id="_x33_lt003" style="fill:#C7C7C9;" d="M220.6,736.9l-14.9,14.6c-16.7-16.7-33.4-33.4-50.1-50.1l35-34.4l28.9,26.9
	L220.6,736.9z"/>
<path id="vanoscala1" style="fill:#C7C7C9;" d="M600,295.2v49.6c-0.3,0.1-0.6,0.2-0.9,0.3c-10.3,3.6-20.9,7.5-31.7,11.8
	c-7.7,3.1-15.2,6.2-22.5,9.4c-5.7-14.3-11.3-28.7-16.9-43.1c-0.2-0.4-0.3-0.8-0.5-1.2c-3.7-9-7.3-17.9-11-26.8L600,295.2L600,295.2z
	"/>
<polygon id="vanoscala4" style="fill:#C7C7C9;" points="720.4,654.1 720.4,738.6 690.8,738.6 658.5,654.1 "/>
</svg>
