<?xml version="1.0" encoding="utf-8"?>
<!-- Generator: Adobe Illustrator 22.1.0, SVG Export Plug-In . SVG Version: 6.00 Build 0)  -->
<svg version="1.1" id="Ue4p2" xmlns="http://www.w3.org/2000/svg" xmlns:xlink="http://www.w3.org/1999/xlink" x="0px" y="0px"
	 viewBox="0 0 1657 910.2" style="enable-background:new 0 0 1657 910.2;" xml:space="preserve">
<g>
	<path style="fill:#D7D7DC;" d="M731.7,872.5l-33.2-86.9l-1.5-3.9H582.2l0.3,1v0.1l22.7,89.6H233.5v-31.7l-0.1-48.5l-37.7-37.4
		l-49.5-49.1l-2.8-2.7l-84.1-83.5l-46.9-46.8l2.8-4.1c10.3-15.2,21.3-30.5,33.6-46.7l0.2-0.2c0.1-0.2,0.2-0.3,0.3-0.4v-0.1l1.2-1.7
		c7.1-9.2,14.9-19,25.5-32c0.4-0.5,0.7-0.9,1-1.3c0.2-0.2,0.4-0.4,0.5-0.6l0.2-0.3l0.2-0.2c0.6-0.6,1.1-1.3,1.7-2l0.5-0.7
		c0.9-1.1,1.8-2.2,2.7-3.3c1.3-1.6,2.7-3.3,4.1-4.9c7.4-8.7,14-16.3,20.3-23.2l0.1-0.1l0.1-0.1c0.2-0.2,0.4-0.4,0.6-0.6
		c0.2-0.2,0.6-0.5,0.7-0.7l0.2-0.3l0.2-0.3c7-7.6,14.6-15.7,23.3-24.9c2.4-2.6,5-5.3,7.5-7.8c0.7-0.8,1.4-1.5,2.1-2.2
		c7-7.2,13.1-13.2,18.6-18.5c5.9-5.7,11.8-11.2,17.7-16.7l0.3-0.3l0.3-0.2c0.5-0.3,0.8-0.6,1.2-1.1l0.2-0.2
		c12.4-11.4,24.1-21.8,34.8-30.7l0.2-0.1l0.2-0.1c0.2-0.2,0.4-0.3,0.6-0.5c0.4-0.3,0.8-0.7,1.3-1c9.2-7.7,17.6-14.3,24.3-19.7l2.4-2
		c7-5.4,13.9-10.7,20.6-15.7l3.8-2.8c5.5-4,10.7-7.8,16-11.6c0.2-0.1,0.4-0.3,0.6-0.4c0.5-0.4,1.2-0.9,1.9-1.4l0.7-0.4
		c30.1-21.4,60.6-40.7,93.3-59l1-0.6c0.5-0.3,1-0.6,1.6-0.9c0.7-0.4,1.4-0.8,2-1.1c0.8-0.4,1.6-0.9,2.3-1.3l0.1,0
		c7.7-4.2,14.6-7.9,20.9-11.2c16.1-8.3,29-14.6,40.7-20c7.2-3.4,14-6.5,19.7-9l-28.6-71.9l-5.4-13.5l-25.8-64.9h1140v131.7l-0.1,43
		v437.2h56.6l1.3,15l7.3,84.1v0.1l3.1,34.5l0.2,1.9l7.6,87.5H731.7z M681.2,740.1l-34.6-90.6h771V348.9h-810l-7.3,3h0L542,377
		l-17.5-48.1l0,0l-8.1-20.4l-7.1-17.9l-11.1,11.3l-2.8,2.8l-44.8,45.2l-2.7,2.8l-44.8,45.2l-2.7,2.8L358.6,443l-2.7,2.8l-46.3,46.6
		l-2.7,2.8l-46.3,46.6l-2.7,2.8L198,605l9.4,9.3l35.4,35.1h306.1l22.3,88.3v0.1l0.6,2.4H681.2z"/>
	<path style="fill:#9E9D9C;" d="M1543.6,43.4v125.7l-0.1,43v443.2h57.1l0.8,9.5l7.3,83.9v0.1l3.1,34.8l0.2,2l7,80.9H735.8
		l-30.9-80.9l-0.8-2.1l-2.9-7.8H574.5l2,7.8v0.1l21,82.9h-358v-25.7l-0.1-51l-0.1-0.1l-39.4-39.1l-49.5-49.1l-2.9-2.8l-69.8-69.3
		l-14.1-14l-0.1-0.1L20.1,572c10.3-15.2,21.4-30.6,33.4-46.4l0.1-0.1c0.5-0.8,1.1-1.4,1.6-2.2c0-0.1,0-0.1,0-0.1
		c8.1-10.5,16.7-21.2,25.5-32c0.5-0.7,1.2-1.4,1.7-2.1c0.8-0.9,1.5-1.8,2.3-2.8c2.3-2.7,4.5-5.5,6.8-8.1c6.8-8,13.5-15.7,20.2-23.1
		c0.7-0.7,1.4-1.3,1.9-2c7.9-8.6,15.7-16.9,23.2-24.8c2.5-2.7,5-5.3,7.5-7.8c0.6-0.7,1.2-1.3,1.9-2c6.3-6.4,12.5-12.6,18.5-18.4
		s11.9-11.3,17.6-16.6c0.7-0.5,1.3-1,2-1.7c12.5-11.5,24.2-21.8,34.6-30.5c0.7-0.5,1.4-1.2,2.1-1.7c10.3-8.6,19.4-15.8,26.8-21.7
		c6.9-5.4,13.7-10.6,20.4-15.6c6.7-4.9,13.2-9.7,19.7-14.3c0.7-0.5,1.4-1.1,2.2-1.6c0.1,0,0.1,0,0.1,0
		c38.3-27.3,71.3-46.8,93.6-59.3c0.1,0,0.1,0,0.1,0c0.8-0.5,1.6-1,2.4-1.4c1.6-0.9,3.1-1.7,4.5-2.5c7.1-3.9,14-7.6,20.8-11.1
		c14.4-7.4,27.9-14.1,40.5-19.9c8.8-4.2,17.1-7.9,24.9-11.3l-30.7-77.3l-5.4-13.5l-22.5-56.7H1543.6 M240.3,655.4h303.9l21,83v0.1
		l2,7.6h122.7l-0.5-1.4l-1.8-4.7l-32.3-84.5h768.3h0V342.9H604.7v0.7l-5.6,2.3H599L545.5,369l-15.8-43.4l-0.1-0.1l-7.6-19.2
		l-10.5-26.4l-17.6,17.8l-2.8,2.9l-44.7,45.1l-2.8,2.9l-44.7,45.1l-2.8,2.9l-41.8,42.2l-2.8,2.9l-46.2,46.5l-2.8,2.9l-46.2,46.5
		l-2.8,2.9l-64,64.6l13.7,13.5L240.3,655.4 M881.7,739h0.2v-0.4h-0.2V739 M1555.6,31.4h-12H418.4h-17.7l6.5,16.4l22.5,56.7l5.4,13.5
		l26.4,66.5c-4.5,2-9.4,4.3-14.6,6.7c-11.8,5.4-24.8,11.8-40.9,20.1c-6.4,3.3-13.3,7-21.1,11.3l-0.1,0l-0.1,0.1
		c-0.7,0.4-1.5,0.8-2.2,1.2c-0.6,0.3-1.3,0.7-2,1.1h0l-0.1,0c-0.6,0.3-1.2,0.7-1.8,1l-0.9,0.5c-32.8,18.4-63.5,37.8-93.7,59.3
		l-0.5,0.3c-1,0.6-1.8,1.2-2.4,1.7c-0.1,0.1-0.3,0.2-0.4,0.3c-5.3,3.8-10.6,7.6-16.1,11.6l-3.8,2.8l0,0l0,0
		c-6.7,5-13.7,10.3-20.6,15.8l0,0l0,0l-2.5,2c-6.7,5.4-15.1,12-24.3,19.7c-0.6,0.4-1.1,0.9-1.4,1.2c-0.1,0.1-0.2,0.2-0.3,0.3
		l-0.3,0.2l-0.4,0.3c-10.7,9-22.5,19.4-35,30.9l-0.2,0.2l-0.2,0.2c-0.2,0.2-0.3,0.3-0.5,0.4l-0.6,0.4l-0.6,0.5
		c-6,5.5-11.8,11-17.8,16.8c-5.4,5.3-11.6,11.3-18.7,18.6c-0.7,0.7-1.4,1.4-2.2,2.3c-2.5,2.5-5,5.1-7.5,7.8
		c-8.8,9.3-16.2,17.2-23.3,24.9l-0.5,0.5l-0.2,0.2c-0.1,0.1-0.1,0.1-0.2,0.2c-0.2,0.2-0.5,0.4-0.7,0.7l-0.2,0.2l-0.2,0.2
		c-6.3,6.9-12.9,14.6-20.4,23.3c-1.5,1.7-2.9,3.4-4.2,5c-0.9,1.1-1.8,2.2-2.7,3.2l-0.1,0.1l-0.1,0.1l-0.4,0.5
		c-0.6,0.7-1,1.3-1.5,1.8l-0.4,0.5l-0.3,0.4c-0.1,0.1-0.2,0.2-0.3,0.3c-0.3,0.4-0.8,0.9-1.2,1.5c-10.6,13-18.4,22.8-25.5,32
		l-2.5,3.2v0.2c-12.1,15.9-22.9,30.9-33,45.9l-5.6,8.2l7,7L55,623.8l0.1,0.1l14.1,14l69.8,69.3l0.1,0.1l0.1,0.1l2.8,2.8l49.4,49
		l36,35.7l0.1,46v25.7v12h12h358h15.4l-3.8-14.9l-19.2-75.9h102.9l0,0l0,0l0.8,2.1l30.9,80.9l2.9,7.7h8.3H1619h13.1l-1.1-13l-7-80.9
		l0-0.1l0-0.1l-0.2-1.9l-3-34.2v-0.1l0-0.5l-7.3-83.9l-0.8-9.5l-0.9-11h-11h-45.1V212.1l0.1-43V43.4V31.4L1555.6,31.4z M502.5,306.1
		l4.7-4.7l3.7,9.3l7.6,19.2l0.7,1.9l15,41.3l4.4,12l11.7-5l51.4-22.2l2-0.8l5.1-2.1h802.8v288.6H655.3h-17.4l6.2,16.3l28.4,74.3h-96
		l-20.7-81.6l-2.3-9.1h-9.3h-299l-33.6-33.3l-5.2-5.1l55.5-56.1l0.1-0.1l0.1-0.1l2.7-2.8l46.1-46.4l0.1-0.1l0.1-0.1l2.7-2.8
		l46.1-46.4l0.1-0.1l0.1-0.1l2.7-2.8l41.7-42.1l0.1-0.1l0.1-0.1l2.7-2.8l44.6-45l0.1-0.1l0.1-0.1l2.7-2.8l44.6-45l0.1-0.1l0.1-0.1
		L502.5,306.1L502.5,306.1z"/>
</g>
<polygon id="_x32_l03012" style="fill:#C7C7C9;" points="478.8,43.4 478.8,100.1 440.9,100.1 418.4,43.4 "/>
<rect id="p2ch03lab11" x="482.4" y="43.4" style="fill:#C7C7C9;" width="50" height="56.7"/>
<rect id="_x32_l03009" x="620.2" y="43.4" style="fill:#C7C7C9;" width="145.4" height="56.7"/>
<rect id="_x32_l03008" x="771.4" y="43.4" style="fill:#C7C7C9;" width="170" height="56.7"/>
<rect id="_x32_l03007" x="945.4" y="43.4" style="fill:#C7C7C9;" width="61.5" height="56.7"/>
<rect id="_x32_l03006" x="1011" y="43.4" style="fill:#C7C7C9;" width="47.1" height="56.7"/>
<rect id="_x32_l03005" x="1062.2" y="43.4" style="fill:#C7C7C9;" width="57.4" height="56.7"/>
<rect id="_x32_l03004" x="1123.7" y="43.4" style="fill:#C7C7C9;" width="63.5" height="56.7"/>
<rect id="_x32_l03003" x="1191.2" y="43.4" style="fill:#C7C7C9;" width="45.1" height="56.7"/>
<rect id="_x32_l03002" x="1240.4" y="43.4" style="fill:#C7C7C9;" width="57.4" height="56.7"/>
<rect id="_x32_l03001" x="1301.9" y="43.4" style="fill:#C7C7C9;" width="49.2" height="56.6"/>
<rect id="_x32_u03009" x="1355.1" y="43.4" style="fill:#C7C7C9;" width="73.7" height="56.7"/>
<rect id="_x32_u03010_1_" x="1433" y="43.4" style="fill:#C7C7C9;" width="45.1" height="56.7"/>
<rect id="_x32_u03011" x="1482.2" y="43.4" style="fill:#C7C7C9;" width="61.4" height="56.7"/>
<rect id="_x32_l03013" x="603.3" y="144.5" style="fill:#C7C7C9;" width="77.9" height="106.5"/>
<rect id="_x32_l03014" x="685.3" y="144.5" style="fill:#C7C7C9;" width="36.9" height="106.5"/>
<rect id="_x32_l03015" x="726.3" y="144.5" style="fill:#C7C7C9;" width="36.9" height="106.5"/>
<rect id="_x32_l03016" x="767.2" y="144.5" style="fill:#C7C7C9;" width="36.9" height="106.5"/>
<rect id="_x32_l03017" x="808.2" y="144.5" style="fill:#C7C7C9;" width="36.9" height="106.5"/>
<rect id="_x32_l03018" x="849.2" y="144.5" style="fill:#C7C7C9;" width="43" height="106.5"/>
<rect id="_x32_l03019" x="896.2" y="144.5" style="fill:#C7C7C9;" width="59.4" height="106.5"/>
<rect id="_x32_l03020" x="959.8" y="144.5" style="fill:#C7C7C9;" width="55.3" height="106.5"/>
<rect id="_x32_l03021" x="1019.1" y="144.5" style="fill:#C7C7C9;" width="51.2" height="106.5"/>
<rect id="_x32_l03022" x="1074.5" y="144.5" style="fill:#C7C7C9;" width="36.9" height="106.5"/>
<rect id="_x32_l03023" x="1115.5" y="144.5" style="fill:#C7C7C9;" width="81.9" height="106.5"/>
<rect id="_x32_l03024" x="1201.5" y="144.5" style="fill:#C7C7C9;" width="129" height="106.5"/>
<rect id="bagno01a" x="1334.7" y="156.8" style="fill:#C7C7C9;" width="43" height="69.7"/>
<rect id="vanoscale2_1_" x="1334.7" y="230.5" style="fill:#C7C7C9;" width="38.9" height="75.8"/>
<rect id="_x32_f001" x="1377.7" y="230.5" style="fill:#C7C7C9;" width="22.5" height="32.8"/>
<rect id="_x32_lt001" x="1404.3" y="230.5" style="fill:#C7C7C9;" width="28.7" height="45.1"/>
<rect id="ascensore8_2_" x="1404.3" y="279.7" style="fill:#C7C7C9;" width="28.7" height="24.6"/>
<rect id="ascensore7_2_" x="1404.3" y="308.3" style="fill:#C7C7C9;" width="28.7" height="24.6"/>
<rect id="ascensore6_2_" x="1320.4" y="662.7" style="fill:#C7C7C9;" width="28.7" height="24.6"/>
<rect id="ascensore5_2_" x="1320.4" y="691.5" style="fill:#C7C7C9;" width="28.7" height="24.6"/>
<rect id="ascensore4_2_" x="748.8" y="660.7" style="fill:#C7C7C9;" width="28.7" height="24.6"/>
<rect id="ascensore3_2_" x="345.3" y="836.9" style="fill:#C7C7C9;" width="28.7" height="24.6"/>
<rect id="_x32_lt005" x="748.8" y="689.4" style="fill:#C7C7C9;" width="28.7" height="59.4"/>
<rect id="bagno01b" x="1467.8" y="156.8" style="fill:#C7C7C9;" width="47.1" height="55.3"/>
<rect id="bagno01c" x="1519" y="169" style="fill:#C7C7C9;" width="24.6" height="43"/>
<rect x="1457.6" y="214.2" style="fill:#C7C7C9;" width="85.9" height="41"/>
<rect id="_x32_u03010" x="1457.6" y="259.2" style="fill:#C7C7C9;" width="85.9" height="41"/>
<rect id="_x32_u03008" x="1457.6" y="304.3" style="fill:#C7C7C9;" width="85.9" height="41"/>
<rect id="_x32_u03007" x="1457.6" y="349.3" style="fill:#C7C7C9;" width="85.9" height="41"/>
<rect id="_x32_u03006" x="1457.6" y="394.4" style="fill:#C7C7C9;" width="85.9" height="41"/>
<rect id="_x32_u03005" x="1457.6" y="439.4" style="fill:#C7C7C9;" width="85.9" height="41"/>
<rect id="_x32_u03004" x="1457.6" y="484.6" style="fill:#C7C7C9;" width="85.9" height="41"/>
<rect id="_x32_u03003" x="1457.6" y="529.6" style="fill:#C7C7C9;" width="85.9" height="41"/>
<rect id="_x32_u03002" x="1457.6" y="574.7" style="fill:#C7C7C9;" width="85.9" height="41"/>
<rect id="_x32_u03001" x="1457.6" y="619.7" style="fill:#C7C7C9;" width="86" height="41"/>
<polygon id="_x32_r01001" style="fill:#C7C7C9;" points="1608.7,748.8 1457.6,748.8 1457.6,664.8 1601.4,664.8 1608.7,748.7 "/>
<rect id="vanoscale3_1_" x="1379.7" y="683.3" style="fill:#C7C7C9;" width="55.3" height="65.5"/>
<rect id="_x32_lt007" x="1320.4" y="720.1" style="fill:#C7C7C9;" width="28.7" height="28.7"/>
<polygon id="_x32_u01004" style="fill:#C7C7C9;" points="1619,866.5 1574.4,866.5 1574.4,785.6 1612,785.6 "/>
<rect id="_x32_u01005" x="1529.2" y="785.6" style="fill:#C7C7C9;" width="41" height="80.9"/>
<rect id="_x32_u01006" x="1478" y="785.6" style="fill:#C7C7C9;" width="47.1" height="80.9"/>
<rect id="_x32_u01007" x="1430.9" y="785.6" style="fill:#C7C7C9;" width="43" height="80.9"/>
<rect id="_x32_u01008" x="1387.9" y="785.6" style="fill:#C7C7C9;" width="38.9" height="80.9"/>
<rect id="_x32_u01009" x="1334.7" y="785.6" style="fill:#C7C7C9;" width="49.2" height="80.9"/>
<rect id="_x32_u01010" x="1289.5" y="785.6" style="fill:#C7C7C9;" width="41" height="80.9"/>
<rect id="_x32_u01011" x="1238.4" y="785.6" style="fill:#C7C7C9;" width="47.1" height="80.9"/>
<rect id="_x32_u01012" x="1181.1" y="785.6" style="fill:#C7C7C9;" width="53.3" height="80.9"/>
<rect id="_x32_u01013" x="1138" y="785.6" style="fill:#C7C7C9;" width="38.9" height="80.9"/>
<rect id="_x32_l01003" x="1039.7" y="785.6" style="fill:#C7C7C9;" width="94.3" height="80.9"/>
<rect id="_x32_l01004" x="976.2" y="785.6" style="fill:#C7C7C9;" width="59.4" height="80.9"/>
<rect id="_x32_l01005" x="884" y="785.6" style="fill:#C7C7C9;" width="88.1" height="80.9"/>
<rect id="_x32_l01006" x="783.6" y="785.6" style="fill:#C7C7C9;" width="96.2" height="80.9"/>
<polygon id="_x32_l01007" style="fill:#C7C7C9;" points="779.4,785.6 779.4,866.5 735.8,866.5 704.9,785.6 "/>
<rect id="bagno05" x="781.5" y="655.4" style="fill:#C7C7C9;" width="100.4" height="83.1"/>
<rect id="vanoscala5_2_" x="239.3" y="773.4" style="fill:#C7C7C9;" width="44.5" height="67.6"/>
<rect id="ascensore2_2_" x="308.4" y="773.4" style="fill:#C7C7C9;" width="36.9" height="59.4"/>
<rect id="_x32_lt004" x="349.3" y="773.4" style="fill:#C7C7C9;" width="24.6" height="59.4"/>
<polygon id="bagno2_2_" style="fill:#C7C7C9;" points="599.2,148.6 599.2,226.5 552.1,226.5 552.1,173.2 525.6,173.2 525.6,148.6 
	"/>
<rect id="_x32_lt002" x="537.8" y="230.5" style="fill:#C7C7C9;" width="61.5" height="28.7"/>
<rect id="ascensore1_2_" x="560.3" y="263.3" style="fill:#C7C7C9;" width="38.9" height="28.7"/>
<rect id="_x32_l12005" x="378.1" y="783.6" style="fill:#C7C7C9;" width="122.9" height="82.9"/>
<polygon id="_x32_l12004" style="fill:#C7C7C9;" points="597.5,866.5 505,866.5 505,783.6 576.5,783.6 "/>
<polygon id="_x32_l12003" style="fill:#C7C7C9;" points="565.2,738.4 492.8,738.4 492.8,655.4 544.2,655.4 "/>
<rect id="_x32_l12002" x="394.5" y="655.3" style="fill:#C7C7C9;" width="94.3" height="83.1"/>
<rect id="_x32_l12001" x="330.9" y="655.3" style="fill:#C7C7C9;" width="59.4" height="83.1"/>
<rect id="_x32_p01007a" x="281.7" y="655.3" style="fill:#C7C7C9;" width="45.1" height="83.1"/>
<rect id="_x32_lt003" x="239.3" y="655.3" style="fill:#C7C7C9;" width="38.4" height="83.1"/>
<rect id="_x32_l01001" x="886.1" y="655.4" style="fill:#C7C7C9;" width="237.6" height="83.1"/>
<rect id="_x32_l01002" x="1127.7" y="655.4" style="fill:#C7C7C9;" width="63.5" height="83.1"/>
<rect id="_x32_u01001" x="1195.4" y="655.5" style="fill:#C7C7C9;" width="38.9" height="83"/>
<rect id="_x32_u01002" x="1238.4" y="655.5" style="fill:#C7C7C9;" width="38.9" height="83"/>
<rect id="_x32_u01003" x="1281.3" y="655.5" style="fill:#C7C7C9;" width="34.9" height="83"/>
<path id="_x32_u03016_1_" style="fill:#C7C7C9;" d="M103.2,576.8l-39.8,38.8l-43.6-43.3c10.4-15.2,21.5-30.8,33.5-46.5L103.2,576.8z
	"/>
<path id="_x32_u01017" style="fill:#C7C7C9;" d="M134.3,546.4l-29.1,28.4l-50-51.3c8.1-10.6,16.6-21.3,25.5-32.1L134.3,546.4z"/>
<path id="_x32_u03020" style="fill:#C7C7C9;" d="M168.3,513.3l-32,31.2l-53.9-55.2c0.8-1,1.5-1.9,2.3-2.8
	c9.1-10.9,18.1-21.3,27-31.1L168.3,513.3z"/>
<path id="_x32_u03019" style="fill:#C7C7C9;" d="M202.2,480.2l-32,31.2l-56.6-58c10.5-11.6,20.8-22.4,30.7-32.6L202.2,480.2z"/>
<path id="_x32_u03018" style="fill:#C7C7C9;" d="M240.1,443.1l-35.9,35.1l-58-59.4c12.6-12.8,24.7-24.4,36.1-35L240.1,443.1z"/>
<path id="_x32_u03017" style="fill:#C7C7C9;" d="M275,409.1l-33,32.2l-57.8-59.2c12.6-11.6,24.1-21.7,34.6-30.5L275,409.1z"/>
<path id="_x32_u03016" style="fill:#C7C7C9;" d="M337.1,348.5l-60.2,58.7l-56-57.5c10.3-8.6,19.3-16,26.9-21.7
	c13.9-10.8,27.3-20.9,40.1-29.9L337.1,348.5z"/>
<path id="_x32_u03015" style="fill:#C7C7C9;" d="M416.6,270.9L339,346.6l-49-50.2c38.5-27.2,71.4-46.8,93.7-59.3L416.6,270.9z"/>
<path id="_x32_u03014" style="fill:#C7C7C9;" d="M469.1,219.7L418.6,269l-32.3-33.2c1.5-0.9,3.1-1.6,4.5-2.5
	c7.1-3.9,14-7.6,20.8-11.1c14.4-7.4,28-14.1,40.5-19.9L469.1,219.7z"/>
<polygon id="bagno3_1_" style="fill:#C7C7C9;" points="253.5,540.4 189.5,604.9 159.9,575 225,511.2 "/>
<polygon id="p2ch03" style="fill:#C7C7C9;" points="302.6,490.9 256.5,537.5 228,508.4 274.8,462.5 "/>
<polygon id="_x32_u03022" style="fill:#C7C7C9;" points="351.6,441.5 305.5,488 277.8,459.6 324.6,413.9 "/>
<polygon id="_x32_u03023" style="fill:#C7C7C9;" points="396.4,396.4 354.6,438.6 327.5,410.9 370,369.4 "/>
<polygon id="_x32_u03024" style="fill:#C7C7C9;" points="443.9,348.4 399.3,393.4 372.9,366.6 418.4,322.2 "/>
<polygon id="_x32_u03025" style="fill:#C7C7C9;" points="491.6,300.4 446.9,345.5 421.2,319.3 466.7,274.9 "/>
<polygon id="p2ch03locserv" style="fill:#C7C7C9;" points="512.1,279.7 494.5,297.5 469.6,272.1 498,244.2 "/>
<polygon id="_x32_u01015" style="fill:#C7C7C9;" points="187.2,660 147.6,698.8 77.7,629.5 98,609.8 119.4,631.7 139.9,611.7 "/>
<polygon id="_x32_u01014" style="fill:#C7C7C9;" points="215.7,692.1 215.7,735.3 199.9,750.7 150.5,701.6 188.6,664.4 "/>
<path id="vanoscala1" style="fill:#C7C7C9;" d="M599,296.3V346c-17.9,7.7-35.8,15.3-53.5,23c-9-24.2-17.9-48.6-26.9-72.8L599,296.3
	L599,296.3z"/>
<polygon style="fill:#C7C7C9;" points="717.2,655.5 717.2,740 687.6,740 655.3,655.5 "/>
<rect x="537.8" y="43.4" style="fill:#C7C7C9;" width="78.2" height="56.7"/>
</svg>
