<?xml version="1.0" encoding="utf-8"?>
<!-- Generator: Adobe Illustrator 22.1.0, SVG Export Plug-In . SVG Version: 6.00 Build 0)  -->
<svg version="1.1" id="Ue4p1" xmlns="http://www.w3.org/2000/svg" xmlns:xlink="http://www.w3.org/1999/xlink" x="0px" y="0px"
	 viewBox="0 0 1657 910.2" style="enable-background:new 0 0 1657 910.2;" xml:space="preserve">
<g>
	<path style="fill:#D7D7DC;" d="M225.4,872.5V709.9h-79.8l-17-17.5l-1.4-1.4l-69.3-71.4l-0.9-1l-45.4-46.9l3.6-4.2
		c0.1-0.1,0.4-0.5,0.6-0.8c0.2-0.3,0.4-0.7,0.6-1c6.3-9.4,14.8-21.9,24.4-35.1l4.1-5.7l0,0c6.2-8.5,13.1-17.5,20.8-27.3l0.2-0.3
		l0.2-0.2c0-0.1,0.1-0.1,0.1-0.2c0.2-0.3,0.5-0.7,0.9-1.1c0.2-0.3,0.5-0.6,0.7-0.9c0.2-0.3,0.4-0.6,0.6-0.8l0.1-0.2l0.1-0.2
		c0.1-0.1,0.2-0.3,0.3-0.4c0.3-0.3,0.6-0.8,1-1.3c7.3-9.4,15.7-19.6,25.7-31.3l0.2-0.2c0.4-0.5,0.8-1,1.4-1.6l0.7-0.7
		c0.1-0.1,0.3-0.3,0.4-0.5c0.2-0.2,0.3-0.4,0.5-0.6l0.2-0.2c11.2-12.9,21.7-24.5,32.1-35.4l1.4-1.4c0.2-0.2,0.5-0.5,0.9-0.9
		c9-9.3,20.9-21.5,33.8-33.9c0.1-0.1,0.3-0.2,0.4-0.4c0.4-0.6,1-1.1,1.5-1.5c0.2-0.2,0.4-0.4,0.7-0.6c10.2-9.8,20.5-19.2,30.7-28.2
		c0.4-0.4,0.8-0.7,1.1-0.9c0.1-0.1,0.2-0.2,0.4-0.3l0.4-0.4l0.3-0.2l0.3-0.3l0.5-0.4c0.4-0.3,0.7-0.6,0.9-0.8l0.1-0.1l0.1-0.1
		c19.4-17,40.3-33.8,62.1-50c0.6-0.5,1.1-0.9,1.5-1.1c0.1,0,0.1-0.1,0.2-0.1c1.3-1.1,2.6-2,3.7-2.8c0.5-0.4,0.9-0.7,1.2-0.9
		c0.1-0.1,0.2-0.1,0.3-0.2l0.1-0.1l0.2-0.1c14.8-10.8,30.5-21.6,46.7-32.1c0.5-0.4,0.9-0.6,1.3-0.8c0.1,0,0.1-0.1,0.2-0.1l0.3-0.2
		l0.4-0.2c1-0.6,2-1.2,3-1.8c1-0.6,2-1.2,3.1-1.8c0.4-0.2,0.8-0.5,1.2-0.7c0.2-0.1,0.5-0.3,0.6-0.4l0.1-0.1l0.2-0.1
		c33.7-19.7,66.8-38.9,101.2-55.9c20.6-10.1,39.5-18.6,57.7-26c29.5-11.8,54.1-20.6,77.3-27.9c0.6-0.2,1.1-0.3,1.7-0.5
		c0.5-0.1,1-0.3,1.5-0.4l0.8-0.3h0.2c39.7-12.5,81.4-23,123.9-31.3l0.2,0c0.2,0,0.5-0.1,0.7-0.1c0.4-0.1,0.9-0.2,1.3-0.3l0.4-0.1
		c0.1,0,0.1,0,0.2,0c0.4-0.1,1-0.3,1.7-0.3c0.1,0,0.3-0.1,0.5-0.1c0.4-0.1,0.8-0.2,1.1-0.2c0.2-0.1,0.5-0.1,0.8-0.2
		c14.1-2.6,28.1-5,42.8-7.3l0.2,0l0.2,0c1-0.1,2-0.3,2.9-0.4l0.2,0c15.2-2.4,29.2-4.2,41.2-5.7c0.6-0.1,1.2-0.2,1.7-0.3
		c0.5-0.1,0.9-0.1,1.4-0.2l0.5-0.1h0.2c0.3,0,1.5-0.3,1.5-0.3l0.2,0c0.6-0.1,1.2-0.1,1.7-0.2l0.7-0.1c0.3,0,0.6-0.1,1-0.1
		c0.3,0,0.6-0.1,0.9-0.1l0.2,0l0.2,0c2.9-0.3,5.8-0.7,8.6-1c3.4-0.4,6.7-0.8,10-1.1l1.7-0.2c4.9-0.5,9.6-1.1,14.3-1.5
		c1.3-0.2,2.5-0.3,3.8-0.4c14.3-1.3,27.8-2.3,41.3-3c0.6-0.1,1.3-0.1,1.9-0.1c0.5,0,1,0,1.5-0.1l0.1,0l0.1,0c1.3,0,2.6-0.1,3.9-0.2
		c1.4-0.1,2.8-0.2,4.2-0.2l0.2,0c0.2,0,0.4,0,0.6,0c0.5,0,1-0.1,1.4-0.1c0.5,0,0.9,0,1.3,0c0.6,0,1.2-0.1,1.9-0.1c0.2,0,0.4,0,0.6,0
		c0.4,0,0.9-0.1,1.3-0.1c8.4-0.4,16.8-0.6,25.7-0.8c2.3-0.1,4.7-0.1,7.1-0.2c1.4-0.1,2.6-0.1,3.8-0.1c1,0,2.1,0,3.1,0
		c1.2,0,2.4-0.1,3.6-0.1h2c1.1,0,2.1,0,3-0.1l0.2,0h2.3l16.4-0.2c16.4-0.2,34.3-0.3,54.2-0.5c2.5,0,5.1,0,7.6-0.1
		c2.5,0,5.1-0.1,7.6-0.1h8.1c12.7,0,24.6,0,36.8,0.1h16.5c14,0.1,27.4,0.3,41.1,0.6h1.9c0.6,0,1.3,0,1.9,0.1c0.5,0,0.9,0,1.4,0
		l3.5,0c4.2,0.1,8.3,0.2,12.4,0.3c8.6,0.2,17.4,0.4,25.9,0.6c0.6,0,1.4,0,2.3,0.1c1.5,0,2.8,0.1,4,0.2l0.5,0c0.4,0,0.9,0,1.4,0.1
		c0.2,0,0.4,0,0.6,0l0.8,0c13.1,0.4,24.8,0.8,36.5,1.3c0.4,0,0.8,0,1.3,0.1c0.2,0,0.4,0,0.6,0l0.2,0l0.2,0c0.7,0,1.3,0.1,2,0.1
		c0.7,0,1.4,0.1,2.2,0.1h0.6c0.4,0,0.9,0,1.4,0.1c0.2,0,0.4,0,0.6,0h0.7l0.1,0c13.7,0.5,26.9,1.2,40.4,1.9c0.4,0,0.8,0,1.2,0.1
		c0.2,0,0.4,0,0.6,0l0.3,0c1.7,0.1,3.6,0.2,5.4,0.3h0c0.4,0,0.9,0,1.4,0.1c0.2,0,0.3,0,0.5,0c0.6,0,1.1,0,1.4,0.1l0.2,0h0.2l0.1,0
		c3.3,0.2,6.5,0.4,9.8,0.5c9.1,0.5,17.7,1,26.2,1.6c0.4,0,0.8,0,1.2,0.1c0.2,0,0.4,0,0.6,0c1.4,0,2.7,0.1,3.8,0.2
		c0.5,0,1,0.1,1.4,0.1l0.5,0l0.2,0.1c0.4,0,0.8,0,1.3,0.1c0.2,0,0.4,0,0.6,0l1,0l0.4,0.1c13.8,0.8,27.4,1.7,40.2,2.7
		c0.5,0,0.9,0,1.5,0.1c2,0.1,3.9,0.3,5.8,0.4l0.3,0h0.3c0.6,0,1,0.1,1.3,0.1c0.6,0,1.3,0,2.2,0.1c15,1,29.6,2.2,43.2,3.4l5.6,0.5
		l-1.6,89.4v0.6l-0.1,2.9l-0.5,27.4l-0.9,50.2l-0.1,2l-0.5,27.5l-0.1,3.3l-0.5,27.5v7.4H605.5v5.8l-3.3,1.7
		c-0.7,0.3-1.3,0.6-1.9,0.8c-0.1,0-0.2,0.1-0.3,0.1c-0.2,0.1-0.3,0.2-0.5,0.2c-0.6,0.3-1.2,0.5-1.7,0.7c-0.3,0.1-0.5,0.2-0.7,0.3
		c-0.5,0.3-1,0.5-1.5,0.7c-0.7,0.3-1.3,0.5-1.9,0.8c-0.8,0.3-1.6,0.7-2.5,1c-4.6,1.9-9.2,3.8-13.8,5.7c-4.6,1.9-9.3,3.8-13.9,5.7
		c-7,2.8-12.6,5.1-17.7,7.3l-5.6,2.4l-2.3-5.7c-1.3-3.3-2.6-6.6-3.9-9.8c-1.3-3.3-2.5-6.5-3.8-9.8c-3-7.9-6.2-16-9.8-25l-0.4-1.1v0
		c-1.6-4.2-3.3-8.3-4.9-12.5c-1.7-4.4-3.4-8.9-5.2-13.2c-0.7-1.7-1.3-3.4-2-5c-0.3-0.8-0.6-1.5-0.9-2.3
		c-5.5,5.5-11.2,11.1-16.8,16.7l-1.5,1.5l-45.4,45.1l-1.5,1.5c-10.1,10.1-20.4,20.3-30.3,30.2c-5,5-10.1,10-15.1,15l-1.5,1.5
		c-16.2,16-32.6,32.3-48.8,48.5l49.2,195.8h150.2l1.7,6.4l18.7,73.4l1.7,6.9l1.9,7.3l12,47l20.8,83.8H225.4z"/>
	<path style="fill:#9E9D9C;" d="M1043,94.7c12.4,0,24.6,0,36.7,0.1h16.6c13.9,0.1,27.5,0.3,41,0.6h2c1.1,0,2.2,0.1,3.3,0.1h3.4
		c13,0.3,25.9,0.5,38.4,0.9c0.6,0,1.3,0,2,0.1c1.5,0,2.8,0.1,4.2,0.2h0.7c0.6,0,1.4,0.1,2,0.1h0.6c12.4,0.4,24.6,0.8,36.5,1.3
		c0.6,0,1.4,0.1,2,0.1c1.5,0.1,2.9,0.1,4.4,0.2h0.8c0.6,0,1.4,0.1,2,0.1h0.6c13.9,0.5,27.3,1.2,40.4,1.9c0.6,0,1.4,0.1,2,0.1
		c1.8,0.1,3.7,0.2,5.6,0.3c0.1,0,0.1,0,0.2,0c0.6,0,1.3,0.1,1.9,0.1c0.6,0,1.1,0.1,1.6,0.1c12.4,0.7,24.4,1.3,36.1,2.1
		c0.6,0,1.4,0.1,2,0.1c1.7,0,3.3,0.2,4.9,0.3c0.4,0.1,0.6,0.1,1,0.1c0.6,0,1.4,0.1,2,0.1c0.3,0.1,0.5,0.1,0.8,0.1
		c14,0.8,27.5,1.7,40.5,2.7c0.4,0,0.6,0,1,0.1c2.2,0.1,4.3,0.3,6.5,0.5h0.6c0.4,0,0.6,0.1,1,0.1c0.6,0,1.2,0,1.8,0.1
		c15,1,29.3,2.2,43.3,3.4l-1.5,83.8v0.5l-0.1,2.8l-0.5,27.5l-0.9,50l-0.1,2.1l-0.5,27.6l-0.1,3.2l-0.5,27.6v1.5H599.5v8.1
		c-0.6,0.3-1.4,0.5-2.1,0.8c-0.1,0-0.1,0.1-0.2,0.1c-1,0.5-2.1,0.8-3.1,1.3c-0.1,0.1-0.3,0.2-0.6,0.3c-1.6,0.6-3,1.3-4.6,1.9
		c-9.2,3.8-18.6,7.6-27.8,11.4c-6,2.4-11.9,4.8-17.8,7.3c-2.6-6.5-5.1-13.1-7.7-19.6c-3.2-8.3-6.5-16.7-9.8-25
		c0-0.1-0.1-0.2-0.1-0.3c-3.5-8.8-6.9-17.8-10.4-26.6c-1.1-2.9-2.3-5.7-3.4-8.5c-0.8-2-1.6-4-2.4-6l-0.5-1.2
		c-7.7,7.7-15.4,15.4-23.2,23.1l-1.5,1.5c-15.1,15-30.3,30.1-45.4,45.1l-1.5,1.5c-15.1,15.1-30.3,30.1-45.4,45.1l-1.5,1.5
		C373.4,416,356.3,433,339.3,450v0.1l0.7,2.7c16.8,66.9,33.6,133.8,50.4,200.7v0.1h150.3l0.5,1.9l18.7,73.4l1.7,6.9l1.9,7.4l12,47
		l18.9,76.3h-363V703.9h-83.3l-15.2-15.7l-1.5-1.5l-69.1-71.2l-1-1.1l-41.7-43c0.6-0.7,1.1-1.6,1.6-2.3c7.4-11,15.4-22.7,24.3-35
		l0.5,0.5L93.5,583l1.5-1.5L47.2,533l-0.5-0.5c7.3-10.1,15.2-20.5,23.6-31.2c0.5-0.5,0.8-1.1,1.3-1.6c0.5-0.7,1.1-1.4,1.6-2.1
		c0.5-0.6,0.8-1.1,1.3-1.6c8-10.2,16.6-20.6,25.7-31.3c0.5-0.6,0.9-1.1,1.4-1.6c0.2-0.1,0.4-0.3,0.5-0.5c0.5-0.5,0.9-1.1,1.3-1.6
		c10-11.5,20.6-23.3,31.9-35.2c0.1-0.1,0.3-0.3,0.5-0.5l0.9-0.9c0.2-0.2,0.3-0.4,0.5-0.5c10.8-11.2,22.1-22.7,34-34.1
		c0.3-0.3,0.6-0.5,0.9-0.9c0.1-0.2,0.3-0.4,0.5-0.5c0.4-0.3,0.6-0.6,1-0.9c9.8-9.4,20.1-18.9,30.8-28.3c0.5-0.5,1.1-0.9,1.6-1.4
		c0.3-0.2,0.5-0.4,0.8-0.7c0.6-0.5,1.1-0.9,1.6-1.4c19.3-16.9,39.9-33.5,62-49.9c0.5-0.5,1.1-0.8,1.6-1.2c1.2-1,2.5-1.9,3.7-2.7
		c0.5-0.5,1.1-0.8,1.7-1.3c14.9-10.9,30.5-21.6,46.6-32c0.5-0.4,1.2-0.7,1.7-1.1c2.1-1.2,4.1-2.5,6.2-3.7c0.6-0.4,1.4-0.8,2-1.2
		c33.3-19.5,66.5-38.7,100.8-55.7c18.7-9.2,37.7-17.9,57.3-25.8c25.3-10.1,50.8-19.6,76.8-27.7c1-0.3,2.1-0.6,3.1-0.9
		c0.1,0,0.1,0,0.2,0c44.7-14.1,86.6-24.1,124.1-31.4c0.6-0.1,1.4-0.3,2-0.4c0.4,0,0.6-0.1,1-0.2c0.4-0.1,0.6-0.2,1-0.2
		c0.6-0.1,1.4-0.3,2-0.4c0.2,0,0.3-0.1,0.5-0.1c15.1-2.8,29.4-5.2,42.9-7.3c1.2-0.1,2.4-0.3,3.5-0.5c14.8-2.3,28.6-4.1,41.2-5.7
		c1.1-0.2,2.2-0.3,3.3-0.5c0.1,0,0.2,0,0.2,0c0.5-0.1,1.2-0.2,1.8-0.3c1-0.1,1.8-0.2,2.7-0.3c0.6-0.1,1.4-0.2,2-0.3
		c6.5-0.7,12.6-1.5,18.5-2.1c5.5-0.6,10.9-1.2,16.2-1.7c1.2-0.2,2.3-0.3,3.5-0.4c13.9-1.3,27.4-2.3,41.2-3c1.2-0.1,2.3-0.1,3.5-0.2
		c2.7-0.1,5.4-0.3,8.1-0.4c0.6,0,1.4-0.1,2-0.1c1.1,0,2.1-0.1,3.2-0.1c0.6,0,1.4-0.1,2-0.1c10.6-0.5,21.4-0.7,32.9-1
		c1.2-0.1,2.3-0.1,3.5-0.1c2.2,0,4.4-0.1,6.7-0.1h2c1.2,0,2.3,0,3.5-0.1h2c20.7-0.2,43.8-0.4,70.7-0.7c5,0,10.1-0.1,15.1-0.1H1043
		 M1043,82.7h-8.1c-2.6,0-5.2,0-7.7,0.1c-2.5,0-5,0-7.4,0h-0.1l-0.1,0c-19.9,0.2-38.1,0.4-54.1,0.5L949,83.5h-1.9h-0.5l-0.5,0
		c-0.7,0.1-1.5,0.1-2.5,0.1h-2c-1.3,0-2.5,0-3.7,0.1c-1.1,0-2.1,0-3,0c-1.2,0-2.6,0-4.1,0.1c-2.3,0.1-4.7,0.1-7,0.2
		c-8.9,0.2-17.3,0.4-25.7,0.8c-0.6,0-1.1,0-1.5,0.1c-0.1,0-0.2,0-0.3,0c-0.8,0-1.5,0-2,0.1c-0.4,0-0.8,0-1,0c-0.7,0-1.4,0-1.9,0.1
		c-0.1,0-0.2,0-0.3,0h-0.1l-0.2,0c-1.5,0.1-2.9,0.1-4.3,0.2c-1.3,0.1-2.6,0.1-3.8,0.2l-0.3,0l-0.3,0c-0.4,0-0.8,0-1.3,0.1
		c-0.6,0-1.3,0.1-2,0.1c-13.5,0.7-27.1,1.7-41.5,3c-1.3,0.1-2.5,0.2-4,0.4c-4.7,0.4-9.5,1-14.2,1.5l-1.8,0.2
		c-3.3,0.3-6.6,0.7-10,1.1c-2.8,0.3-5.6,0.7-8.5,1l-0.3,0l-0.3,0.1c-0.2,0-0.5,0.1-0.7,0.1c-0.3,0-0.6,0.1-0.9,0.1l-0.6,0.1
		c-0.5,0.1-1,0.1-1.6,0.2l-0.4,0l-0.4,0.1l-0.5,0.1c-0.1,0-0.2,0-0.3,0.1h-0.3l-1.1,0.2c-0.3,0.1-0.7,0.1-1.1,0.2
		c-0.5,0.1-1.2,0.2-1.8,0.3c-12,1.5-26,3.3-41.2,5.7l-0.2,0l-0.2,0c-0.8,0.1-1.6,0.3-2.4,0.3l-0.4,0l-0.4,0.1
		c-14.7,2.3-28.7,4.7-42.8,7.3c-0.4,0.1-0.7,0.1-1.1,0.2c-0.4,0.1-0.8,0.2-1.1,0.2c0,0-0.1,0-0.1,0c-0.9,0.1-1.6,0.3-2.2,0.5l-0.1,0
		c-0.6,0.1-1.1,0.2-1.5,0.3c-0.2,0-0.3,0.1-0.5,0.1l-0.2,0l-0.1,0c-42.4,8.2-84,18.7-123.6,31.2h-0.1l-1.7,0.5
		c-0.5,0.1-0.9,0.3-1.4,0.4c-0.6,0.2-1.2,0.3-1.7,0.5l-0.1,0l-0.1,0c-23.3,7.3-48,16.2-77.7,28c-18.4,7.4-37.4,16-58.1,26.2
		c-34.5,17.1-67.7,36.3-101.6,56.1l-0.3,0.2l-0.2,0.2c-0.1,0.1-0.2,0.1-0.4,0.2c-0.4,0.2-0.8,0.5-1.3,0.8c-1.1,0.6-2.1,1.3-3.1,1.9
		c-1,0.6-1.9,1.2-2.8,1.7l-0.8,0.5l-0.3,0.2c-0.4,0.2-0.9,0.5-1.5,1c-16.3,10.5-32,21.4-46.8,32.2l-0.3,0.2l-0.1,0.1l-0.1,0
		c-0.3,0.2-0.8,0.6-1.4,1.1c-1.1,0.8-2.4,1.7-3.7,2.7c-0.4,0.3-1.1,0.7-1.9,1.4c-21.9,16.3-42.9,33.1-62.3,50.2l-0.3,0.3l-0.3,0.3
		c-0.1,0.1-0.3,0.3-0.5,0.4l-0.3,0.2l-0.4,0.3l0,0l-0.3,0.2l-0.7,0.7l-0.1,0.1c-0.3,0.3-0.8,0.7-1.3,1.2
		c-10.2,8.9-20.5,18.4-30.6,28.2c-0.2,0.2-0.4,0.4-0.6,0.6c-0.7,0.6-1.4,1.2-2,2c-0.1,0-0.1,0.1-0.2,0.1
		c-12.9,12.3-24.8,24.5-33.8,33.9c-0.5,0.5-0.9,0.9-1.2,1.2l-0.6,0.6l-0.2,0.2l-0.3,0.3l-0.1,0.1l-0.1,0.1
		c-10.4,11-21,22.6-32.3,35.6l-0.2,0.2l-0.2,0.2c-0.2,0.2-0.4,0.5-0.6,0.7c0,0-0.1,0.1-0.1,0.1l0,0l-1.1,1.1l-0.1,0.1
		c-0.4,0.4-0.7,0.8-1,1.2L91,457c-9.9,11.6-18.3,21.9-25.6,31.2c-0.6,0.6-1,1.2-1.3,1.5c-0.1,0.1-0.1,0.1-0.2,0.2l-0.3,0.3l-0.2,0.3
		c-0.1,0.2-0.3,0.4-0.5,0.6c-0.2,0.3-0.4,0.5-0.7,0.9c-0.4,0.4-0.7,0.8-0.9,1.1l-0.1,0.1l-0.4,0.6c-6.1,7.7-11.6,15-16.7,21.9
		l-0.1-0.1l-8.3,11.4c-9.6,13.2-18.1,25.8-24.5,35.2c-0.3,0.4-0.5,0.8-0.7,1.1c-0.1,0.1-0.2,0.2-0.2,0.4l-7,8.1l7.6,7.9l41.6,42.9
		l0.9,1l0.1,0.1l0.1,0.1l69.1,71.2l0.1,0.1l0.1,0.1l1.4,1.4l15.1,15.6l3.5,3.7h5.1h71.3v150.6v12h12h363h15.3l-3.7-14.9l-18.9-76.3
		l0,0l0,0l-12-47l-1.9-7.4l-1.7-6.8l0,0l0,0l-18.7-73.4l0,0l0,0l-0.5-1.9l-2.4-8.9h-9.3H399.8l-47.2-187.9
		c15.4-15.4,30.9-30.8,46.3-46l0,0l0,0l1.5-1.5c5-5,10-9.9,15-14.9c10-9.9,20.3-20.1,30.4-30.2l1.5-1.5l22.7-22.5l22.7-22.5l1.5-1.5
		c3.5-3.4,6.9-6.9,10.4-10.3c1.6,4,3.2,8.1,4.7,12c1.5,3.8,3,7.7,4.5,11.5v0.1l0.8,2.1c3.6,9,6.8,17.1,9.8,24.9l0,0.1l0,0.1
		c1.3,3.2,2.6,6.5,3.8,9.7c1.3,3.2,2.6,6.6,3.9,9.9l4.5,11.4l11.3-4.8c5.1-2.2,10.7-4.5,17.6-7.2l0.1,0l0.1,0
		c4.6-1.9,9.2-3.8,13.9-5.7c4.6-1.9,9.2-3.8,13.8-5.6c1-0.4,1.9-0.8,2.7-1.1c0.6-0.3,1.1-0.5,1.6-0.7c0.7-0.3,1.4-0.6,2.1-0.9
		c0.1,0,0.1,0,0.2-0.1h0l0.3-0.1c0.5-0.2,1-0.4,1.6-0.7c0.2-0.1,0.4-0.1,0.5-0.2c0.6-0.2,1.5-0.5,2.6-1l6.6-3.3v-3.5h817.7h12v-12
		v-1.4l0.5-27.4l0.1-3.1l0-0.1l0-0.1l0.5-27.4l0.1-1.9l0-0.2l0-0.2l0.9-50l0.5-27.4l0.1-2.7l0-0.2V195v-0.4l1.5-83.7l0.2-11.2
		l-11.2-1c-13.6-1.2-28.1-2.4-43.1-3.4c-0.9-0.1-1.7-0.1-2.3-0.2c-0.5-0.1-1.1-0.1-1.7-0.1h-0.1c-1.8-0.2-3.7-0.3-5.7-0.4
		c-0.7-0.1-1.3-0.1-1.8-0.1c-12.6-1-25.8-1.9-39.4-2.6l-0.5-0.2h-1.8c-0.1,0-0.2,0-0.3,0c-0.2,0-0.5,0-0.9-0.1l-0.1,0l-1.1-0.1
		c-0.4,0-0.9-0.1-1.3-0.1c-1.2-0.1-2.6-0.2-4.2-0.2c-0.1,0-0.2,0-0.3,0c-0.4,0-0.8-0.1-1.3-0.1c-8.6-0.6-17.1-1.1-26.2-1.5
		c-3.2-0.2-6.5-0.4-9.8-0.5l-0.3,0h0c-0.4,0-1-0.1-1.8-0.1c-0.1,0-0.1,0-0.2,0c-0.4,0-1-0.1-1.7-0.1c-1.8-0.1-3.6-0.2-5.3-0.3
		l-0.3,0h-0.2c-0.1,0-0.2,0-0.3,0c-0.4,0-0.9-0.1-1.4-0.1c-13.5-0.7-26.7-1.4-40.4-1.9l-0.2,0h-0.2h-0.5c-0.1,0-0.2,0-0.3,0
		c-0.5,0-1.1-0.1-1.9-0.1h-0.4c-0.8,0-1.5-0.1-2.2-0.1c-0.6,0-1.3,0-1.8-0.1l-0.4,0h-0.3c-0.1,0-0.2,0-0.3,0c-0.4,0-0.9-0.1-1.5-0.1
		c-11.6-0.5-23.4-0.9-36.4-1.3l-0.2,0h-0.2h-0.5c-0.1,0-0.2,0-0.3,0c-0.5,0-1.1-0.1-1.9-0.1h-0.3c-1.2-0.1-2.4-0.2-3.9-0.2
		c-1-0.1-1.9-0.1-2.5-0.1c-8.5-0.3-17.4-0.5-25.9-0.6c-4.1-0.1-8.3-0.2-12.4-0.3l-0.1,0h-0.1h-3.4c-0.3,0-0.7,0-1.1,0
		c-0.6,0-1.4-0.1-2.2-0.1h-1.9c-13.7-0.3-27.1-0.5-41-0.6l0,0h0h-16.5C1067.6,82.7,1055.7,82.7,1043,82.7L1043,82.7z"/>
</g>
<path style="fill:#C7C7C9;" d="M95.5,581.3l-1.5,1.5l-47.5-48.3L46,534c0.4-0.5,0.8-1.2,1.2-1.7l0.5,0.5L95.5,581.3z"/>
<g>
	<path style="fill:#D7D7DC;" d="M729.4,872.6l-1.5-3.9c-3.9-10.1-7.7-20.3-11.6-30.4c-6.2-16.3-12.4-32.6-18.6-48.9l-0.4-1v-0.1
		l-2.9-7.7c-4-10.6-8.2-21.5-12.4-32.2l-0.4-1.1v0c0-0.1,0-0.1-0.1-0.2l-33.4-87.5c-0.5-1.5-0.9-2.5-1.4-3.5l-3.9-8.5h961.6l0.8,5
		c0.1,0.6,0.1,1.1,0.2,1.6c0,0.2,0,0.3,0,0.5l0,0.2l0,0.2c2.3,25.3,4.7,52.1,7,78.6l0.1,0.1l4.4,49c0,0.6,0.1,1.3,0.2,1.9
		c0.1,0.7,0.2,1.4,0.2,2.1l6.9,76.1c0.1,1.2,0.2,2.2,0.3,3.1l0.7,6.6H729.4z"/>
	<path style="fill:#9E9D9C;" d="M1599.3,653.7c0.1,0.6,0.1,1.4,0.2,2c2.4,26.7,4.8,53.5,7.1,80.3c0,0.2,0,0.4,0.1,0.5
		c1.4,15.6,2.8,31.1,4.2,46.7c0.1,1.4,0.3,2.7,0.4,4c2.3,25.4,4.6,50.8,6.9,76.2c0.1,1.2,0.2,2.2,0.3,3.2h-885
		c-10.1-26.5-20.1-52.9-30.2-79.3v-0.1c-5.2-13.6-10.4-27.3-15.7-40.9c0,0,0,0,0-0.1c-0.1-0.4-0.3-0.7-0.5-1.2
		c-0.8-2.1-1.6-4.2-2.4-6.3c-10.3-27-20.6-54-30.9-81c-0.5-1.4-1-2.7-1.6-4H1599.3 M1609.5,641.7h-10.2H652.2h-18.8l7.9,17
		c0.4,0.8,0.7,1.7,1.2,3l0,0.1l0,0.1l30.9,81l2.1,5.5v0l0.8,2.1c4.1,10.6,8.3,21.5,12.3,32c0.9,2.3,1.7,4.5,2.6,6.8v0.1l0.8,2.1
		c6.2,16.3,12.5,32.9,18.6,48.9c3.8,10.1,7.7,20.2,11.6,30.4l2.9,7.7h8.3h885h13.3l-1.3-13.2c-0.1-0.9-0.2-1.9-0.3-3l0,0l0,0
		l-6.9-76.1c-0.1-0.8-0.1-1.5-0.2-2.2c-0.1-0.6-0.1-1.2-0.2-1.6l0-0.1l0-0.1c-0.7-7.8-1.4-15.6-2.1-23.4c-0.7-7.8-1.4-15.5-2.1-23.3
		l-0.4-4.3l0,0c-2.2-25.5-4.5-50.7-6.8-76.4l0-0.5l0-0.2c0,0,0-0.1,0-0.1c0-0.5-0.1-1.3-0.2-2.1L1609.5,641.7L1609.5,641.7z"/>
</g>
<rect id="ascensore8_1_" x="754.6" y="653.8" style="fill:#C7C7C9;" width="24.3" height="33.2"/>
<rect id="p1lt05" x="754.6" y="689.1" style="fill:#C7C7C9;" width="24.3" height="58.2"/>
<rect id="ascensore7_1_" x="542.5" y="259.1" style="fill:#C7C7C9;" width="54.9" height="34.4"/>
<rect id="_x31_lt002" x="542.5" y="222.5" style="fill:#C7C7C9;" width="54.9" height="34.4"/>
<rect id="p1ch02lab01" x="681.4" y="233.2" style="fill:#C7C7C9;" width="63.5" height="104.6"/>
<rect id="bagno2" x="600.8" y="233.2" style="fill:#C7C7C9;" width="77.2" height="104.6"/>
<path id="_x31_r02001" style="fill:#C7C7C9;" d="M699.8,119.8v74.8H572.5V152c44.4-14.1,86-24.1,123.4-31.4c0.6-0.1,1.4-0.3,2-0.4
	C698.4,120.1,699.1,120,699.8,119.8z"/>
<path id="_x31_u02007" style="fill:#C7C7C9;" d="M746.2,112.3v82.3h-42.9v-75C718.3,116.7,732.6,114.4,746.2,112.3z"/>
<path id="_x31_u02008" style="fill:#C7C7C9;" d="M790.7,106.1v88.6h-41.2v-83C764.4,109.5,778.1,107.7,790.7,106.1z"/>
<path id="_x31_u02009" style="fill:#C7C7C9;" d="M835.4,101v93.6h-41.2v-89c0.6-0.1,1.3-0.2,1.8-0.3c0.9-0.1,1.7-0.2,2.7-0.3
	c0.6-0.1,1.4-0.2,2-0.3c6.5-0.7,12.6-1.5,18.5-2.1C824.7,102.1,830.1,101.5,835.4,101z"/>
<path id="_x31_u02010" style="fill:#C7C7C9;" d="M880,97.6v97h-41.2v-93.9C852.7,99.3,866.2,98.4,880,97.6z"/>
<path id="_x31_u02011" style="fill:#C7C7C9;" d="M931.5,95.8v98.8h-48.1V97.4c2.7-0.1,5.3-0.3,8.1-0.4c0.6,0,1.4-0.1,2-0.1
	c1.1,0,2.1-0.1,3.2-0.1c0.6,0,1.4-0.1,2-0.1C909.1,96.3,920,96.1,931.5,95.8z"/>
<path id="_x31_u02012-13" style="fill:#C7C7C9;" d="M1039.6,94.5v100H934.9V95.2c23.7-0.3,50-0.5,80.6-0.7c5.8,0,11.4-0.1,17.2-0.1
	h2.3C1036.6,94.5,1038.1,94.5,1039.6,94.5z"/>
<polygon id="_x31_u02014" style="fill:#C7C7C9;" points="1092.8,94.8 1092.8,194.7 1043,194.7 1043,94.7 "/>
<path id="_x31_u02015" style="fill:#C7C7C9;" d="M1142.6,95.5v99h-46.3V94.8c14,0.2,27.5,0.4,41,0.6h2
	C1140.4,95.4,1141.5,95.5,1142.6,95.5z"/>
<path id="_x31_u02016" style="fill:#C7C7C9;" d="M1190.6,96.7v97.8H1146v-99c13.1,0.3,25.9,0.5,38.4,0.9c0.6,0,1.3,0,2,0.1
	C1187.8,96.5,1189.2,96.6,1190.6,96.7z"/>
<path id="_x31_u02017" style="fill:#C7C7C9;" d="M1236.9,98.3v96.2H1194V96.8c12.4,0.4,24.6,0.8,36.5,1.3c0.6,0,1.4,0.1,2,0.1
	C1234,98.2,1235.5,98.2,1236.9,98.3z"/>
<path id="_x31_u02018" style="fill:#C7C7C9;" d="M1288.5,100.7v93.8h-48.1V98.4c13.8,0.5,27.3,1.2,40.4,1.9c0.6,0,1.4,0.1,2,0.1
	C1284.6,100.5,1286.4,100.6,1288.5,100.7C1288.4,100.7,1288.4,100.7,1288.5,100.7z"/>
<path id="_x31_u02019" style="fill:#C7C7C9;" d="M1334.8,103.5v91.2h-42.9V101c12.4,0.7,24.3,1.3,36.1,2.1c0.6,0,1.4,0.1,2,0.1
	C1331.5,103.2,1333.1,103.3,1334.8,103.5z"/>
<polygon id="_x31_u02020" style="fill:#C7C7C9;" points="1386.7,107 1386.7,195 1338.6,195 1338.6,103.6 "/>
<path id="_x31_u02021" style="fill:#C7C7C9;" d="M1433,110.6l-1.5,83.8v0.5h-41.4v-87.6C1405.1,108.3,1419.4,109.5,1433,110.6z"/>
<rect id="_x31_l02002" x="748.3" y="233.2" style="fill:#C7C7C9;" width="63.5" height="104.6"/>
<rect id="_x31_l02003" x="815.3" y="233.2" style="fill:#C7C7C9;" width="127" height="104.6"/>
<rect id="_x31_l02004" x="945.7" y="233.2" style="fill:#C7C7C9;" width="61.8" height="104.6"/>
<rect id="_x31_l02005" x="1010.9" y="233.2" style="fill:#C7C7C9;" width="61.8" height="104.6"/>
<rect id="_x31_l02006" x="1076.1" y="233.2" style="fill:#C7C7C9;" width="63.5" height="104.6"/>
<rect id="_x31_l02007" x="1143" y="233.2" style="fill:#C7C7C9;" width="63.2" height="104.6"/>
<rect id="_x31_l02008" x="1209.9" y="233.2" style="fill:#C7C7C9;" width="61.8" height="104.6"/>
<rect id="_x31_l02009" x="1275.2" y="233.2" style="fill:#C7C7C9;" width="61.8" height="104.6"/>
<rect id="vanoscale2" x="1340.3" y="233.2" style="fill:#C7C7C9;" width="35.6" height="71.3"/>
<path id="p1locserb19" style="fill:#C7C7C9;" d="M391.1,399.4c-17,16.9-34.1,33.9-51.2,50.9l0,0l-33.8-34.4l50.8-51.3L391.1,399.4z"
	/>
<polygon id="_x31_k002" style="fill:#C7C7C9;" points="300.8,490.2 255,536.4 220.8,501.5 266.6,455.4 "/>
<polygon id="bagno3b" style="fill:#C7C7C9;" points="253.6,537.8 226.3,565.2 192.2,530.4 219.4,503 "/>
<polygon id="bagno3c" style="fill:#C7C7C9;" points="224.9,566.7 207,584.7 184.9,562.2 202.9,544.2 "/>
<polygon id="_x31_u006" style="fill:#C7C7C9;" points="171,648.2 132.6,686.9 63.5,615.6 79.4,599.6 103.8,624.5 125.9,602.2 "/>
<polygon id="bagno3a" style="fill:#C7C7C9;" points="205.6,586.2 177.7,614.3 140.6,576.6 168.6,548.5 "/>
<path id="_x31_u018" style="fill:#C7C7C9;" d="M437.8,352.8c-15.1,15.1-30.3,30.1-45.4,45.1L358.3,363l45.1-45.5L437.8,352.8z"/>
<path id="_x31_u017" style="fill:#C7C7C9;" d="M484.7,306.2c-15.1,15-30.3,30.1-45.4,45.1l-34.5-35.1l45.1-45.5L484.7,306.2z"/>
<path id="p1locserv16" style="fill:#C7C7C9;" d="M509.4,281.7c-7.8,7.7-15.5,15.4-23.2,23.1l-34.9-35.5l38.3-38.5L509.4,281.7z"/>
<path id="_x31_u007" style="fill:#C7C7C9;" d="M94.1,582.8l-31.6,31.9l-41.7-43c0.5-0.7,1-1.6,1.6-2.3c7.2-11,15.4-22.6,24.3-34.9
	L94.1,582.8z"/>
<path id="_x31_u008_1_" style="fill:#C7C7C9;" d="M122.8,553.9l-27.3,27.5l-47.7-48.6c7.3-10.1,15.2-20.5,23.6-31.2L122.8,553.9z"/>
<path id="_x31_u009" style="fill:#C7C7C9;" d="M155.8,520.5l-31.6,31.9l-51.6-52.6c0.5-0.7,1.1-1.4,1.6-2.1c0.5-0.5,0.8-1,1.3-1.6
	c8.1-10.2,16.7-20.6,25.7-31.3L155.8,520.5z"/>
<path id="_x31_u010" style="fill:#C7C7C9;" d="M192.6,483.5L157.3,519l-54.6-55.7c0.2-0.2,0.4-0.4,0.5-0.5c0.5-0.5,0.9-1,1.3-1.6
	c10-11.5,20.6-23.3,31.9-35.2L192.6,483.5z"/>
<path id="_x31_u011" style="fill:#C7C7C9;" d="M229.4,446.4L194.1,482l-56.4-57.5c0.2-0.2,0.3-0.4,0.5-0.5
	c10.7-11.3,22.1-22.7,34-34.1c0.3-0.3,0.6-0.5,0.9-0.9L229.4,446.4z"/>
<path id="_x31_u012" style="fill:#C7C7C9;" d="M262.5,413l-31.6,31.9l-56.3-57.4c9.9-9.4,20.1-18.9,30.8-28.3c0.5-0.5,1-0.9,1.6-1.4
	c0.3-0.3,0.5-0.5,0.8-0.7L262.5,413z"/>
<polygon id="_x31_u013" style="fill:#C7C7C9;" points="276.6,302.1 324.2,350.7 263.9,411.5 209.4,355.8 "/>
<path id="_x31_u014" style="fill:#C7C7C9;" d="M371.3,303.3l-45.6,45.9l-47.5-48.4c14.9-10.9,30.5-21.6,46.6-32
	c0.5-0.4,1.2-0.7,1.7-1.1c2.1-1.2,4.1-2.5,6.2-3.7L371.3,303.3z"/>
<path id="_x31_u015" style="fill:#C7C7C9;" d="M442.9,231.3L373,301.8l-38.2-39c33.2-19.6,66.4-38.7,100.8-55.7L442.9,231.3z"/>
<polygon id="_x31_u005" style="fill:#C7C7C9;" points="231.8,664 231.7,704 149.2,704 134.1,688.4 195.3,626.7 "/>
<polygon id="_x31_r001" style="fill:#C7C7C9;" points="334.7,626.3 342.1,653.8 266.2,653.8 204.2,590.5 260.2,534 300.8,493.1 
	308.5,525.7 319.3,517.7 327.7,552.5 334.9,549.6 344,588 337.6,590.2 346.1,624.9 "/>
<rect id="vanoscala5_1_" x="232.5" y="780.3" style="fill:#C7C7C9;" width="46.9" height="68.6"/>
<rect id="ascensore6_1_" x="342.7" y="841.7" style="fill:#C7C7C9;" width="33.3" height="24.9"/>
<rect id="_x31_u004" x="378.1" y="790.5" style="fill:#C7C7C9;" width="74.7" height="76.1"/>
<rect id="_x31_u003" x="454.8" y="790.5" style="fill:#C7C7C9;" width="43.4" height="76.1"/>
<rect id="_x31_u002" x="500.2" y="790.5" style="fill:#C7C7C9;" width="40.4" height="76.1"/>
<rect id="ascensore5_1_" x="310.4" y="797.7" style="fill:#C7C7C9;" width="32.3" height="41.9"/>
<rect x="310.4" y="780.3" style="fill:#C7C7C9;" width="32.3" height="15.4"/>
<rect id="_x31_lt004" x="344.7" y="780.3" style="fill:#C7C7C9;" width="31.3" height="59.4"/>
<polygon id="_x31_u001" style="fill:#C7C7C9;" points="595.7,866.6 542.6,866.6 542.6,790.5 576.3,790.5 "/>
<rect id="_x31_k001" x="391.4" y="653.9" style="fill:#C7C7C9;" width="92.6" height="89.6"/>
<polygon id="bagno4_1_" style="fill:#C7C7C9;" points="541.5,653.9 486.2,653.9 486.2,743.5 564.3,743.5 "/>
<path id="_x31_l01009" style="fill:#C7C7C9;" d="M781.8,787.2v79.3h-48.2c-10.1-26.4-20.1-52.8-30.2-79.2v-0.1H781.8z"/>
<rect id="_x31_l01008" x="783.8" y="787.2" style="fill:#C7C7C9;" width="98.9" height="79.3"/>
<rect id="_x31_l01007" x="884.7" y="787.2" style="fill:#C7C7C9;" width="92.9" height="79.3"/>
<rect id="_x31_l01006" x="979.7" y="787.2" style="fill:#C7C7C9;" width="92.9" height="79.3"/>
<rect id="_x31_l01005" x="1074.5" y="787.2" style="fill:#C7C7C9;" width="102" height="79.3"/>
<rect id="_x31_u0109" x="1178.4" y="787.2" style="fill:#C7C7C9;" width="61.6" height="79.3"/>
<rect id="_x31_u0108" x="1242.1" y="787.2" style="fill:#C7C7C9;" width="52.4" height="79.3"/>
<rect id="_x31_u0107" x="1296.6" y="787.2" style="fill:#C7C7C9;" width="41.4" height="79.3"/>
<rect id="_x31_u0106" x="1340" y="787.2" style="fill:#C7C7C9;" width="51.4" height="79.3"/>
<rect id="_x31_u0105" x="1393.4" y="787.2" style="fill:#C7C7C9;" width="42.4" height="79.3"/>
<rect id="_x31_u0104" x="1437.8" y="787.2" style="fill:#C7C7C9;" width="45.4" height="79.3"/>
<rect id="_x31_u02006" x="1485.3" y="787.2" style="fill:#C7C7C9;" width="48.4" height="79.3"/>
<rect id="_x31_u02005" x="1535.8" y="787.2" style="fill:#C7C7C9;" width="45.4" height="79.3"/>
<path id="_x31_u02003" style="fill:#C7C7C9;" d="M1607.4,736.5h-71.7v-82.8h64.3c0.1,0.6,0.1,1.4,0.2,2c2.4,26.7,4.8,53.5,7.2,80.3
	C1607.4,736.2,1607.4,736.4,1607.4,736.5z"/>
<path id="_x31_u02004" style="fill:#C7C7C9;" d="M1619,866.4h-35.9v-79.3h28.7c2.3,25.4,4.6,50.8,6.9,76.2
	C1618.9,864.4,1618.9,865.4,1619,866.4z"/>
<rect id="_x31_u02002" x="1486.3" y="653.8" style="fill:#C7C7C9;" width="47.4" height="82.8"/>
<rect id="_x31_u02001" x="1439.8" y="653.8" style="fill:#C7C7C9;" width="44.4" height="82.8"/>
<rect id="vanoscale3" x="1388.4" y="679.4" style="fill:#C7C7C9;" width="49.4" height="67.9"/>
<rect id="_x31_lt007" x="1321.8" y="720.4" style="fill:#C7C7C9;" width="30.3" height="26.9"/>
<rect id="ascensore4_1_" x="1321.8" y="653.8" style="fill:#C7C7C9;" width="29.3" height="30"/>
<rect id="ascensore3_1_" x="1321.8" y="684.8" style="fill:#C7C7C9;" width="29.3" height="33.4"/>
<rect id="_x31_U0103" x="1283.4" y="653.8" style="fill:#C7C7C9;" width="36.3" height="93.5"/>
<rect id="_x31_U0102" x="1242.1" y="653.8" style="fill:#C7C7C9;" width="39.4" height="93.5"/>
<rect id="_x31_U0101" x="1192.6" y="653.8" style="fill:#C7C7C9;" width="47.4" height="93.5"/>
<rect id="_x31_l01004" x="1143.1" y="653.8" style="fill:#C7C7C9;" width="47.4" height="93.5"/>
<polygon id="_x31_l01002" style="fill:#C7C7C9;" points="1090.7,653.8 1090.7,684.8 1072.5,684.8 1072.5,747.3 990.7,747.3 
	990.7,653.8 "/>
<polygon id="_x31_l01003" style="fill:#C7C7C9;" points="1141.1,653.8 1141.1,747.3 1092.7,747.3 1092.7,747.3 1074.5,747.3 
	1074.5,687 1092.7,687 1092.7,653.8 "/>
<rect id="_x31_l01001" x="888.8" y="653.8" style="fill:#C7C7C9;" width="99.9" height="93.5"/>
<rect id="p1lt06" x="849.4" y="709.6" style="fill:#C7C7C9;" width="37.3" height="37.7"/>
<path id="_x31_c003" style="fill:#C7C7C9;" d="M391,653.8L391,653.8h-46.1l-7.1-25l11.1-1l-8.1-35.8l6-2.1l-11.1-44l-6,3.1
	l-9.1-34.8l-11.1,8.1l-7-30.7l38.2-38.7C357.4,519.9,374.2,586.8,391,653.8z"/>
<rect id="_x31_lt001" x="1402.1" y="248.3" style="fill:#C7C7C9;" width="24.1" height="37.8"/>
<rect id="ascensore2_1_" x="1402.1" y="289.5" style="fill:#C7C7C9;" width="24.1" height="20.6"/>
<rect id="ascensore1" x="1402.1" y="313.5" style="fill:#C7C7C9;" width="24.1" height="20.6"/>
<polygon id="bango5" style="fill:#C7C7C9;" points="886.8,653.8 886.8,707.5 828.3,707.5 828.3,738.7 780.8,738.7 780.8,653.8 "/>
<path id="Vanoscale1" style="fill:#C7C7C9;" d="M597.4,297v49.3c-0.1,0-0.1,0.1-0.2,0.1c-1,0.5-2.1,0.8-3.1,1.3
	c-0.1,0.1-0.3,0.2-0.6,0.3c-1.6,0.6-3,1.3-4.6,1.9c-9.2,3.8-18.6,7.6-27.8,11.4c-6,2.4-11.9,4.8-17.8,7.3
	c-2.6-6.5-5.1-13.1-7.7-19.6c-3.2-8.3-6.5-16.7-9.8-25c0-0.1-0.1-0.2-0.1-0.3c-3.5-8.8-6.9-17.8-10.4-26.6L597.4,297L597.4,297z"/>
<path id="vanoscala4" style="fill:#C7C7C9;" d="M706.9,653.7v85h-22.2c-10.3-27-20.6-54-30.9-81c-0.5-1.4-1-2.7-1.6-4H706.9z"/>
</svg>
