<?xml version="1.0" encoding="utf-8"?>
<!-- Generator: Adobe Illustrator 22.1.0, SVG Export Plug-In . SVG Version: 6.00 Build 0)  -->
<svg version="1.1" id="Livello_1" xmlns="http://www.w3.org/2000/svg" xmlns:xlink="http://www.w3.org/1999/xlink" x="0px" y="0px"
	 viewBox="0 0 1657 910.2" style="enable-background:new 0 0 1657 910.2;" xml:space="preserve">
<g id="Livello_2_1_">
</g>
<g id="Ue4p4">
	<g>
		<polygon style="fill:#D7D7DC;" points="433.6,111.8 399.3,24.6 1537.7,24.6 1537.7,141.8 468.6,199.3 		"/>
		<path style="fill:#9E9D9C;" d="M1531.7,30.6v105.5l-1.1,0.1l-1058,56.9l-32.2-80.5l-1.2-3l-31.1-79L1531.7,30.6 M1543.7,18.6h-12
			H408.1h-17.6L397,35l31.1,79l0,0l0,0l1.2,3l32.2,80.5l3.2,8l8.6-0.5l1058-56.9l1.1-0.1l11.4-0.6V136V30.6v-12H1543.7z"/>
	</g>
	<g>
		<path style="fill:#D7D7DC;" d="M731.8,872.6l-34.7-91.5H582.2l23,91.5h-372v-80.8L12.1,570.7l2.7-4.1c2.3-3.6,4.8-7.1,7.3-10.7
			C40.5,529.4,60,503.7,80,479.7c21-25.3,43-49.6,65.3-72.1c1.4-1.5,2.8-2.9,4.3-4.3l2.7-2.7c2.1-2.1,4.3-4.3,6.5-6.5
			c0.6-0.6,1.2-1.1,1.7-1.7c0.5-0.5,1.1-1,1.6-1.6c0.2-0.2,0.5-0.5,0.7-0.7s0.5-0.5,0.6-0.6l0.2-0.2l0.2-0.2
			c0.4-0.4,0.8-0.8,1.2-1.2c0.4-0.3,0.7-0.7,1.1-1c1-1,2.1-2.1,3.3-3.1c4.4-4.2,8.7-8.1,12.4-11.6c0.2-0.2,0.5-0.5,0.7-0.7l0.1-0.1
			l0.2-0.2l0.1-0.1c0.3-0.3,0.6-0.5,0.8-0.8c0.4-0.3,0.7-0.7,1.1-1c1.4-1.2,2.8-2.5,4.2-3.8c1.3-1.2,2.6-2.4,4-3.6
			c2.1-1.9,4.2-3.8,6.5-5.8c1.7-1.5,3.5-3,5.2-4.6c2.9-2.5,5.8-5.1,8.9-7.7l3.9-3.3c0.8-0.7,1.6-1.4,2.6-2.1c1-0.9,2-1.7,3-2.5
			l0.1-0.1l0.1-0.1c1-0.8,2-1.6,2.9-2.4l0.1-0.1l0.2-0.1c1.6-1.4,3.2-2.6,4.7-3.9c2.7-2.2,5.4-4.4,7.9-6.4c1.6-1.2,3-2.4,4.5-3.6
			c19.2-15.2,38.4-29.3,57.2-42.2c0.2-0.1,0.4-0.3,0.6-0.4l0.1-0.1l4.3-3c1.1-0.7,2.2-1.5,3.3-2.2c25.6-17.3,51.9-33.5,78.3-48
			l0.8-0.5c7-3.8,13.5-7.4,20.1-10.8c23.5-12.2,45.6-22.8,65.8-31.6c7.6-3.2,15.7-6.3,24.2-9.4c33.2-12.2,64.7-21,99.1-27.6l7.1-1.4
			v94.8h0.9v109.8l-3.8,1.5c-0.7,0.3-1.5,0.5-2.3,0.8c-0.6,0.2-1.2,0.4-1.7,0.6c-0.7,0.3-1.4,0.5-2.1,0.8c-0.6,0.2-1.2,0.4-1.8,0.6
			l-0.2,0.1c-9.1,3.2-18.4,6.7-27.7,10.3c-3,1.2-6.1,2.5-9.1,3.7l0,0l-1.2,0.5c-1.6,0.6-3.1,1.2-4.7,1.8c-2.5,1-4.9,1.9-7.4,2.9
			l-5.5,2.2l-2.3-5.5c-0.5-1.2-1-2.3-1.5-3.5c-0.7-1.7-1.5-3.5-2.2-5.3c-2.3-5.7-4.5-11.5-6.7-17.1c-2.1-5.5-4.3-11.2-6.6-16.8
			c-0.2-0.4-0.3-0.7-0.4-0.9v-0.1l-0.1-0.3l-0.1-0.2l-0.1-0.1l-9.5-23.4c-1.1-2.7-2.2-5.4-3.3-8.1
			c-102.5,104.1-206.8,209.7-307.8,312l39.2,39.2l5.6,5.5h306.2l20.1,80.1l2,8.2l0.8,3h109.7l-1.2-3.2l-18.5-49.7l-14.8-39H1418
			V344.1c-34.5,0.1-69.4,0.1-103.3,0.1h-6V236.3h140.1V111.2h13.4v13.1c9.8,0,19.7-0.1,29.5-0.1c11.8,0,23.6-0.1,35.4-0.1h6v0.1
			h16.3v523.3h56.6l7.4,84.7l0.3,4l0.9,10.9l2.5,28.5l0.6,6.6l7.9,90.5H731.8V872.6z"/>
		<path style="fill:#9E9D9C;" d="M1456.2,117.2v13.1c23.7-0.1,47.3-0.1,70.9-0.2v0.1h16.3v523.3h57.1l6.9,79.2l0.3,3.9l0.9,10.9
			l2.5,28.5l0.1,1.1l0.5,5.5l7.3,84H735.9l-31.7-83.7l-2.5-6.6l-0.5-1.1v-0.1H574.5v0.1l0.3,1.1l1.7,6.6l21,83.7H239.2v-77.3
			L19.8,569.9c2.3-3.5,4.7-7,7.2-10.5c17.1-24.7,36.2-50.2,57.6-75.9c22.4-27,44.4-51,65-71.8c1.3-1.4,2.7-2.8,4.1-4.1l2.8-2.8
			c2.1-2.1,4.3-4.3,6.5-6.4c1.1-1.1,2.3-2.2,3.4-3.3c0.6-0.6,1.2-1.1,1.7-1.7c0.7-0.7,1.5-1.4,2.3-2.2c1-1,2-2,3.1-3
			c4.2-4,8.4-7.9,12.4-11.6c0.3-0.3,0.6-0.5,0.9-0.8c0.7-0.6,1.3-1.2,2-1.8c2.7-2.4,5.4-4.9,8.2-7.4c2.1-1.9,4.2-3.8,6.4-5.7
			c4.6-4,9.2-8.1,14.1-12.3c1.3-1.1,2.6-2.2,3.9-3.3c0.8-0.7,1.6-1.4,2.4-2c1.1-0.9,2.2-1.8,3.3-2.8c1.1-0.9,2.2-1.8,3.2-2.7
			l0.1-0.1c1.5-1.3,3-2.5,4.5-3.7c4.5-3.7,8.7-7,12.4-10c20-15.8,39.1-29.8,56.9-42c0.4-0.3,0.8-0.5,1.1-0.8
			c1.3-0.9,2.6-1.8,3.9-2.7c1-0.7,2.1-1.4,3.2-2.1c32.7-22.1,60-37.9,77.9-47.8c7.1-3.9,14-7.7,20.8-11.2
			c24.6-12.8,46.7-23.3,65.4-31.4c7.7-3.2,15.7-6.3,23.9-9.3c33.7-12.4,64.7-20.9,98.2-27.3v93.5h0.9v99.7c-1.3,0.5-2.7,0.9-4,1.4
			s-2.6,0.9-3.9,1.4c-9.1,3.2-18.5,6.7-27.9,10.4c-3.4,1.4-6.8,2.8-10.1,4.1c-0.1,0-0.1,0-0.2,0.1c-4.1,1.6-8.1,3.1-12.1,4.7
			c-1.2-2.9-2.5-5.8-3.7-8.8c-4.5-11.3-8.8-22.7-13.3-34c-0.2-0.4-0.3-0.8-0.5-1.2c-0.1-0.3-0.2-0.6-0.4-0.9
			c-3.1-7.6-6.2-15.2-9.3-22.8c-2.3-5.5-4.5-11-6.8-16.5C401.3,388.1,295.1,495.7,189,603.2l43.4,43.4l7.4,7.3h304l19,75.6l2,8.2
			l1.9,7.6h123l-0.6-1.5l-3.6-9.8L667,684.3l-11.7-30.9H1424V338.1c-36.4,0.1-72.9,0.1-109.3,0.1v-95.9h140.1V117.2H1456.2
			 M1468.2,105.2h-12h-1.4h-12v12v113.1h-128.1h-12v12v95.9v12h12c31.9,0,64.8,0,97.3-0.1v291.3H655.3h-17.4l6.2,16.2l11.7,30.9
			l16.7,44.8h-96.4l-1.6-6.6l0,0l0,0l-19-75.6l-2.3-9.1h-9.4H244.7l-3.9-3.8l-34.9-34.9C303.5,504.5,404,402.6,503.1,302l9.2,22.5
			l0.5,1.1l0.1,0.1l0.1,0.2c0.1,0.2,0.2,0.6,0.4,0.9c2.2,5.5,4.4,11.1,6.5,16.6c2.2,5.6,4.4,11.4,6.7,17.1c0.8,1.9,1.5,3.7,2.3,5.5
			c0.5,1.2,1,2.3,1.5,3.5l4.5,11l11-4.4c2.4-1,4.8-1.9,7.3-2.8c1.6-0.6,3.1-1.2,4.7-1.8l2.3-0.9l0.1-0.1c2.7-1.1,5.4-2.2,8-3.3
			c9.1-3.6,18.4-7,27.4-10.2l0.2-0.1l0.2-0.1c0.5-0.2,1-0.4,1.6-0.6c0.7-0.2,1.5-0.5,2.3-0.8c0.4-0.2,0.9-0.3,1.5-0.5
			c0.8-0.3,1.6-0.5,2.5-0.9l7.7-3v-8.2v-99.7v-12h-0.9v-81.5v-14.5l-14.3,2.7c-34.7,6.6-66.5,15.5-100.1,27.8
			c-8.6,3.1-16.8,6.3-24.4,9.5h-0.1h-0.1c-20.3,8.8-42.5,19.5-66.2,31.8c-6.7,3.4-13.3,7.1-20.2,10.9l-0.8,0.5
			c-26.5,14.7-53,30.9-78.7,48.3c-1.1,0.7-2.3,1.5-3.5,2.3l-3.9,2.7l-0.9,0.6l-0.1,0.1c-0.1,0-0.1,0.1-0.2,0.1
			c-18.9,13-38.2,27.2-57.4,42.4h-0.1h-0.1c-1.4,1.1-2.9,2.3-4.4,3.6c-2.5,2-5.2,4.1-8,6.4c-1.5,1.2-3.1,2.5-4.8,4l-0.3,0.3
			l-0.2,0.2c-0.7,0.7-1.6,1.4-2.6,2.1l-0.2,0.2l-0.2,0.2c-0.8,0.7-1.7,1.5-2.7,2.3s-2,1.6-2.8,2.3l-3.8,3.2l0,0l0,0
			c-3.1,2.7-6.1,5.3-9,7.8c-1.7,1.5-3.5,3.1-5.2,4.6c-2.3,1.9-4.4,3.9-6.5,5.8c-1.4,1.2-2.7,2.4-4,3.6c-1.4,1.2-2.7,2.5-4.1,3.7
			c-0.4,0.4-0.8,0.7-1.2,1.1c-0.2,0.2-0.4,0.4-0.7,0.6l-0.3,0.3l-0.1,0.1c-0.2,0.2-0.5,0.5-0.9,0.8c-3.9,3.6-8.2,7.6-12.3,11.5
			c-1.3,1.2-2.4,2.2-3.4,3.3c-0.3,0.3-0.6,0.6-0.9,0.9c-0.5,0.4-0.9,0.9-1.4,1.3l-0.4,0.4l-0.2,0.3c-0.1,0.1-0.2,0.1-0.2,0.2
			c-0.3,0.3-0.6,0.5-0.9,0.8c-0.5,0.5-1,1-1.5,1.5c-0.6,0.6-1.2,1.2-1.8,1.7c-2.3,2.2-4.5,4.4-6.6,6.5l-2.6,2.6
			c-1.5,1.4-3,2.9-4.4,4.4c-22.4,22.6-44.5,47-65.6,72.4c-20.1,24.1-39.7,49.9-58.2,76.7c-2.6,3.6-5.1,7.2-7.4,10.8l-5.4,8.2
			l6.9,6.9l215.9,215.9v72.3v12h12h358.3H613l-3.7-14.9l-19.2-76.6h103v0.1l31.7,83.7l2.9,7.7h8.3h883h13.1l-1.1-13l-7.3-84
			l-0.5-5.5l-0.1-1.1l-2.5-28.4l-0.9-10.9l-0.3-3.8v-0.1v-0.1l-6.9-79.2l-1-11h-11h-45.1V130.2v-12h-12h-4.3V118l-12.1,0.1
			c-11.8,0-23.8,0.1-35.4,0.1c-7.7,0-15.6,0-23.4,0.1v-1.1L1468.2,105.2L1468.2,105.2z"/>
	</g>
	<path style="fill:#D7D7DC;" d="M598,243.5h859.5V117.2c-67.3,0.4-121.6,0.2-158.9,0h-0.3c-60.7-0.4-119.1-0.9-207.8-0.3
		c-1.9,0-3.9,0-5.8,0c-8,0.1-16.2,0.2-25.3,0.3c-122.9,1.7-186.1,2.7-271,10.1c-81.3,7.1-138.1,11.9-189,21.7
		c-0.5,0.1-0.9,0.2-1.4,0.3"/>
	<g>
		<polygon style="fill:#D7D7DC;" points="440.4,112.6 439.2,109.6 408.1,30.6 1531.7,30.6 1531.7,136.1 1530.6,136.2 472.6,193.1 		
			"/>
	</g>
	<rect id="_x34_l06012" x="773.9" y="777.1" style="fill:#C7C7C9;" width="101.6" height="90"/>
	<polygon id="_x34_l06013" style="fill:#C7C7C9;" points="770.2,775.2 770.2,866.6 735.9,866.6 704.2,782.9 701.7,776.3 
		701.2,775.2 	"/>
	<rect id="_x34_l06011" x="879.2" y="777.1" style="fill:#C7C7C9;" width="129.8" height="90"/>
	<rect id="_x34_l06010" x="1012.7" y="777.1" style="fill:#C7C7C9;" width="64" height="90"/>
	<rect id="_x34_l06006_1_" x="1080.5" y="777.1" style="fill:#C7C7C9;" width="218.2" height="90"/>
	<rect id="_x34_l06008" x="1302.5" y="777.1" style="fill:#C7C7C9;" width="62.9" height="90"/>
	<rect id="_x34_l06007" x="1368.3" y="777.1" style="fill:#C7C7C9;" width="69.6" height="90"/>
	<polygon id="_x34_l06006" style="fill:#C7C7C9;" points="1619,866.6 1441.6,866.6 1441.6,777.1 1611.2,777.1 1611.7,782.6 	"/>
	<rect id="_x34_l06003" x="1175.6" y="653.4" style="fill:#C7C7C9;" width="126.1" height="77.5"/>
	<rect id="_x34_l06002" x="1001.5" y="653.3" style="fill:#C7C7C9;" width="170.3" height="76.9"/>
	<rect id="_x34_l06001" x="922.5" y="653.3" style="fill:#C7C7C9;" width="75.2" height="76.9"/>
	<rect id="_x34_r06001" x="877.5" y="653.3" style="fill:#C7C7C9;" width="41.1" height="76.9"/>
	<polygon id="_x34_u06006" style="fill:#C7C7C9;" points="597.5,866.6 533.1,866.6 533.1,775.2 574.5,775.2 574.8,776.3 
		576.5,782.9 	"/>
	<rect id="_x34_u06008" x="451.4" y="775.2" style="fill:#C7C7C9;" width="35.7" height="91.9"/>
	<rect id="_x34_u06007" x="489.9" y="775.2" style="fill:#C7C7C9;" width="39.5" height="91.9"/>
	<rect id="_x34_u06009" x="372.4" y="775.2" style="fill:#C7C7C9;" width="75.2" height="91.9"/>
	<rect id="_x34_u06005" x="445.8" y="653.3" style="fill:#C7C7C9;" width="34.2" height="75"/>
	<rect id="_x34_u06004" x="396.9" y="653.3" style="fill:#C7C7C9;" width="45.1" height="75"/>
	<rect id="_x34_u06003" x="347" y="653.3" style="fill:#C7C7C9;" width="46.1" height="75"/>
	<rect id="_x34_u06002" x="289.7" y="653.3" style="fill:#C7C7C9;" width="53.5" height="75"/>
	<rect id="_x34_u06001" x="238.9" y="653.3" style="fill:#C7C7C9;" width="47" height="75"/>
	<rect id="vanoscala2_2_" x="1320.4" y="245.2" style="fill:#C7C7C9;" width="39.5" height="65.8"/>
	<rect id="_x34_lt001" x="1388.1" y="245.2" style="fill:#C7C7C9;" width="28.2" height="28.8"/>
	<rect id="ascensore8_4_" x="1388.1" y="277.7" style="fill:#C7C7C9;" width="28.2" height="26.4"/>
	<rect id="ascensore7_4_" x="1388.1" y="307.7" style="fill:#C7C7C9;" width="28.2" height="26.4"/>
	<rect id="ascensore6_4_" x="1305.4" y="657.5" style="fill:#C7C7C9;" width="28.2" height="26.4"/>
	<rect id="ascensore5_4_" x="1305.4" y="687.6" style="fill:#C7C7C9;" width="28.2" height="26.4"/>
	<rect id="ascensore4_4_" x="739.2" y="655.7" style="fill:#C7C7C9;" width="28.2" height="26.4"/>
	<rect id="ascensore3_4_" x="340.4" y="826.9" style="fill:#C7C7C9;" width="28.2" height="26.4"/>
	<rect id="ascensore2_4_" x="308.4" y="783.6" style="fill:#C7C7C9;" width="32" height="39.5"/>
	<rect id="_x34_lt004" x="343.3" y="776.1" style="fill:#C7C7C9;" width="25.4" height="47"/>
	<rect id="vanoscala3_2_" x="239.1" y="783.6" style="fill:#C7C7C9;" width="40.6" height="62.1"/>
	<rect id="_x34_lt005" x="739.2" y="685.8" style="fill:#C7C7C9;" width="28.2" height="56.5"/>
	<rect id="vanoscala5_4_" x="1367.5" y="680.1" style="fill:#C7C7C9;" width="50.8" height="60.2"/>
	<rect id="p4lt07" x="1305.4" y="717.7" style="fill:#C7C7C9;" width="30.1" height="22.6"/>
	<rect id="_x34_lt006" x="837" y="706.5" style="fill:#C7C7C9;" width="37.6" height="24.5"/>
	<polygon id="bagno5_1_" style="fill:#C7C7C9;" points="874.6,653.4 874.6,702.7 833.3,702.7 833.3,731 771.2,731 771.2,653.4 	"/>
	<polygon id="bagno4_2_" style="fill:#C7C7C9;" points="561.5,729.1 483.4,729.1 483.4,653.4 542.7,653.4 	"/>
	<rect id="ascensore1_4_" x="554.2" y="260.3" style="fill:#C7C7C9;" width="41.4" height="28.2"/>
	<rect id="Ue4p4_1_" x="541.7" y="227.7" style="fill:#C7C7C9;" width="53.9" height="28.9"/>
	<rect id="_x34_l06004" x="1422.8" y="653.4" style="fill:#C7C7C9;" width="56.5" height="79.4"/>
	<polygon id="_x34_l06005" style="fill:#C7C7C9;" points="1607.4,732.8 1483,732.8 1483,653.4 1543.4,653.4 1543.4,653.5 
		1600.5,653.5 	"/>
	<path id="p4f0loctecnico01" style="fill:#C7C7C9;" d="M1422.8,117.2v118.6H599.5v-88.6c4.1-0.8,8.4-1.5,12.6-2.3
		c45.6-7.7,97.3-12,168.4-18.2c41.5-3.6,77.7-5.5,118.7-6.8c1.8-0.1,3.7-0.1,5.5-0.2c1.8-0.1,3.7-0.1,5.6-0.2
		c2.8-0.1,5.6-0.2,8.5-0.2c1,0,1.9-0.1,2.9-0.1c1.9,0,3.8-0.1,5.8-0.1c1,0,1.9,0,2.9-0.1c1.9,0,3.9-0.1,6-0.1c6-0.1,12-0.3,18.4-0.4
		c2.9-0.1,5.8-0.1,8.8-0.2c8.9-0.2,18.1-0.3,27.7-0.5c1.6,0,3.2,0,4.8-0.1c3.3-0.1,6.5-0.1,9.8-0.2c1.6,0,3.4-0.1,5-0.1
		c9.3-0.1,19.1-0.3,29.2-0.4c0.7,0,1.3,0,2,0c1.3,0,2.7,0,3.9,0c0.7,0,1.3,0,1.9,0c3.9,0,7.7-0.1,11.4-0.1c0.8,0,1.6,0,2.4,0
		c1.3,0,2.5,0,3.8,0c1.8,0,3.7,0,5.6,0c35.4-0.2,74.1,0.2,197.7,0.3C1304.9,117.4,1357.6,117.6,1422.8,117.2z"/>
	<path id="p4ch04locserv" style="fill:#C7C7C9;" d="M595.7,153.9v70.2h-54c-5.5-17.7-11-35.3-16.6-53c4-1.2,9.7-3,16.9-4.9
		c13.6-3.7,24.6-6.2,35-8.4C581.7,156.6,588.1,155.3,595.7,153.9z"/>
	<path id="vanoscala1" style="fill:#C7C7C9;" d="M595.7,292.6v48.3c-9.1,3.2-18.5,6.7-27.9,10.4c-3.4,1.4-6.8,2.8-10.1,4.1
		c-0.1,0-0.1,0-0.2,0.1c-4.1,1.6-8.1,3.1-12.1,4.7c-1.2-2.9-2.5-5.8-3.7-8.8c-4.5-11.3-8.8-22.7-13.3-34c-0.2-0.4-0.3-0.8-0.5-1.2
		c-0.1-0.3-0.2-0.6-0.4-0.9c-3.1-7.6-6.2-15.2-9.3-22.8L595.7,292.6L595.7,292.6z"/>
	<polygon id="vanoscala4" style="fill:#C7C7C9;" points="710.7,653.4 710.7,734 685.5,734 667,684.3 655.3,653.4 	"/>
</g>
<line style="fill:none;stroke:#9E9D9C;stroke-width:12;stroke-miterlimit:10;" x1="599.5" y1="242.9" x2="1314.7" y2="242.9"/>
</svg>
