<?xml version="1.0" encoding="utf-8"?>
<!-- Generator: Adobe Illustrator 22.1.0, SVG Export Plug-In . SVG Version: 6.00 Build 0)  -->
<svg version="1.1" id="Ue4p5" xmlns="http://www.w3.org/2000/svg" xmlns:xlink="http://www.w3.org/1999/xlink" x="0px" y="0px"
	 viewBox="0 0 1657 910.2" style="enable-background:new 0 0 1657 910.2;" xml:space="preserve">
<g>
	<polygon style="fill:#D7D7DC;" points="732.1,872.6 699.6,787.4 699.4,787 696.9,780.5 584.2,780.5 584.9,783.1 585,783.5 
		608.6,872.6 231.2,872.6 231.2,647.9 549,647.9 571.9,734.4 572.3,736 573.4,740 681.5,740 646.4,647.9 1599.4,647.9 1609.9,736.8 
		1610.5,742.1 1625.7,872.6 	"/>
	<path style="fill:#9E9D9C;" d="M1594.1,653.9l9.8,83.6l0.7,5.4l4.9,42.1l9.5,81.6H736.2L705.1,785l-0.2-0.4l-3.8-10.1H576.4
		l2.7,10.1l0.1,0.4l21.6,81.6H237.2V653.9h307.2l21.7,81.9l0.4,1.7l2.3,8.5h121.4l-0.6-1.6l-1.9-5l-32.6-85.5H1594.1 M1604.8,641.9
		h-10.7h-939h-17.4l6.2,16.3l28.9,75.8H578l-0.2-0.9l0-0.2l0-0.2L556,650.8l-2.4-8.9h-9.2H237.2h-12v12v212.7v12h12h363.6h15.6
		l-4-15.1l-20.4-77h100.8l0.9,2.3l0.2,0.6l0.2,0.4l30.9,81l2.9,7.7h8.3H1619h13.5l-1.6-13.4l-9.5-81.6l-4.9-42.1l0-0.1l0-0.1
		l-0.7-5.3l-9.8-83.5L1604.8,641.9L1604.8,641.9z"/>
</g>
<rect id="_x35_U06001" x="237.2" y="653.9" style="fill:#C7C7C9;" width="55.9" height="81.9"/>
<rect id="_x35_U06002" x="296.1" y="653.3" style="fill:#C7C7C9;" width="60.3" height="82.5"/>
<rect id="_x35_U06003" x="359.5" y="653.3" style="fill:#C7C7C9;" width="43.8" height="82.5"/>
<rect id="_x35_U06004" x="406.2" y="653.3" style="fill:#C7C7C9;" width="43.8" height="82.5"/>
<rect id="_x35_U06005" x="452.9" y="653.3" style="fill:#C7C7C9;" width="34.7" height="82.5"/>
<polygon id="bagno5" style="fill:#C7C7C9;" points="566.1,735.8 490.7,735.8 490.7,653.9 544.4,653.9 "/>
<rect id="_x35_r06001" x="891.9" y="653.3" style="fill:#C7C7C9;" width="46.8" height="82.5"/>
<rect id="_x35_l06002" x="1128.8" y="653.3" style="fill:#C7C7C9;" width="54.3" height="82.5"/>
<rect id="_x35_l06003" x="1186.1" y="653.3" style="fill:#C7C7C9;" width="126.7" height="82.5"/>
<rect id="_x35_l06001" x="941.7" y="653.3" style="fill:#C7C7C9;" width="184.1" height="82.5"/>
<rect id="_x35_u06009" x="382.5" y="784.6" style="fill:#C7C7C9;" width="75.1" height="82.5"/>
<rect id="_x35_u06008" x="460.7" y="784.6" style="fill:#C7C7C9;" width="39.2" height="82.5"/>
<rect id="_x35_u06007" x="502.8" y="784.6" style="fill:#C7C7C9;" width="39.2" height="82.5"/>
<polygon id="_x35_u06006" style="fill:#C7C7C9;" points="600.8,866.6 545.1,866.6 545.1,784.6 579.1,784.6 579.2,785 "/>
<polygon style="fill:#C7C7C9;" points="765.2,784.6 765.2,866.6 736.2,866.6 705.1,785 704.9,784.6 "/>
<rect id="_x35_l06010" x="768.2" y="784.6" style="fill:#C7C7C9;" width="125.2" height="82.5"/>
<rect id="_x35_l06009" x="896.5" y="784.6" style="fill:#C7C7C9;" width="152.4" height="82.5"/>
<rect id="_x35_l06008" x="1051.8" y="784.6" style="fill:#C7C7C9;" width="76.9" height="82.5"/>
<rect id="_x35_l06007" x="1132.5" y="784.6" style="fill:#C7C7C9;" width="155.4" height="82.5"/>
<rect id="_x35_l06006" x="1290.1" y="784.6" style="fill:#C7C7C9;" width="233.8" height="82"/>
<polygon id="_x35_l06005" style="fill:#C7C7C9;" points="1619,866.6 1527,866.6 1527,784.6 1609.5,784.6 "/>
<rect id="Vanoscala_3" x="237.2" y="774.6" style="fill:#C7C7C9;" width="49.8" height="66.4"/>
<rect id="ascensore6_5_" x="317.2" y="789.7" style="fill:#C7C7C9;" width="31.7" height="39.3"/>
<rect id="ascensore5_5_" x="351.9" y="831.9" style="fill:#C7C7C9;" width="27.2" height="28.6"/>
<rect id="_x35_lt004" x="351.9" y="789.7" style="fill:#C7C7C9;" width="27.2" height="39.3"/>
<rect id="ascensore3_5_" x="746.8" y="663" style="fill:#C7C7C9;" width="30.5" height="29.5"/>
<rect id="_x35_lt0054" x="753.1" y="694.7" style="fill:#C7C7C9;" width="24.1" height="49.8"/>
<rect id="_x35_lt006" x="848.2" y="709.5" style="fill:#C7C7C9;" width="40.7" height="27.4"/>
<rect id="ascensore2_5_" x="1317.3" y="664.5" style="fill:#C7C7C9;" width="27.2" height="24.1"/>
<rect id="ascensore1_5_" x="1317.3" y="691.6" style="fill:#C7C7C9;" width="27.2" height="24.1"/>
<rect id="_x35_lt007" x="1317.3" y="718.8" style="fill:#C7C7C9;" width="27.2" height="24.1"/>
<rect id="vanoscala5_5_" x="1376.1" y="684" style="fill:#C7C7C9;" width="52.8" height="58.8"/>
<polygon id="_x35_l06004" style="fill:#C7C7C9;" points="1604.6,736.9 1432,736.9 1432,653.9 1594.1,653.9 1603.9,731.8 "/>
<polygon id="bagno5_2_" style="fill:#C7C7C9;" points="888.9,653.9 888.9,706.7 845.2,706.7 845.2,736.8 780.3,736.8 780.3,653.9 
	"/>
<polygon id="Vanoscala4" style="fill:#C7C7C9;" points="713.5,653.9 713.5,739.4 687.7,739.4 655.1,653.9 "/>
</svg>
