<?xml version="1.0" encoding="utf-8"?>
<!-- Generator: Adobe Illustrator 22.1.0, SVG Export Plug-In . SVG Version: 6.00 Build 0)  -->
<svg version="1.1" id="Ue4pT" xmlns="http://www.w3.org/2000/svg" xmlns:xlink="http://www.w3.org/1999/xlink" x="0px" y="0px"
	 viewBox="0 0 1657 910.2" style="enable-background:new 0 0 1657 910.2;" xml:space="preserve">
<g>
	<path style="fill:#D7D7DC;" d="M539.1,369.5c-4.2-11.5-8.5-23.1-12.7-34.7s-8.5-23.2-12.7-34.7l-40.3-110.3l5.1-2.3
		c18.8-8.4,38.5-16.4,60.3-24.5c4.1-1.6,8.5-3.2,13.2-4.8c28.7-10.3,57.9-19.4,86.7-27.2c15.4-4.2,33.8-9,56.5-13.8
		c0.7-0.2,1.3-0.3,2-0.4c0.6-0.1,1.1-0.2,1.7-0.4h0.1c14.1-2.9,29.4-5.6,45.3-8.1c0.2,0,1.5-0.2,1.8-0.3c1.2-0.2,2.6-0.4,4-0.5
		c16.1-2.2,29.4-3.7,43.3-4.8l3.8-0.3c14-1.1,29-1.8,43.2-2.4c0.7-0.1,1.4-0.1,2-0.1s1.1,0,1.7-0.1h0.3l6.7-0.2
		c6.7-0.2,13.8-0.5,21.4-0.8h1.1c6.1-0.2,11.9-0.4,17.8-0.5c0.6,0,1.2,0,1.7,0c0.7,0,1.4-0.1,2-0.1l4.7-0.1
		c14.8-0.4,28.7-0.7,42.2-0.9c1.2,0,2.3,0,3.3-0.1h0.2h0.2c25.1-0.4,50-0.6,73.9-0.6c5.7,0,11.1,0,16.2,0h3.8
		c25.1,0.1,40.9,0.3,45.1,0.4h1.8c1.3,0,2.6,0,4,0.1c17.6,0.4,31.4,0.8,46.7,1.2c0.6,0,1.3,0,2,0.1c0.5,0,1.1,0,1.6,0h0.2l4.9,0.2
		c11.2,0.4,22.8,0.9,36.3,1.3c0.6,0,1.3,0,2,0.1c0.5,0,1.1,0,1.6,0h0.2c14.1,0.6,28.8,1,44.9,1.5c0.7,0,1.4,0,2,0.1
		c0.5,0,1.1,0,1.7,0h0.2c5.2,0.2,10.7,0.3,16.5,0.5c3.7,0.1,7.6,0.2,11.5,0.3h0.6c5.6,0.2,10.9,0.4,16.2,0.5c0.7,0,1.3,0,2,0.1
		c0.5,0,1.1,0,1.6,0h0.2c15.7,0.5,30.8,0.9,44.9,1.2c0.7,0,1.4,0,2.1,0.1c0.5,0,1.1,0,1.7,0h0.1c12.4,0.3,24.1,0.6,35.2,0.8l9.7,0.2
		c1.2,0,2.6,0,4,0.1c19.4,0.7,36.3,1,50.3,1.2l5.9,0.1v242.6H602.1c-0.1,0.1-0.3,0.1-0.4,0.2l-0.3,0.1l-0.3,0.1
		c-0.6,0.2-1.2,0.5-1.9,0.8c-0.6,0.2-1.1,0.5-1.6,0.7c-16.8,7.3-33.7,14.6-50.5,21.9l-5.8,2.5L539.1,369.5z"/>
	<path style="fill:#9E9D9C;" d="M1019.7,102.4c5.7,0,11.1,0,16.2,0c1.3,0,2.6,0,3.8,0c25,0.1,41,0.3,45,0.4c0.6,0,1.3,0,1.9,0
		c1.3,0,2.5,0,3.7,0.1c18.8,0.4,33.2,0.8,46.9,1.2c1.2,0,2.5,0.1,3.7,0.1c13.1,0.5,25.8,1,41.3,1.5c1.2,0,2.5,0.1,3.7,0.1
		c12.6,0.5,27,1,45,1.5c1.3,0,2.5,0.1,3.8,0.1c8.5,0.3,17.9,0.5,28.1,0.8c5.7,0.2,11.3,0.4,16.9,0.5c1.2,0,2.5,0.1,3.7,0.1
		c15.8,0.5,30.8,0.9,45,1.2c1.3,0,2.5,0.1,3.8,0.1c16.1,0.4,31.1,0.7,45,1c1.2,0,2.5,0,3.7,0.1c19.4,0.7,36.4,1,50.6,1.2v230.7
		H600.9c-0.6,0.3-1.3,0.5-1.9,0.8c-1.3,0.5-2.5,1.1-3.7,1.6c-16.9,7.3-33.8,14.6-50.6,21.9c-8.5-23.1-16.9-46.3-25.4-69.4l-38.4-105
		c20.9-9.3,41-17.3,60-24.4c4.4-1.7,8.8-3.3,13.1-4.8c32.4-11.6,61.5-20.4,86.3-27.1c14.1-3.8,32.9-8.8,56.2-13.7
		c1.3-0.3,2.5-0.5,3.8-0.8c13.5-2.8,28.5-5.5,45-8c0.6-0.1,1.3-0.2,1.9-0.3c1.2-0.2,2.5-0.4,3.7-0.5c14.4-2,28-3.6,43.1-4.8
		c1.3-0.1,2.5-0.2,3.8-0.3c12.8-1,26.7-1.7,43.1-2.4c1.3-0.1,2.5-0.1,3.8-0.2c8.6-0.3,17.9-0.6,28.1-1c6.4-0.2,12.6-0.4,18.8-0.5
		c1.2,0,2.5-0.1,3.7-0.1c16.4-0.4,32-0.8,46.9-1c1.2,0,2.5,0,3.7-0.1C974,102.5,998.9,102.4,1019.7,102.4 M1019.7,90.4
		c-24,0-48.9,0.2-74,0.6h-0.4h-0.4c-0.7,0.1-1.7,0.1-2.7,0.1h-0.1H942c-13.5,0.2-27.5,0.5-42.3,0.9l-4.6,0.1c-0.8,0-1.5,0-2.2,0.1
		c-0.5,0-1,0-1.4,0h-0.1h-0.1c-5.9,0.1-11.7,0.3-17.9,0.5h-1.1l0,0l0,0c-7.6,0.3-14.5,0.5-21.3,0.8l-6.8,0.2h-0.3h-0.3
		c-0.4,0-0.9,0.1-1.5,0.1s-1.3,0.1-2.1,0.1c-14.2,0.6-29.3,1.3-43.3,2.4c-0.6,0-1.3,0.1-1.9,0.2c-0.6,0-1.2,0.1-1.9,0.1
		c-14,1.1-27.4,2.6-43.5,4.8c-1.5,0.1-3,0.4-4.3,0.6c-0.3,0-0.5,0.1-0.8,0.1c-0.3,0.1-0.7,0.1-1,0.2c-16,2.4-31.3,5.2-45.6,8.1h-0.1
		h-0.1c-0.5,0.1-1,0.2-1.6,0.3c-0.6,0.1-1.4,0.3-2.1,0.4c-22.8,4.8-41.2,9.7-56.7,13.8c-29,7.8-58.3,17-87.2,27.4
		c-4.8,1.7-9.2,3.3-13.4,4.9c-21.9,8.2-41.7,16.3-60.6,24.7l-10.2,4.6l3.9,10.5L508,302c4.3,11.6,8.5,23.3,12.7,34.7
		c4.2,11.4,8.5,23.2,12.7,34.7l4.4,11.9l11.7-5.1c16.8-7.3,33.9-14.7,50.5-21.9c0.6-0.2,1.1-0.5,1.7-0.8c0.6-0.3,1.1-0.5,1.6-0.7
		l0,0h828.2h12v-12V112.4v-11.8l-11.8-0.2c-13.9-0.2-30.8-0.5-50.1-1.2c-1.5-0.1-3-0.1-4.3-0.1l-9.8-0.2
		c-11.2-0.2-22.7-0.5-35.1-0.8h-0.1h-0.1c-0.4,0-0.9,0-1.4,0c-0.7,0-1.4-0.1-2.2-0.1c-14.1-0.3-29.1-0.7-44.8-1.2h-0.2h-0.2
		c-0.4,0-0.9,0-1.4,0c-0.7,0-1.4-0.1-2.2-0.1c-5.3-0.1-10.5-0.3-16-0.5h-0.6l0,0l0,0c-4-0.1-7.8-0.2-11.6-0.3
		c-5.8-0.2-11.3-0.3-16.5-0.5h-0.2h-0.2c-0.4,0-0.9,0-1.4,0c-0.7,0-1.4-0.1-2.2-0.1c-16-0.4-30.7-0.9-44.7-1.5h-0.2h-0.2
		c-0.4,0-0.9,0-1.4,0c-0.6,0-1.4-0.1-2.1-0.1c-13.5-0.4-25-0.9-36.2-1.3l-4.9-0.2h-0.2h-0.2c-0.4,0-0.9,0-1.4,0
		c-0.6,0-1.4-0.1-2.1-0.1c-15.2-0.4-28.9-0.8-46.5-1.2c-1.5-0.1-2.9-0.1-4.3-0.1h-1.8c-4.3-0.1-20.2-0.3-45.1-0.4h-3.8
		C1030.6,90.4,1025.2,90.4,1019.7,90.4L1019.7,90.4z"/>
</g>
<g>
	<path style="fill:#D7D7DC;" d="M729.8,870.3l-1.4-4c-5.1-14-10.3-28.2-15.4-42c-4.3-11.6-8.7-23.6-13-35.4l-0.1-0.1l-0.5-1.2
		c-2.4-6.6-4.8-13.2-7.2-19.8c-2.4-6.5-4.8-13.1-7.2-19.6c-5.3-14.4-10.6-28.7-15.8-43.1c-5.3-14.4-10.6-28.8-15.9-43.2l-3-8.1H1598
		l0.7,5.2c3.1,24,6.2,48.4,9.2,72l1.1,8.6c0.9,7.5,1.9,15,2.9,22.5c0.9,7,1.8,14,2.7,21l0,0l0.3,2c1.9,14.8,3.8,29.5,5.6,44.2
		c1.5,11.4,2.9,22.7,4.4,34.1l0.9,6.8L729.8,870.3L729.8,870.3z"/>
	<path style="fill:#9E9D9C;" d="M1592.8,659.9c3.5,26.9,6.9,53.8,10.3,80.6c1.9,15,3.9,30,5.8,45c0,0.2,0,0.4,0.1,0.5
		c3.3,26.2,6.7,52.3,10,78.3H734c-9.5-26.2-19.2-52.2-28.7-78.3c0-0.1-0.1-0.3-0.2-0.4c-4.8-13.1-9.6-26.3-14.4-39.4
		c-10.6-28.8-21.1-57.5-31.7-86.3L1592.8,659.9 M1603.3,647.9h-10.5H659h-17.2l5.9,16.1c5.3,14.4,10.6,28.8,15.8,43.1
		c5.3,14.4,10.6,28.8,15.9,43.2c2.4,6.5,4.8,13.1,7.2,19.7c2.4,6.6,4.8,13.2,7.2,19.7l0.9,2.5l0.1,0.1c4.2,11.4,8.4,23,12.5,34.1
		c5.1,13.7,10.3,27.9,15.4,42l2.9,7.9h8.4h885h13.6l-1.7-13.5c-1.4-11.3-2.9-22.7-4.4-34.1c-1.9-14.5-3.8-29.5-5.6-44.2l-0.5-4.1
		l0,0c-0.8-6.3-1.6-12.7-2.4-18.9c-1-7.4-1.9-15-2.9-22.5l-1.1-9.1c-3-23.4-6-47.7-9.2-71.6L1603.3,647.9L1603.3,647.9z"/>
</g>
<g>
	<path style="fill:#D7D7DC;" d="M231.2,870.3V710.9h-80.9l-16.8-16.8c-6.5-6.5-13.1-13.1-19.6-19.6c-12.9-12.9-26.3-26.3-39.4-39.4
		c-19.3-19.3-39.3-39.3-59-59.1l-3.5-3.5l2.8-4.1c15.6-22.7,32.1-44.9,49-65.9l0.1-0.2c0.2-0.3,0.5-0.6,0.7-0.9
		c0.3-0.4,0.6-0.8,0.9-1.2c0.2-0.3,0.5-0.6,0.7-0.9c0.5-0.6,0.9-1.1,1.3-1.6l0.1-0.2l0.1-0.2c20.3-25,41.4-48.9,62.8-71.1l0.1-0.1
		c0.9-0.9,1.7-1.7,2.4-2.4l0.1-0.2c2.1-2.3,4.2-4.3,6-6.1c19.8-20,40.3-39.3,62.9-58.9l0.2-0.2c0.9-0.7,1.7-1.4,2.6-2.3l0.1-0.1
		c32.4-27.9,66.1-53.5,100.2-76.2c5.3-3.5,11.3-7.4,18.2-11.9c1.2-0.7,2.3-1.4,3.3-2.1c31.5-19.8,64.2-37.9,97.3-54l6.6-3.2l1.9,7.1
		c5.4,20.7,11,42,16.4,63c2.1,7.9,4.1,15.8,6.2,23.7c2.8,10.7,5.6,21.4,8.4,32.1c6.9,26.4,13.8,52.8,20.7,79.2
		c6.9,26.4,13.7,52.7,20.6,79.1v0.2c0.1,0.6,0.3,1.2,0.5,1.8c0.2,0.7,0.4,1.4,0.5,2.1c6.9,26.5,13.8,53,20.8,79.5
		c6.9,26.6,13.9,53.2,20.8,79.7v0.2c0.2,1,0.5,2.1,0.8,3.2l0.1,0.2l20.6,79l11.9,45.7v0.2c3.7,14.4,7.5,28.7,11.2,43.1
		c3,11.6,6.1,23.3,9.1,34.9l1.9,7.5H231.2V870.3z"/>
	<path style="fill:#9E9D9C;" d="M426.7,217.4c5.5,21,11,42,16.4,63c4.9,18.7,9.7,37.3,14.6,55.9c13.8,52.8,27.5,105.5,41.3,158.3
		c0.3,1.3,0.7,2.7,1,4c13.9,53.1,27.7,106.2,41.6,159.3c0.3,1.3,0.6,2.5,1,3.7l20.5,78.8c3.9,15,7.8,30,11.7,45c0,0.1,0,0.1,0,0.2
		c6.8,26.3,13.7,52.5,20.5,78.7H237.2V704.9h-84.4l-15-15c-19.7-19.7-39.4-39.3-59-59c-19.7-19.7-39.4-39.4-59-59.1
		c12.8-18.6,29-41,48.7-65.6c0.6-0.7,1.1-1.4,1.7-2.1c0.8-1,1.6-1.9,2.3-2.9c24.3-29.9,46.3-53.9,62.5-70.7c0.9-0.9,1.8-1.8,2.6-2.7
		c2.1-2.2,4.1-4.2,5.9-6c21.7-22,42.9-41.5,62.6-58.6c1-0.8,1.9-1.6,2.9-2.5c46.5-40,84.3-65.6,99.6-75.8
		c5.7-3.8,11.7-7.7,18.1-11.8c1.1-0.7,2.2-1.4,3.2-2C356.2,254.6,388.6,235.9,426.7,217.4 M434.6,200.2l-13.1,6.4
		c-33.2,16.1-66.2,34.4-97.8,54.3c-1.1,0.7-2.3,1.4-3.4,2.1c-7,4.5-13,8.4-18.3,11.9c-34.3,22.8-68.2,48.6-100.8,76.7l-0.1,0.1
		l-0.1,0.1c-0.8,0.8-1.6,1.4-2.4,2l-0.2,0.2l-0.2,0.2c-22.7,19.7-43.4,39-63.2,59.2c-1.8,1.8-3.9,3.9-6.1,6.2l-0.1,0.2l-0.1,0.2
		c-0.6,0.6-1.3,1.4-2.1,2.2l-0.1,0.1l-0.1,0.1c-21.5,22.3-42.8,46.4-63.2,71.5l-0.3,0.3l-0.2,0.4c-0.2,0.3-0.6,0.8-1,1.2
		c-0.2,0.3-0.5,0.6-0.7,0.9c-0.4,0.5-0.8,0.9-1,1.3c-0.2,0.2-0.3,0.4-0.5,0.7l-0.1,0.2l-0.1,0.2c-17,21.2-33.5,43.5-49.2,66.3
		l-5.6,8.2l7,7.1c19.6,19.7,39.6,39.7,59,59.1c13.1,13.1,26.4,26.4,39.3,39.3c6.6,6.6,13.1,13.1,19.7,19.7l15,15l3.5,3.5h5h72.4
		v147.4v12h12h358.1H611l-3.9-15c-3-11.6-6-23.2-9.1-34.8c-3.6-13.9-7.4-28.2-11-42.4v-0.2l-0.4-1.5l-11.7-45L554.4,659l-0.1-0.4
		l-0.1-0.4c-0.2-0.7-0.5-1.6-0.7-2.6v-0.2v-0.2c-6.9-26.5-14-53.5-20.8-79.6s-13.8-53-20.8-79.5c-0.2-0.7-0.3-1.4-0.5-2.1
		c-0.1-0.6-0.3-1.1-0.4-1.7v-0.2v-0.2c-6.9-26.4-13.8-52.8-20.6-79.1c-6.9-26.4-13.8-52.8-20.7-79.2c-2.8-10.7-5.6-21.6-8.4-32.1
		c-2.1-7.9-4.1-15.9-6.2-23.8c-5.4-21-11-42.4-16.4-63L434.6,200.2L434.6,200.2z"/>
</g>
<path id="tr02001" style="fill:#C7C7C9;" d="M696.5,125.3v79.4H540.9v-33.8c4.4-1.7,8.8-3.3,13.1-4.8c32.4-11.6,61.5-20.4,86.3-27.1
	C654.4,135.2,673.2,130.2,696.5,125.3z"/>
<path id="tu02001" style="fill:#C7C7C9;" d="M747.2,116.2v88.5h-46.9v-80.2c13.5-2.8,28.5-5.5,45-8
	C745.9,116.4,746.6,116.3,747.2,116.2z"/>
<path id="tu02002" style="fill:#C7C7C9;" d="M794,110.9v93.8h-43.1v-89C765.3,113.7,778.9,112.1,794,110.9z"/>
<path id="tu02003" style="fill:#C7C7C9;" d="M840.9,108.2v96.5h-43.1v-94.1C810.6,109.6,824.5,108.9,840.9,108.2z"/>
<path id="tu02004" style="fill:#C7C7C9;" d="M891.6,106.6v98.1h-46.9V108c8.6-0.3,17.9-0.6,28.1-1
	C879.2,106.9,885.4,106.7,891.6,106.6z"/>
<path id="tu02005" style="fill:#C7C7C9;" d="M942.2,105.5v99.2h-46.9v-98.2C911.7,106,927.3,105.7,942.2,105.5z"/>
<path id="tu02006_x2F_7" style="fill:#C7C7C9;" d="M1035.9,104.8v99.9h-90v-99.3C981.7,104.9,1012.4,104.8,1035.9,104.8z"/>
<path id="tu02008" style="fill:#C7C7C9;" d="M1086.6,105.2v99.5h-46.9v-99.9c25,0.1,41,0.3,45,0.4
	C1085.3,105.2,1086,105.2,1086.6,105.2z"/>
<path id="tu02009" style="fill:#C7C7C9;" d="M1137.2,106.5v98.2h-46.9v-99.4C1109.1,105.7,1123.5,106.1,1137.2,106.5z"/>
<path id="tu02010" style="fill:#C7C7C9;" d="M1182.2,108.2v96.5h-41.3v-98.1C1154,107.1,1166.7,107.6,1182.2,108.2z"/>
<path id="tu02011" style="fill:#C7C7C9;" d="M1230.9,109.8v94.9h-45v-96.4C1198.5,108.8,1212.9,109.3,1230.9,109.8z"/>
<path id="tu02012" style="fill:#C7C7C9;" d="M1279.7,111.3v93.4h-45V110c8.5,0.3,17.9,0.5,28.1,0.8
	C1268.5,111,1274.2,111.2,1279.7,111.3z"/>
<path id="tu02013" style="fill:#C7C7C9;" d="M1328.4,112.7v92h-45v-93.3C1299.2,111.9,1314.2,112.3,1328.4,112.7z"/>
<path id="tu02014" style="fill:#C7C7C9;" d="M1377.2,113.8v90.9h-45v-91.9C1348.3,113.2,1363.3,113.5,1377.2,113.8z"/>
<path id="tu02015" style="fill:#C7C7C9;" d="M1431.5,114.7v90h-50.6v-90.9C1400.3,114.2,1417.3,114.5,1431.5,114.7z"/>
<rect id="bagno2_1_" x="600.9" y="240.4" style="fill:#C7C7C9;" width="69.4" height="102.3"/>
<rect id="tl02001" x="674" y="240.4" style="fill:#C7C7C9;" width="73.1" height="102.3"/>
<rect id="ptch02" x="750.9" y="240.4" style="fill:#C7C7C9;" width="20.6" height="102.3"/>
<rect id="tl02002" x="775.3" y="240.4" style="fill:#C7C7C9;" width="114.4" height="102.3"/>
<rect id="ptch02lab05" x="893.4" y="298" style="fill:#C7C7C9;" width="24.4" height="44.7"/>
<rect id="ptch02lab04" x="990.9" y="267.8" style="fill:#C7C7C9;" width="24.4" height="74.7"/>
<polygon id="tl02003" style="fill:#C7C7C9;" points="987.2,240.4 987.2,342.7 921.5,342.7 921.5,294.6 893.4,294.6 893.4,240.4 "/>
<polygon id="tl02004" style="fill:#C7C7C9;" points="1182.2,240.4 1182.2,342.7 1019,342.7 1019,264.2 990.9,264.2 990.9,240.4 "/>
<polygon id="bagno5" style="fill:#C7C7C9;" points="882.2,662.2 882.2,707 845.2,707 845.2,743.3 780,743.3 780,662.2 "/>
<rect id="tl001" x="885.9" y="662.7" style="fill:#C7C7C9;" width="150" height="80.2"/>
<rect id="tl002" x="1039.7" y="662.7" style="fill:#C7C7C9;" width="78.8" height="80.2"/>
<rect id="tl003" x="1122.2" y="662.7" style="fill:#C7C7C9;" width="91.9" height="80.2"/>
<rect id="tl02006" x="1217.8" y="662.7" style="fill:#C7C7C9;" width="91.9" height="80.2"/>
<path id="tl02007" style="fill:#C7C7C9;" d="M1603.2,742.9H1516v-80.6h76.9C1596.3,689.1,1599.7,716,1603.2,742.9z"/>
<path id="tl0010" style="fill:#C7C7C9;" d="M825.9,788.3v76.5H734c-9.5-25.6-19.2-51-28.7-76.5H825.9z"/>
<rect id="tl00009" x="829.7" y="788.3" style="fill:#C7C7C9;" width="93.8" height="76.9"/>
<rect id="tl00008" x="927.2" y="788.3" style="fill:#C7C7C9;" width="43.1" height="76.9"/>
<rect id="tl00007" x="974" y="788.3" style="fill:#C7C7C9;" width="65.6" height="76.9"/>
<rect id="tl0006" x="1043.4" y="788.3" style="fill:#C7C7C9;" width="69.4" height="76.9"/>
<rect id="tl0005" x="1116.5" y="788.3" style="fill:#C7C7C9;" width="50.6" height="76.9"/>
<rect id="tl0004" x="1170.9" y="788.3" style="fill:#C7C7C9;" width="45" height="76.9"/>
<rect id="tl02014" x="1219.7" y="788.3" style="fill:#C7C7C9;" width="45" height="76.9"/>
<rect id="tl02013" x="1268.4" y="788.3" style="fill:#C7C7C9;" width="45" height="76.9"/>
<rect id="tl02012" x="1317.2" y="788.3" style="fill:#C7C7C9;" width="45" height="76.9"/>
<rect id="tl02011" x="1365.9" y="788.3" style="fill:#C7C7C9;" width="45" height="76.9"/>
<rect id="tl02010" x="1414.7" y="788.3" style="fill:#C7C7C9;" width="45" height="76.9"/>
<rect id="tl02009" x="1463.4" y="788.3" style="fill:#C7C7C9;" width="45" height="76.9"/>
<path id="tl02009_1_" style="fill:#C7C7C9;" d="M1619,864.8h-106.8v-76.5h96.8C1612.3,813.8,1615.7,839.4,1619,864.8z"/>
<path id="tuf2003" style="fill:#C7C7C9;" d="M595.3,864.8h-86.2v-76.9h65.7C581.6,813.6,588.5,839.2,595.3,864.8z"/>
<path id="Aule_Ue4_0_L.TosoMontanari" style="fill:#C7C7C9;" d="M498.9,497l-213,95.9l-26.3-101.3l42.2-42.2l22.5,22.5l133.2-133.2
	C471.4,391.5,485.1,444.3,498.9,497z"/>
<path id="Aule_Ue4_0_G.Ciamician" style="fill:#C7C7C9;" d="M541.5,660.4H285.9v-62.8l214-96.6
	C513.8,554.1,527.6,607.3,541.5,660.4z"/>
<polygon id="bagno3" style="fill:#C7C7C9;" points="303.7,447.6 324.4,468.2 396.5,396 362.8,362.3 313.1,411.9 326.2,425.1 "/>
<path id="Servizi_Ue4_0_SalaRiunioni1" style="fill:#C7C7C9;" d="M189,487l-66.5,66.5l-50-50c24.3-29.9,46.3-53.9,62.5-70.7L189,487
	z"/>
<path id="Servizi_Ue4_0_SalaRiunioni2" style="fill:#C7C7C9;" d="M258.6,418.1L192,484.7l-54.5-54.5c2.1-2.2,4.1-4.2,5.9-6
	c21.7-22,42.9-41.5,62.6-58.6L258.6,418.1z"/>
<path id="Servizi_Ue4_0_SalaRiunioni3" style="fill:#C7C7C9;" d="M363.9,312.8L261.2,415.5l-52.4-52.4c46.5-40,84.3-65.6,99.6-75.8
	c5.7-3.8,11.7-7.7,18.1-11.8L363.9,312.8z"/>
<path id="Servizi_Ue4_0_ServiziAmministrativiStudenti" style="fill:#C7C7C9;" d="M443,282.8l-40.7,9.4l-8.9-8.9l-26.9,26.9
	l-36.7-36.7c26.3-16.5,58.7-35.2,96.8-53.7C432,240.8,437.5,261.8,443,282.8z"/>
<path id="vanoscala1" style="fill:#C7C7C9;" d="M595.3,300.4v45.8c-16.9,7.1-33.8,14.1-50.6,21.2c-8.5-22.3-16.9-44.8-25.4-67.1
	L595.3,300.4L595.3,300.4z"/>
<rect id="ascensore8" x="558.1" y="267.6" style="fill:#C7C7C9;" width="37.2" height="29"/>
<rect id="tlt002" x="539" y="231" style="fill:#C7C7C9;" width="56.3" height="33.8"/>
<path id="vanoscala4" style="fill:#C7C7C9;" d="M722.8,662.3v86.2h-32.1c-10.6-28.8-21.1-57.5-31.7-86.3L722.8,662.3L722.8,662.3z"
	/>
<rect id="ascensore7" x="351.5" y="838.5" style="fill:#C7C7C9;" width="24.4" height="24.4"/>
<rect id="ascensore6" x="323.4" y="797.3" style="fill:#C7C7C9;" width="24.4" height="33.8"/>
<rect x="310.3" y="778.5" style="fill:#C7C7C9;" width="37.5" height="15"/>
<rect id="tlt004" x="351.5" y="778.5" style="fill:#C7C7C9;" width="24.4" height="56.3"/>
<rect id="ascensore5" x="1315.3" y="667.9" style="fill:#C7C7C9;" width="24.4" height="24.4"/>
<rect id="ascensore4" x="1399.7" y="311.6" style="fill:#C7C7C9;" width="24.4" height="23.8"/>
<rect id="ascensore3" x="1399.7" y="284.2" style="fill:#C7C7C9;" width="24.4" height="23.8"/>
<rect id="ascensore2" x="750.9" y="667.9" style="fill:#C7C7C9;" width="24.4" height="24.4"/>
<rect id="ascensore1_1_" x="1315.3" y="696" style="fill:#C7C7C9;" width="24.4" height="24.4"/>
<rect id="tlt007" x="1315.3" y="724.1" style="fill:#C7C7C9;" width="24.4" height="24.4"/>
<rect id="TLT005" x="750.9" y="696" style="fill:#C7C7C9;" width="24.4" height="56.3"/>
<rect id="tng001" x="1429.7" y="673.5" style="fill:#C7C7C9;" width="82.5" height="50.6"/>
<rect id="bagno1" x="1429.7" y="727.9" style="fill:#C7C7C9;" width="82.5" height="20.6"/>
<rect id="vanoscala5" x="237.2" y="776.6" style="fill:#C7C7C9;" width="45" height="65.6"/>
<rect id="tl02005" x="1185.9" y="240.4" style="fill:#C7C7C9;" width="138.8" height="102.3"/>
<rect id="vanoscala2" x="1328.4" y="240.4" style="fill:#C7C7C9;" width="43.1" height="69.5"/>
<rect id="vanoscala3" x="1380.9" y="677.3" style="fill:#C7C7C9;" width="43.1" height="71.3"/>
<polygon id="t0001" style="fill:#C7C7C9;" points="1395.9,271.5 1395.9,342.7 1328.4,342.7 1328.4,313.5 1375.3,313.5 1375.3,271.5
	"/>
<rect id="tf001" x="1375.3" y="240.4" style="fill:#C7C7C9;" width="20.6" height="27.4"/>
<rect id="tlt001" x="1399.7" y="240.4" style="fill:#C7C7C9;" width="24.4" height="40.2"/>
<rect id="tlt006" x="848.3" y="710.7" style="fill:#C7C7C9;" width="33.8" height="32.2"/>
<rect id="tuf2002" x="441.9" y="788" style="fill:#C7C7C9;" width="63.8" height="76.8"/>
<rect id="tuf2001" x="380.1" y="788" style="fill:#C7C7C9;" width="58.1" height="76.8"/>
<rect id="Bagni_Ue4_0_BagnoHandicap01" x="379.3" y="664.1" style="fill:#C7C7C9;" width="59" height="78.8"/>
<polygon id="Bagni_Ue4_0_Bagno01" style="fill:#C7C7C9;" points="563,742.9 441.9,742.9 441.9,664.1 541.8,664.1 "/>
<polygon id="Servizi_Ue4_0_Portineria" style="fill:#C7C7C9;" points="237.2,673.5 237.2,704.9 152.8,704.9 142.5,694.6
	200.4,636.7 "/>
<path id="Ue4_0_AulaP" style="fill:#C7C7C9;" d="M196.9,633.2L139,691.1l-1.2-1.2c-19.7-19.7-39.4-39.3-59-59
	c-19.4-19.4-38.8-38.8-58.1-58.2c12.6-18.3,28.5-40.2,47.7-64.2c0.6-0.7,1.1-1.4,1.7-2.1L196.9,633.2z"/>
<g>
	<g>
		<g>
			<g>
				<line id="Path_Ue4_0_0050" style="fill:none;stroke:#FF1A1A;stroke-width:3;stroke-miterlimit:10;" x1="218" y1="636" x2="224.1" y2="629.9"/>
				<line id="Path_Ue4_0_0051" style="fill:none;stroke:#FF1A1A;stroke-width:3;stroke-miterlimit:10;" x1="208.8" y1="645.1" x2="215" y2="639"/>
			</g>
			<g>
				<line id="Path_Ue4_0_0052" style="fill:none;stroke:#FF1A1A;stroke-width:3;stroke-miterlimit:10;" x1="233.2" y1="620.8" x2="239.3" y2="614.7"/>
				<line id="Path_Ue4_0_0053" style="fill:none;stroke:#FF1A1A;stroke-width:3;stroke-miterlimit:10;" x1="224.1" y1="629.9" x2="230.2" y2="623.8"/>
			</g>
		</g>
	</g>
</g>
<g>
	<g>
		<g>
			<g>
				<line id="Path_Ue4_0_0122" style="fill:none;stroke:#FF1A1A;stroke-width:3;stroke-miterlimit:10;" x1="167.2" y1="585.2" x2="173.3" y2="579.1"/>
				<line id="Path_Ue4_0_0123" style="fill:none;stroke:#FF1A1A;stroke-width:3;stroke-miterlimit:10;" x1="158" y1="594.3" x2="164.2" y2="588.2"/>
			</g>
			<g>
				<line id="Path_Ue4_0_0124" style="fill:none;stroke:#FF1A1A;stroke-width:3;stroke-miterlimit:10;" x1="182.4" y1="570" x2="188.5" y2="563.9"/>
				<line id="Path_Ue4_0_0125" style="fill:none;stroke:#FF1A1A;stroke-width:3;stroke-miterlimit:10;" x1="173.3" y1="579.1" x2="179.4" y2="573"/>
			</g>
		</g>
	</g>
</g>
<g>
	<g>
		<g>
			<g>
				<line id="Path_Ue4_0_0054" style="fill:none;stroke:#FF1A1A;stroke-width:3;stroke-miterlimit:10;" x1="157.9" y1="533.4" x2="163" y2="538.5"/>
				<line id="Path_Ue4_0_0055" style="fill:none;stroke:#FF1A1A;stroke-width:3;stroke-miterlimit:10;" x1="150.3" y1="525.7" x2="155.4" y2="530.9"/>
			</g>
			<g>
				<line id="Path_Ue4_0_0056" style="fill:none;stroke:#FF1A1A;stroke-width:3;stroke-miterlimit:10;" x1="170.6" y1="546.1" x2="175.7" y2="551.2"/>
				<line id="Path_Ue4_0_0057" style="fill:none;stroke:#FF1A1A;stroke-width:3;stroke-miterlimit:10;" x1="163" y1="538.5" x2="168.1" y2="543.6"/>
			</g>
			<g>
				<line id="Path_Ue4_0_0058" style="fill:none;stroke:#FF1A1A;stroke-width:3;stroke-miterlimit:10;" x1="183.3" y1="558.8" x2="188.4" y2="563.9"/>
				<line id="Path_Ue4_0_0059" style="fill:none;stroke:#FF1A1A;stroke-width:3;stroke-miterlimit:10;" x1="175.7" y1="551.2" x2="180.8" y2="556.3"/>
			</g>
			<g>
				<line id="Path_Ue4_0_0060" style="fill:none;stroke:#FF1A1A;stroke-width:3;stroke-miterlimit:10;" x1="196" y1="571.5" x2="201.1" y2="576.6"/>
				<line id="Path_Ue4_0_0061" style="fill:none;stroke:#FF1A1A;stroke-width:3;stroke-miterlimit:10;" x1="188.4" y1="563.9" x2="193.6" y2="569"/>
			</g>
			<g>
				<line id="Path_Ue4_0_0062" style="fill:none;stroke:#FF1A1A;stroke-width:3;stroke-miterlimit:10;" x1="208.7" y1="584.2" x2="213.8" y2="589.3"/>
				<line id="Path_Ue4_0_0063" style="fill:none;stroke:#FF1A1A;stroke-width:3;stroke-miterlimit:10;" x1="201.1" y1="576.6" x2="206.3" y2="581.8"/>
			</g>
			<g>
				<line id="Path_Ue4_0_0064" style="fill:none;stroke:#FF1A1A;stroke-width:3;stroke-miterlimit:10;" x1="221.5" y1="596.9" x2="226.5" y2="602"/>
				<line id="Path_Ue4_0_0065" style="fill:none;stroke:#FF1A1A;stroke-width:3;stroke-miterlimit:10;" x1="213.8" y1="589.3" x2="219" y2="594.5"/>
			</g>
			<g>
				<line id="Path_Ue4_0_0066" style="fill:none;stroke:#FF1A1A;stroke-width:3;stroke-miterlimit:10;" x1="234.2" y1="609.7" x2="239.3" y2="614.7"/>
				<line id="Path_Ue4_0_0067" style="fill:none;stroke:#FF1A1A;stroke-width:3;stroke-miterlimit:10;" x1="226.5" y1="602" x2="231.7" y2="607.2"/>
			</g>
		</g>
	</g>
</g>
<g>
	<g>
		<g>
			<g>
				<line id="Path_Ue4_0_0068" style="fill:none;stroke:#FF1A1A;stroke-width:3;stroke-miterlimit:10;" x1="171.3" y1="532.1" x2="176.2" y2="527.2"/>
				<line id="Path_Ue4_0_0069" style="fill:none;stroke:#FF1A1A;stroke-width:3;stroke-miterlimit:10;" x1="163.9" y1="539.4" x2="168.9" y2="534.4"/>
			</g>
			<g>
				<line id="Path_Ue4_0_0070" style="fill:none;stroke:#FF1A1A;stroke-width:3;stroke-miterlimit:10;" x1="183.5" y1="519.8" x2="188.4" y2="514.9"/>
				<line id="Path_Ue4_0_0071" style="fill:none;stroke:#FF1A1A;stroke-width:3;stroke-miterlimit:10;" x1="176.2" y1="527.2" x2="181.1" y2="522.2"/>
			</g>
			<g>
				<line id="Path_Ue4_0_0072" style="fill:none;stroke:#FF1A1A;stroke-width:3;stroke-miterlimit:10;" x1="195.7" y1="507.6" x2="200.6" y2="502.7"/>
				<line id="Path_Ue4_0_0073" style="fill:none;stroke:#FF1A1A;stroke-width:3;stroke-miterlimit:10;" x1="188.4" y1="514.9" x2="193.4" y2="510"/>
			</g>
			<g>
				<line id="Path_Ue4_0_0074" style="fill:none;stroke:#FF1A1A;stroke-width:3;stroke-miterlimit:10;" x1="208" y1="495.3" x2="212.9" y2="490.4"/>
				<line id="Path_Ue4_0_0075" style="fill:none;stroke:#FF1A1A;stroke-width:3;stroke-miterlimit:10;" x1="200.6" y1="502.7" x2="205.6" y2="497.7"/>
			</g>
			<g>
				<line id="Path_Ue4_0_0076" style="fill:none;stroke:#FF1A1A;stroke-width:3;stroke-miterlimit:10;" x1="220.2" y1="483.1" x2="225.1" y2="478.2"/>
				<line id="Path_Ue4_0_0077" style="fill:none;stroke:#FF1A1A;stroke-width:3;stroke-miterlimit:10;" x1="212.9" y1="490.4" x2="217.8" y2="485.5"/>
			</g>
			<g>
				<line id="Path_Ue4_0_0078" style="fill:none;stroke:#FF1A1A;stroke-width:3;stroke-miterlimit:10;" x1="232.4" y1="470.9" x2="237.3" y2="466"/>
				<line id="Path_Ue4_0_0079" style="fill:none;stroke:#FF1A1A;stroke-width:3;stroke-miterlimit:10;" x1="225.1" y1="478.2" x2="230.1" y2="473.2"/>
			</g>
			<g>
				<line id="Path_Ue4_0_0080" style="fill:none;stroke:#FF1A1A;stroke-width:3;stroke-miterlimit:10;" x1="244.7" y1="458.6" x2="249.6" y2="453.7"/>
				<line id="Path_Ue4_0_0081" style="fill:none;stroke:#FF1A1A;stroke-width:3;stroke-miterlimit:10;" x1="237.3" y1="466" x2="242.3" y2="461"/>
			</g>
			<g>
				<line id="Path_Ue4_0_0082" style="fill:none;stroke:#FF1A1A;stroke-width:3;stroke-miterlimit:10;" x1="256.9" y1="446.4" x2="261.8" y2="441.5"/>
				<line id="Path_Ue4_0_0083" style="fill:none;stroke:#FF1A1A;stroke-width:3;stroke-miterlimit:10;" x1="249.6" y1="453.7" x2="254.5" y2="448.8"/>
			</g>
			<g>
				<line id="Path_Ue4_0_0084" style="fill:none;stroke:#FF1A1A;stroke-width:3;stroke-miterlimit:10;" x1="269.2" y1="434.2" x2="274.1" y2="429.3"/>
				<line id="Path_Ue4_0_0085" style="fill:none;stroke:#FF1A1A;stroke-width:3;stroke-miterlimit:10;" x1="261.8" y1="441.5" x2="266.8" y2="436.5"/>
			</g>
			<g>
				<line id="Path_Ue4_0_0086" style="fill:none;stroke:#FF1A1A;stroke-width:3;stroke-miterlimit:10;" x1="281.4" y1="421.9" x2="286.3" y2="417"/>
				<line id="Path_Ue4_0_0087" style="fill:none;stroke:#FF1A1A;stroke-width:3;stroke-miterlimit:10;" x1="274.1" y1="429.3" x2="279" y2="424.3"/>
			</g>
			<g>
				<line id="Path_Ue4_0_0088" style="fill:none;stroke:#FF1A1A;stroke-width:3;stroke-miterlimit:10;" x1="293.6" y1="409.7" x2="298.5" y2="404.8"/>
				<line id="Path_Ue4_0_0089" style="fill:none;stroke:#FF1A1A;stroke-width:3;stroke-miterlimit:10;" x1="286.3" y1="417" x2="291.3" y2="412.1"/>
			</g>
			<g>
				<line id="Path_Ue4_0_0090" style="fill:none;stroke:#FF1A1A;stroke-width:3;stroke-miterlimit:10;" x1="305.9" y1="397.4" x2="310.8" y2="392.5"/>
				<line id="Path_Ue4_0_0091" style="fill:none;stroke:#FF1A1A;stroke-width:3;stroke-miterlimit:10;" x1="298.5" y1="404.8" x2="303.5" y2="399.8"/>
			</g>
			<g>
				<line id="Path_Ue4_0_0092" style="fill:none;stroke:#FF1A1A;stroke-width:3;stroke-miterlimit:10;" x1="318.1" y1="385.2" x2="323" y2="380.3"/>
				<line id="Path_Ue4_0_0093" style="fill:none;stroke:#FF1A1A;stroke-width:3;stroke-miterlimit:10;" x1="310.8" y1="392.5" x2="315.7" y2="387.6"/>
			</g>
			<g>
				<line id="Path_Ue4_0_0094" style="fill:none;stroke:#FF1A1A;stroke-width:3;stroke-miterlimit:10;" x1="330.3" y1="373" x2="335.2" y2="368.1"/>
				<line id="Path_Ue4_0_0095" style="fill:none;stroke:#FF1A1A;stroke-width:3;stroke-miterlimit:10;" x1="323" y1="380.3" x2="328" y2="375.3"/>
			</g>
			<g>
				<line id="Path_Ue4_0_0096" style="fill:none;stroke:#FF1A1A;stroke-width:3;stroke-miterlimit:10;" x1="342.6" y1="360.7" x2="347.5" y2="355.8"/>
				<line id="Path_Ue4_0_0097" style="fill:none;stroke:#FF1A1A;stroke-width:3;stroke-miterlimit:10;" x1="335.2" y1="368.1" x2="340.2" y2="363.1"/>
			</g>
			<g>
				<line id="Path_Ue4_0_0098" style="fill:none;stroke:#FF1A1A;stroke-width:3;stroke-miterlimit:10;" x1="354.8" y1="348.5" x2="359.7" y2="343.6"/>
				<line id="Path_Ue4_0_0099" style="fill:none;stroke:#FF1A1A;stroke-width:3;stroke-miterlimit:10;" x1="347.5" y1="355.8" x2="352.4" y2="350.9"/>
			</g>
			<g>
				<line id="Path_Ue4_0_0100" style="fill:none;stroke:#FF1A1A;stroke-width:3;stroke-miterlimit:10;" x1="367.1" y1="336.3" x2="372" y2="331.4"/>
				<line id="Path_Ue4_0_0101" style="fill:none;stroke:#FF1A1A;stroke-width:3;stroke-miterlimit:10;" x1="359.7" y1="343.6" x2="364.7" y2="338.6"/>
			</g>
			<g>
				<line id="Path_Ue4_0_0102" style="fill:none;stroke:#FF1A1A;stroke-width:3;stroke-miterlimit:10;" x1="379.3" y1="324" x2="384.2" y2="319.1"/>
				<line id="Path_Ue4_0_0103" style="fill:none;stroke:#FF1A1A;stroke-width:3;stroke-miterlimit:10;" x1="372" y1="331.4" x2="376.9" y2="326.4"/>
			</g>
			<g>
				<line id="Path_Ue4_0_0104" style="fill:none;stroke:#FF1A1A;stroke-width:3;stroke-miterlimit:10;" x1="391.5" y1="311.8" x2="396.4" y2="306.9"/>
				<line id="Path_Ue4_0_0105" style="fill:none;stroke:#FF1A1A;stroke-width:3;stroke-miterlimit:10;" x1="384.2" y1="319.1" x2="389.2" y2="314.2"/>
			</g>
		</g>
	</g>
</g>
<g>
	<g>
		<g>
			<line id="Path_Ue4_0_0106" style="fill:none;stroke:#FF1A1A;stroke-width:3;stroke-miterlimit:10;" x1="232" y1="460.6" x2="237.4" y2="465.9"/>
			<line id="Path_Ue4_0_0107" style="fill:none;stroke:#FF1A1A;stroke-width:3;stroke-miterlimit:10;" x1="224.1" y1="452.6" x2="229.5" y2="458"/>
		</g>
	</g>
</g>
<g>
	<g>
		<g>
			<line id="Path_Ue4_0_0108" style="fill:none;stroke:#FF1A1A;stroke-width:3;stroke-miterlimit:10;" x1="322.4" y1="370.3" x2="327.7" y2="375.6"/>
			<line id="Path_Ue4_0_0109" style="fill:none;stroke:#FF1A1A;stroke-width:3;stroke-miterlimit:10;" x1="314.4" y1="362.3" x2="319.8" y2="367.7"/>
		</g>
	</g>
</g>
<g>
	<g>
		<g>
			<line id="Path_Ue4_0_0110" style="fill:none;stroke:#FF1A1A;stroke-width:3;stroke-miterlimit:10;" x1="388.4" y1="298.9" x2="383.1" y2="293.6"/>
			<line id="Path_Ue4_0_0111" style="fill:none;stroke:#FF1A1A;stroke-width:3;stroke-miterlimit:10;" x1="396.4" y1="306.9" x2="391" y2="301.5"/>
		</g>
	</g>
</g>
<g>
	<g>
		<g>
			<g>
				<line id="Path_Ue4_0_0112" style="fill:none;stroke:#FF1A1A;stroke-width:3;stroke-miterlimit:10;" x1="264.4" y1="548.9" x2="259" y2="554.2"/>
				<line id="Path_Ue4_0_0113" style="fill:none;stroke:#FF1A1A;stroke-width:3;stroke-miterlimit:10;" x1="272.4" y1="540.8" x2="267" y2="546.3"/>
			</g>
			<g>
				<line id="Path_Ue4_0_0114" style="fill:none;stroke:#FF1A1A;stroke-width:3;stroke-miterlimit:10;" x1="251" y1="562.3" x2="245.6" y2="567.6"/>
				<line id="Path_Ue4_0_0115" style="fill:none;stroke:#FF1A1A;stroke-width:3;stroke-miterlimit:10;" x1="259" y1="554.2" x2="253.6" y2="559.7"/>
			</g>
			<g>
				<line id="Path_Ue4_0_0116" style="fill:none;stroke:#FF1A1A;stroke-width:3;stroke-miterlimit:10;" x1="237.6" y1="575.6" x2="232.3" y2="581"/>
				<line id="Path_Ue4_0_0117" style="fill:none;stroke:#FF1A1A;stroke-width:3;stroke-miterlimit:10;" x1="245.6" y1="567.6" x2="240.2" y2="573"/>
			</g>
			<g>
				<line id="Path_Ue4_0_0118" style="fill:none;stroke:#FF1A1A;stroke-width:3;stroke-miterlimit:10;" x1="224.2" y1="589" x2="218.9" y2="594.4"/>
				<line id="Path_Ue4_0_0119" style="fill:none;stroke:#FF1A1A;stroke-width:3;stroke-miterlimit:10;" x1="232.3" y1="581" x2="226.8" y2="586.4"/>
			</g>
		</g>
	</g>
</g>
<g>
	<g>
		<g>
			<line id="Path_Ue4_0_0120" style="fill:none;stroke:#FF1A1A;stroke-width:3;stroke-miterlimit:10;" x1="249.6" y1="625.1" x2="256.6" y2="632"/>
			<line id="Path_Ue4_0_0121" style="fill:none;stroke:#FF1A1A;stroke-width:3;stroke-miterlimit:10;" x1="239.3" y1="614.7" x2="246.3" y2="621.7"/>
		</g>
	</g>
</g>
<g>
	<g>
		<g>
			<g>
				<line id="Path_Ue4_0_0000" style="fill:none;stroke:#FF1A1A;stroke-width:3;stroke-miterlimit:10;" x1="277.1" y1="632" x2="271.2" y2="632"/>
				<line id="Path_Ue4_0_0001" style="fill:none;stroke:#FF1A1A;stroke-width:3;stroke-miterlimit:10;" x1="285.9" y1="632" x2="279.9" y2="632"/>
			</g>
			<g>
				<line id="Path_Ue4_0_0002" style="fill:none;stroke:#FF1A1A;stroke-width:3;stroke-miterlimit:10;" x1="262.4" y1="632" x2="256.6" y2="632"/>
				<line id="Path_Ue4_0_0003" style="fill:none;stroke:#FF1A1A;stroke-width:3;stroke-miterlimit:10;" x1="271.2" y1="632" x2="265.3" y2="632"/>
			</g>
		</g>
	</g>
</g>
<g>
	<g>
		<g>
			<g>
				<line id="Path_Ue4_0_0004" style="fill:none;stroke:#FF1A1A;stroke-width:3;stroke-miterlimit:10;" x1="256.6" y1="643" x2="256.6" y2="650.3"/>
				<line id="Path_Ue4_0_0005" style="fill:none;stroke:#FF1A1A;stroke-width:3;stroke-miterlimit:10;" x1="256.6" y1="632" x2="256.6" y2="639.4"/>
			</g>
			<g>
				<line id="Path_Ue4_0_0006" style="fill:none;stroke:#FF1A1A;stroke-width:3;stroke-miterlimit:10;" x1="256.6" y1="661.3" x2="256.6" y2="668.6"/>
				<line id="Path_Ue4_0_0007" style="fill:none;stroke:#FF1A1A;stroke-width:3;stroke-miterlimit:10;" x1="256.6" y1="650.3" x2="256.6" y2="657.7"/>
			</g>
			<g>
				<line id="Path_Ue4_0_0008" style="fill:none;stroke:#FF1A1A;stroke-width:3;stroke-miterlimit:10;" x1="256.6" y1="679.6" x2="256.6" y2="687"/>
				<line id="Path_Ue4_0_0009" style="fill:none;stroke:#FF1A1A;stroke-width:3;stroke-miterlimit:10;" x1="256.6" y1="668.6" x2="256.6" y2="676.1"/>
			</g>
			<g>
				<line id="Path_Ue4_0_0010" style="fill:none;stroke:#FF1A1A;stroke-width:3;stroke-miterlimit:10;" x1="256.6" y1="698" x2="256.6" y2="705.3"/>
				<line id="Path_Ue4_0_0011" style="fill:none;stroke:#FF1A1A;stroke-width:3;stroke-miterlimit:10;" x1="256.6" y1="687" x2="256.6" y2="694.4"/>
			</g>
			<g>
				<line id="Path_Ue4_0_0012" style="fill:none;stroke:#FF1A1A;stroke-width:3;stroke-miterlimit:10;" x1="256.6" y1="716.3" x2="256.6" y2="723.6"/>
				<line id="Path_Ue4_0_0013" style="fill:none;stroke:#FF1A1A;stroke-width:3;stroke-miterlimit:10;" x1="256.6" y1="705.3" x2="256.6" y2="712.7"/>
			</g>
			<g>
				<line id="Path_Ue4_0_0014" style="fill:none;stroke:#FF1A1A;stroke-width:3;stroke-miterlimit:10;" x1="256.6" y1="734.6" x2="256.6" y2="741.9"/>
				<line id="Path_Ue4_0_0015" style="fill:none;stroke:#FF1A1A;stroke-width:3;stroke-miterlimit:10;" x1="256.6" y1="723.6" x2="256.6" y2="731"/>
			</g>
			<g>
				<line id="Path_Ue4_0_0016" style="fill:none;stroke:#FF1A1A;stroke-width:3;stroke-miterlimit:10;" x1="256.6" y1="752.9" x2="256.6" y2="760.3"/>
				<line id="Path_Ue4_0_0017" style="fill:none;stroke:#FF1A1A;stroke-width:3;stroke-miterlimit:10;" x1="256.6" y1="741.9" x2="256.6" y2="749.4"/>
			</g>
		</g>
	</g>
</g>
<g>
	<g>
		<g>
			<g>
				<line id="Path_Ue4_0_0018" style="fill:none;stroke:#FF1A1A;stroke-width:3;stroke-miterlimit:10;" x1="491.9" y1="760.3" x2="484.9" y2="760.3"/>
				<line id="Path_Ue4_0_0019" style="fill:none;stroke:#FF1A1A;stroke-width:3;stroke-miterlimit:10;" x1="502.5" y1="760.3" x2="495.3" y2="760.3"/>
			</g>
			<g>
				<line id="Path_Ue4_0_0020" style="fill:none;stroke:#FF1A1A;stroke-width:3;stroke-miterlimit:10;" x1="474.3" y1="760.3" x2="467.3" y2="760.3"/>
				<line id="Path_Ue4_0_0021" style="fill:none;stroke:#FF1A1A;stroke-width:3;stroke-miterlimit:10;" x1="484.9" y1="760.3" x2="477.8" y2="760.3"/>
			</g>
			<g>
				<line id="Path_Ue4_0_0022" style="fill:none;stroke:#FF1A1A;stroke-width:3;stroke-miterlimit:10;" x1="456.8" y1="760.3" x2="449.8" y2="760.3"/>
				<line id="Path_Ue4_0_0023" style="fill:none;stroke:#FF1A1A;stroke-width:3;stroke-miterlimit:10;" x1="467.3" y1="760.3" x2="460.2" y2="760.3"/>
			</g>
			<g>
				<line id="Path_Ue4_0_0024" style="fill:none;stroke:#FF1A1A;stroke-width:3;stroke-miterlimit:10;" x1="439.2" y1="760.3" x2="432.2" y2="760.3"/>
				<line id="Path_Ue4_0_0025" style="fill:none;stroke:#FF1A1A;stroke-width:3;stroke-miterlimit:10;" x1="449.8" y1="760.3" x2="442.6" y2="760.3"/>
			</g>
			<g>
				<line id="Path_Ue4_0_0026" style="fill:none;stroke:#FF1A1A;stroke-width:3;stroke-miterlimit:10;" x1="421.7" y1="760.3" x2="414.6" y2="760.3"/>
				<line id="Path_Ue4_0_0027" style="fill:none;stroke:#FF1A1A;stroke-width:3;stroke-miterlimit:10;" x1="432.2" y1="760.3" x2="425.1" y2="760.3"/>
			</g>
			<g>
				<line id="Path_Ue4_0_0028" style="fill:none;stroke:#FF1A1A;stroke-width:3;stroke-miterlimit:10;" x1="404.1" y1="760.3" x2="397.1" y2="760.3"/>
				<line id="Path_Ue4_0_0029" style="fill:none;stroke:#FF1A1A;stroke-width:3;stroke-miterlimit:10;" x1="414.6" y1="760.3" x2="407.5" y2="760.3"/>
			</g>
			<g>
				<line id="Path_Ue4_0_0030" style="fill:none;stroke:#FF1A1A;stroke-width:3;stroke-miterlimit:10;" x1="386.5" y1="760.3" x2="379.5" y2="760.3"/>
				<line id="Path_Ue4_0_0031" style="fill:none;stroke:#FF1A1A;stroke-width:3;stroke-miterlimit:10;" x1="397.1" y1="760.3" x2="389.9" y2="760.3"/>
			</g>
			<g>
				<line id="Path_Ue4_0_0032" style="fill:none;stroke:#FF1A1A;stroke-width:3;stroke-miterlimit:10;" x1="369" y1="760.3" x2="361.9" y2="760.3"/>
				<line id="Path_Ue4_0_0033" style="fill:none;stroke:#FF1A1A;stroke-width:3;stroke-miterlimit:10;" x1="379.5" y1="760.3" x2="372.4" y2="760.3"/>
			</g>
			<g>
				<line id="Path_Ue4_0_0034" style="fill:none;stroke:#FF1A1A;stroke-width:3;stroke-miterlimit:10;" x1="351.4" y1="760.3" x2="344.4" y2="760.3"/>
				<line id="Path_Ue4_0_0035" style="fill:none;stroke:#FF1A1A;stroke-width:3;stroke-miterlimit:10;" x1="361.9" y1="760.3" x2="354.8" y2="760.3"/>
			</g>
			<g>
				<line id="Path_Ue4_0_0036" style="fill:none;stroke:#FF1A1A;stroke-width:3;stroke-miterlimit:10;" x1="333.8" y1="760.3" x2="326.8" y2="760.3"/>
				<line id="Path_Ue4_0_0037" style="fill:none;stroke:#FF1A1A;stroke-width:3;stroke-miterlimit:10;" x1="344.4" y1="760.3" x2="337.2" y2="760.3"/>
			</g>
			<g>
				<line id="Path_Ue4_0_0038" style="fill:none;stroke:#FF1A1A;stroke-width:3;stroke-miterlimit:10;" x1="316.3" y1="760.3" x2="309.2" y2="760.3"/>
				<line id="Path_Ue4_0_0039" style="fill:none;stroke:#FF1A1A;stroke-width:3;stroke-miterlimit:10;" x1="326.8" y1="760.3" x2="319.7" y2="760.3"/>
			</g>
			<g>
				<line id="Path_Ue4_0_0040" style="fill:none;stroke:#FF1A1A;stroke-width:3;stroke-miterlimit:10;" x1="298.7" y1="760.3" x2="291.7" y2="760.3"/>
				<line id="Path_Ue4_0_0041" style="fill:none;stroke:#FF1A1A;stroke-width:3;stroke-miterlimit:10;" x1="309.2" y1="760.3" x2="302.1" y2="760.3"/>
			</g>
			<g>
				<line id="Path_Ue4_0_0042" style="fill:none;stroke:#FF1A1A;stroke-width:3;stroke-miterlimit:10;" x1="281.1" y1="760.3" x2="274.1" y2="760.3"/>
				<line id="Path_Ue4_0_0043" style="fill:none;stroke:#FF1A1A;stroke-width:3;stroke-miterlimit:10;" x1="291.7" y1="760.3" x2="284.6" y2="760.3"/>
			</g>
			<g>
				<line id="Path_Ue4_0_0044" style="fill:none;stroke:#FF1A1A;stroke-width:3;stroke-miterlimit:10;" x1="263.6" y1="760.3" x2="256.6" y2="760.3"/>
				<line id="Path_Ue4_0_0045" style="fill:none;stroke:#FF1A1A;stroke-width:3;stroke-miterlimit:10;" x1="274.1" y1="760.3" x2="267" y2="760.3"/>
			</g>
		</g>
	</g>
</g>
<g>
	<g>
		<g>
			<line id="Path_Ue4_0_0046" style="fill:none;stroke:#FF1A1A;stroke-width:3;stroke-miterlimit:10;" x1="408.8" y1="753.3" x2="408.8" y2="760.3"/>
			<line id="Path_Ue4_0_0047" style="fill:none;stroke:#FF1A1A;stroke-width:3;stroke-miterlimit:10;" x1="408.8" y1="742.9" x2="408.8" y2="749.9"/>
		</g>
	</g>
</g>
<g>
	<g>
		<g>
			<line id="Path_Ue4_0_0048" style="fill:none;stroke:#FF1A1A;stroke-width:3;stroke-miterlimit:10;" x1="502.5" y1="753.3" x2="502.5" y2="760.3"/>
			<line id="Path_Ue4_0_0049" style="fill:none;stroke:#FF1A1A;stroke-width:3;stroke-miterlimit:10;" x1="502.5" y1="742.9" x2="502.5" y2="749.9"/>
		</g>
	</g>
</g>
<rect id="ALMAmap_Ue4_0_Kiosk" x="202" y="639.3" transform="matrix(0.7071 0.7071 -0.7071 0.7071 516.0682 39.1794)" style="fill:none;" width="17.5" height="6.5"/>
</svg>
