<?xml version="1.0" encoding="utf-8"?>
<!-- Generator: Adobe Illustrator 22.1.0, SVG Export Plug-In . SVG Version: 6.00 Build 0)  -->
<svg version="1.1" xmlns="http://www.w3.org/2000/svg" xmlns:xlink="http://www.w3.org/1999/xlink" x="0px" y="0px"
	 viewBox="0 0 1657 910.2" style="enable-background:new 0 0 1657 910.2;" xml:space="preserve">
<g id="Livello_3">
	<path style="fill:#D7D7DC;stroke:#9E9D9C;stroke-width:12;stroke-miterlimit:10;" d="M1620.8,154.1v21.8c-3.5,8.5-7,17-10.5,25.5
		c-11.8,28.9-23.7,57.8-35.5,86.7l-3.6,9H1500l-20,70.9l-13.3,46.9l-1,3.6l-10.7,37.9l-89.6-27.7l-3.6-1.1l-20.9-6.5
		c-2.4,6.8-4.8,13.7-7.2,20.5h-98.4v83.7H1170v249.9H804.4V604.6l-1.9-0.2l-73.1-9.3l-3.8-0.5l-7.7-1l-44.8-5.7l-1.3-0.1l-88.7-11.3
		l-58.1-7.4l-3.8-0.5l-57.8-7.3l-13.5-1.7l-219.8-27.9v-319h869.6V104.8h343c9.2-9.6,18.3-19.2,27.5-28.8h78.9
		C1573,102,1596.9,128.1,1620.8,154.1z"/>
	<rect id="Laboratori_Ue5_-1_Lab03" x="236.3" y="402.1" style="fill:#C7C7C9;" width="73.1" height="93.8"/>
	<polygon style="fill:#C7C7C9;" points="463.1,402.1 463.1,454.6 442.5,454.6 442.5,495.9 390,495.9 390,402.1 	"/>
	<rect id="ptlocserv02_1_" x="313.2" y="402.1" style="fill:#C7C7C9;" width="73.1" height="45"/>
	<rect id="ptlocserv02_2_" x="313.1" y="450.8" style="fill:#C7C7C9;" width="73.1" height="45"/>
	<rect id="Laboratori_Ue5_-1_Lab02" x="236.3" y="355.2" style="fill:#C7C7C9;" width="106.9" height="43.1"/>
	<polygon style="fill:#C7C7C9;" points="511.9,342.1 511.9,398.3 346.9,398.3 346.9,278.3 418.2,278.3 418.2,321.4 418.1,321.4
		418.1,342.1 421.9,342.1 421.9,338.3 457.5,338.3 457.5,304.6 421.9,304.6 421.9,255.8 472.5,255.8 472.5,342.1 	"/>
	<rect id="Laboratori_Ue5_-1_Lab01" x="236.3" y="278.3" style="fill:#C7C7C9;" width="106.9" height="73.1"/>
	<rect id="Scale_Ue5_-1_Scala01" x="1299.7" y="204.9" style="fill:#C7C7C9;" width="54.4" height="60"/>
	<path id="ptw12" style="fill:#C7C7C9;" d="M1461.2,411l-10.7,38l-89.6-27.7l10-32.3l10-32.2l48.3,14.9c13.2,4.1,26.4,8.2,39.6,12.3
		C1466.3,393,1463.8,402,1461.2,411z"/>

		<rect id="Ascensori_Ue5_-1_Ascensore03" x="1333.6" y="382.8" transform="matrix(0.2954 -0.9554 0.9554 0.2954 574.5941 1570.9686)" style="fill:#C7C7C9;" width="37.5" height="26.3"/>

		<rect id="Ascensori_Ue5_-1_Ascensore02" x="1304.9" y="374.5" transform="matrix(0.2954 -0.9554 0.9554 0.2954 562.3054 1537.6964)" style="fill:#C7C7C9;" width="37.5" height="26.3"/>

		<rect id="Ascensori_Ue5_-1_Ascensore01" x="1276.2" y="365.7" transform="matrix(0.2954 -0.9554 0.9554 0.2954 550.5017 1504.1178)" style="fill:#C7C7C9;" width="37.5" height="26.3"/>

	</image>
	<rect id="Ascensori_Ue5_-1_Ascensore04" x="476.3" y="304.6" style="fill:#C7C7C9;" width="35.6" height="33.8"/>
	<rect id="Scale_Ue5_-1_Scala02" x="421.9" y="308.3" style="fill:#C7C7C9;" width="31.9" height="26.3"/>
	<polygon style="fill:#C7C7C9;" points="583.1,304.6 583.1,454.6 466.9,454.6 466.9,402.1 515.6,402.1 515.6,304.6 	"/>
	<polygon style="fill:#C7C7C9;" points="648.8,409.6 648.8,525.8 466.9,525.8 466.9,458.3 586.9,458.3 586.9,409.6 	"/>
	<rect x="1166.3" y="445.2" style="fill:#C7C7C9;" width="61.9" height="73.1"/>
	<rect x="1410" y="205.2" style="fill:#C7C7C9;" width="106.9" height="58.1"/>
	<rect x="1520.6" y="205.2" style="fill:#C7C7C9;" width="33.8" height="73.1"/>
	<path style="fill:#C7C7C9;" d="M1614.4,157.6v20.2c-3.4,7.9-6.9,15.8-10.3,23.7h-413.4v-89.6H1439c9.1-8.9,18-17.8,27.1-26.7h77.7
		C1567.3,109.3,1590.8,133.5,1614.4,157.6z"/>
	<polygon style="fill:#C7C7C9;" points="476.3,255.8 476.3,300.8 586.9,300.8 588.8,405.8 652.5,405.8 652.5,529.6 466.9,529.6
		236.3,499.6 236.3,525.8 811.9,599 811.9,767.7 1162.5,767.7 1162.5,441.5 1226.3,441.5 1228.1,441.5 1228.1,434 1329.4,434
		1336.9,413.3 1269.4,392.7 1215,375.8 1235.6,314 1235.6,284 995.6,284 995.6,274.6 982.5,274.6 982.5,254 	"/>
</g>
<g id="Livello_2">
	<g>
		<g>
			<g>
				<g>
					<g>
						<g>
							<g>
								<line id="Path_Ue5_-1_0000" style="fill:none;stroke:#FF1A1A;stroke-width:3;stroke-miterlimit:10;" x1="414" y1="321.5" x2="421.9" y2="321.5"/>
							</g>
						</g>
					</g>
					<g>
						<g>
							<g>

									<line id="Path_Ue5_-1_0001" style="fill:none;stroke:#FF1A1A;stroke-width:3;stroke-miterlimit:10;" x1="402.2" y1="321.5" x2="410.2" y2="321.5"/>
							</g>
						</g>
					</g>
				</g>
				<g>
					<g>
						<g>
							<g>

									<line id="Path_Ue5_-1_0002" style="fill:none;stroke:#FF1A1A;stroke-width:3;stroke-miterlimit:10;" x1="394.4" y1="321.5" x2="402.2" y2="321.5"/>
							</g>
						</g>
					</g>
					<g>
						<g>
							<g>

									<line id="Path_Ue5_-1_0003" style="fill:none;stroke:#FF1A1A;stroke-width:3;stroke-miterlimit:10;" x1="382.5" y1="321.5" x2="390.5" y2="321.5"/>
							</g>
						</g>
					</g>
				</g>
				<g>
					<g>
						<g>
							<g>

									<line id="Path_Ue5_-1_0004" style="fill:none;stroke:#FF1A1A;stroke-width:3;stroke-miterlimit:10;" x1="374.7" y1="321.5" x2="382.5" y2="321.5"/>
							</g>
						</g>
					</g>
					<g>
						<g>
							<g>

									<line id="Path_Ue5_-1_0005" style="fill:none;stroke:#FF1A1A;stroke-width:3;stroke-miterlimit:10;" x1="362.9" y1="321.5" x2="370.9" y2="321.5"/>
							</g>
						</g>
					</g>
				</g>
				<g>
					<g>
						<g>
							<g>
								<line id="Path_Ue5_-1_0006" style="fill:none;stroke:#FF1A1A;stroke-width:3;stroke-miterlimit:10;" x1="355" y1="321.5" x2="362.9" y2="321.5"/>
							</g>
						</g>
					</g>
					<g>
						<g>
							<g>

									<line id="Path_Ue5_-1_0007" style="fill:none;stroke:#FF1A1A;stroke-width:3;stroke-miterlimit:10;" x1="343.2" y1="321.5" x2="351.2" y2="321.5"/>
							</g>
						</g>
					</g>
				</g>
			</g>
		</g>
	</g>
	<g>
		<g>
			<g>
				<g>
					<g>
						<g>
							<g>

									<line id="Path_Ue5_-1_0008" style="fill:none;stroke:#FF1A1A;stroke-width:3;stroke-miterlimit:10;" x1="378.6" y1="328.9" x2="378.6" y2="321.5"/>
							</g>
						</g>
					</g>
					<g>
						<g>
							<g>

									<line id="Path_Ue5_-1_0009" style="fill:none;stroke:#FF1A1A;stroke-width:3;stroke-miterlimit:10;" x1="378.6" y1="339.9" x2="378.6" y2="332.4"/>
							</g>
						</g>
					</g>
				</g>
				<g>
					<g>
						<g>
							<g>

									<line id="Path_Ue5_-1_0010" style="fill:none;stroke:#FF1A1A;stroke-width:3;stroke-miterlimit:10;" x1="378.6" y1="347.3" x2="378.6" y2="339.9"/>
							</g>
						</g>
					</g>
					<g>
						<g>
							<g>

									<line id="Path_Ue5_-1_0011" style="fill:none;stroke:#FF1A1A;stroke-width:3;stroke-miterlimit:10;" x1="378.6" y1="358.3" x2="378.6" y2="350.9"/>
							</g>
						</g>
					</g>
				</g>
				<g>
					<g>
						<g>
							<g>

									<line id="Path_Ue5_-1_0012" style="fill:none;stroke:#FF1A1A;stroke-width:3;stroke-miterlimit:10;" x1="378.6" y1="365.7" x2="378.6" y2="358.3"/>
							</g>
						</g>
					</g>
					<g>
						<g>
							<g>

									<line id="Path_Ue5_-1_0013" style="fill:none;stroke:#FF1A1A;stroke-width:3;stroke-miterlimit:10;" x1="378.6" y1="376.8" x2="378.6" y2="369.3"/>
							</g>
						</g>
					</g>
				</g>
				<g>
					<g>
						<g>
							<g>

									<line id="Path_Ue5_-1_0014" style="fill:none;stroke:#FF1A1A;stroke-width:3;stroke-miterlimit:10;" x1="371.6" y1="376.8" x2="378.6" y2="376.8"/>
							</g>
						</g>
					</g>
					<g>
						<g>
							<g>

									<line id="Path_Ue5_-1_0015" style="fill:none;stroke:#FF1A1A;stroke-width:3;stroke-miterlimit:10;" x1="360.9" y1="376.8" x2="368.1" y2="376.8"/>
							</g>
						</g>
					</g>
				</g>
				<g>
					<g>
						<g>
							<g>

									<line id="Path_Ue5_-1_0016" style="fill:none;stroke:#FF1A1A;stroke-width:3;stroke-miterlimit:10;" x1="353.8" y1="376.8" x2="360.9" y2="376.8"/>
							</g>
						</g>
					</g>
					<g>
						<g>
							<g>

									<line id="Path_Ue5_-1_0017" style="fill:none;stroke:#FF1A1A;stroke-width:3;stroke-miterlimit:10;" x1="343.2" y1="376.8" x2="350.4" y2="376.8"/>
							</g>
						</g>
					</g>
				</g>
			</g>
		</g>
	</g>
	<g>
		<g>
			<g>
				<g>
					<g>
						<g>
							<g>

									<line id="Path_Ue5_-1_0018" style="fill:none;stroke:#FF1A1A;stroke-width:3;stroke-miterlimit:10;" x1="360.9" y1="383.1" x2="360.9" y2="376.8"/>
							</g>
						</g>
					</g>
					<g>
						<g>
							<g>

									<line id="Path_Ue5_-1_0019" style="fill:none;stroke:#FF1A1A;stroke-width:3;stroke-miterlimit:10;" x1="360.9" y1="392.7" x2="360.9" y2="386.2"/>
							</g>
						</g>
					</g>
				</g>
				<g>
					<g>
						<g>
							<g>

									<line id="Path_Ue5_-1_0020" style="fill:none;stroke:#FF1A1A;stroke-width:3;stroke-miterlimit:10;" x1="360.9" y1="399.1" x2="360.9" y2="392.7"/>
							</g>
						</g>
					</g>
					<g>
						<g>
							<g>

									<line id="Path_Ue5_-1_0021" style="fill:none;stroke:#FF1A1A;stroke-width:3;stroke-miterlimit:10;" x1="360.9" y1="408.6" x2="360.9" y2="402.2"/>
							</g>
						</g>
					</g>
				</g>
				<g>
					<g>
						<g>
							<g>
								<line id="Path_Ue5_-1_0022" style="fill:none;stroke:#FF1A1A;stroke-width:3;stroke-miterlimit:10;" x1="360.9" y1="415" x2="360.9" y2="408.6"/>
							</g>
						</g>
					</g>
					<g>
						<g>
							<g>

									<line id="Path_Ue5_-1_0023" style="fill:none;stroke:#FF1A1A;stroke-width:3;stroke-miterlimit:10;" x1="360.9" y1="424.6" x2="360.9" y2="418.1"/>
							</g>
						</g>
					</g>
				</g>
				<g>
					<g>
						<g>
							<g>
								<line id="Path_Ue5_-1_0024" style="fill:none;stroke:#FF1A1A;stroke-width:3;stroke-miterlimit:10;" x1="354" y1="424.6" x2="360.9" y2="424.6"/>
							</g>
						</g>
					</g>
					<g>
						<g>
							<g>

									<line id="Path_Ue5_-1_0025" style="fill:none;stroke:#FF1A1A;stroke-width:3;stroke-miterlimit:10;" x1="343.7" y1="424.6" x2="350.7" y2="424.6"/>
							</g>
						</g>
					</g>
				</g>
				<g>
					<g>
						<g>
							<g>

									<line id="Path_Ue5_-1_0026" style="fill:none;stroke:#FF1A1A;stroke-width:3;stroke-miterlimit:10;" x1="336.9" y1="424.6" x2="343.7" y2="424.6"/>
							</g>
						</g>
					</g>
					<g>
						<g>
							<g>

									<line id="Path_Ue5_-1_0027" style="fill:none;stroke:#FF1A1A;stroke-width:3;stroke-miterlimit:10;" x1="326.6" y1="424.6" x2="333.5" y2="424.6"/>
							</g>
						</g>
					</g>
				</g>
				<g>
					<g>
						<g>
							<g>

									<line id="Path_Ue5_-1_0028" style="fill:none;stroke:#FF1A1A;stroke-width:3;stroke-miterlimit:10;" x1="319.7" y1="424.6" x2="326.6" y2="424.6"/>
							</g>
						</g>
					</g>
					<g>
						<g>
							<g>

									<line id="Path_Ue5_-1_0029" style="fill:none;stroke:#FF1A1A;stroke-width:3;stroke-miterlimit:10;" x1="309.4" y1="424.6" x2="316.4" y2="424.6"/>
							</g>
						</g>
					</g>
				</g>
				<g>
					<g>
						<g>
							<g>

									<line id="Path_Ue5_-1_0030" style="fill:none;stroke:#FF1A1A;stroke-width:3;stroke-miterlimit:10;" x1="315.8" y1="424.6" x2="309.4" y2="424.6"/>
							</g>
						</g>
					</g>
					<g>
						<g>
							<g>
								<line id="Path_Ue5_-1_0031" style="fill:none;stroke:#FF1A1A;stroke-width:3;stroke-miterlimit:10;" x1="325.5" y1="424.6" x2="319" y2="424.6"/>
							</g>
						</g>
					</g>
				</g>
				<g>
					<g>
						<g>
							<g>
								<line id="Path_Ue5_-1_0032" style="fill:none;stroke:#FF1A1A;stroke-width:3;stroke-miterlimit:10;" x1="332" y1="424.6" x2="325.5" y2="424.6"/>
							</g>
						</g>
					</g>
					<g>
						<g>
							<g>

									<line id="Path_Ue5_-1_0033" style="fill:none;stroke:#FF1A1A;stroke-width:3;stroke-miterlimit:10;" x1="341.6" y1="424.6" x2="335.1" y2="424.6"/>
							</g>
						</g>
					</g>
				</g>
				<g>
					<g>
						<g>
							<g>

									<line id="Path_Ue5_-1_0034" style="fill:none;stroke:#FF1A1A;stroke-width:3;stroke-miterlimit:10;" x1="348.1" y1="424.6" x2="341.6" y2="424.6"/>
							</g>
						</g>
					</g>
					<g>
						<g>
							<g>

									<line id="Path_Ue5_-1_0035" style="fill:none;stroke:#FF1A1A;stroke-width:3;stroke-miterlimit:10;" x1="357.8" y1="424.6" x2="351.2" y2="424.6"/>
							</g>
						</g>
					</g>
				</g>
				<g>
					<g>
						<g>
							<g>

									<line id="Path_Ue5_-1_0036" style="fill:none;stroke:#FF1A1A;stroke-width:3;stroke-miterlimit:10;" x1="364.2" y1="424.6" x2="357.8" y2="424.6"/>
							</g>
						</g>
					</g>
					<g>
						<g>
							<g>

									<line id="Path_Ue5_-1_0037" style="fill:none;stroke:#FF1A1A;stroke-width:3;stroke-miterlimit:10;" x1="373.9" y1="424.6" x2="367.3" y2="424.6"/>
							</g>
						</g>
					</g>
				</g>
				<g>
					<g>
						<g>
							<g>

									<line id="Path_Ue5_-1_0038" style="fill:none;stroke:#FF1A1A;stroke-width:3;stroke-miterlimit:10;" x1="380.3" y1="424.6" x2="373.9" y2="424.6"/>
							</g>
						</g>
					</g>
					<g>
						<g>
							<g>
								<line id="Path_Ue5_-1_0039" style="fill:none;stroke:#FF1A1A;stroke-width:3;stroke-miterlimit:10;" x1="390" y1="424.6" x2="383.5" y2="424.6"/>
							</g>
						</g>
					</g>
				</g>
			</g>
		</g>
	</g>
	<g>
		<g>
			<g>
				<g>
					<g>
						<g>
							<line id="Path_Ue5_-1_0040" style="fill:none;stroke:#FF1A1A;stroke-width:3;stroke-miterlimit:10;" x1="360.9" y1="435.1" x2="360.9" y2="424.6"/>
						</g>
					</g>
				</g>
				<g>
					<g>
						<g>
							<line id="Path_Ue5_-1_0041" style="fill:none;stroke:#FF1A1A;stroke-width:3;stroke-miterlimit:10;" x1="360.9" y1="450.8" x2="360.9" y2="440.2"/>
						</g>
					</g>
				</g>
			</g>
		</g>
	</g>
</g>
</svg>
